<?xml version="1.0" encoding="utf-8"?>
<!-- Generator: Adobe Illustrator 27.4.0, SVG Export Plug-In . SVG Version: 6.00 Build 0)  -->
<svg version="1.1" id="Layer_1" xmlns="http://www.w3.org/2000/svg" xmlns:xlink="http://www.w3.org/1999/xlink" x="0px" y="0px"
	 viewBox="0 0 680 300" style="enable-background:new 0 0 680 300;" xml:space="preserve">
<style type="text/css">
	.st0{fill:#137AB7;}
	.st1{fill:#6D9285;}
	.st2{fill:#37A7DF;}
	.st3{fill:#FFFFFF;}
	.st4{fill:#3F465A;}
</style>
<path class="st0" d="M114.4943,219.8478c-2.7053-0.2384-5.4312-0.5935-8.1015-1.0565l1.3427-7.7452
	c2.4545,0.4257,4.9607,0.752,7.4484,0.9712L114.4943,219.8478z M119.5948,220.1628l0.2758-7.8557
	c0.4534,0.0154,0.9064,0.0288,1.3606,0.0384c2.0449,0.044,4.1165,0.0176,6.16-0.0779l0.3687,7.8519
	c-2.2219,0.104-4.475,0.1329-6.6956,0.0851C120.575,220.1945,120.0845,220.1805,119.5948,220.1628z M101.3844,217.7862
	c-2.6438-0.6036-5.2969-1.328-7.8856-2.1549l2.3903-7.4879c2.3782,0.7592,4.8155,1.4242,7.2433,1.978L101.3844,217.7862z
	 M132.852,219.7492l-0.7745-7.8228c2.4808-0.2457,4.9817-0.6006,7.4335-1.0559l1.4336,7.7295
	C138.2758,219.095,135.553,219.4815,132.852,219.7492z M88.6621,213.9451c-2.5455-0.9645-5.0756-2.0472-7.5195-3.2184l3.3978-7.0889
	c2.244,1.0754,4.5677,2.0705,6.9068,2.957L88.6621,213.9451z M145.9405,217.535l-1.8365-7.6425
	c2.4178-0.5816,4.8468-1.2759,7.2189-2.0633l2.4783,7.4597C151.2183,216.147,148.5737,216.9022,145.9405,217.535z M76.589,208.3965
	c-2.384-1.301-4.741-2.7185-7.0055-4.2136l4.3315-6.5602c2.0815,1.3744,4.248,2.6784,6.4393,3.8744L76.589,208.3965z
	 M158.596,213.5547l-2.8685-7.318c2.3186-0.9093,4.6296-1.9296,6.8677-3.0327l3.4755,7.0502
	C163.6349,211.4548,161.1204,212.5656,158.596,213.5547z M65.3933,201.2544c-2.1818-1.6118-4.3235-3.3363-6.3647-5.1264l5.1821-5.91
	c1.8771,1.6456,3.8466,3.2319,5.8533,4.7139L65.3933,201.2544z M170.587,207.8776l-3.841-6.8588
	c2.1764-1.2186,4.3272-2.5448,6.3937-3.9418l4.4023,6.5129C175.2939,205.1088,172.9541,206.5523,170.587,207.8776z
	 M55.2763,192.6609c-1.9449-1.8943-3.833-3.8926-5.6116-5.9404l5.9354-5.1547c1.635,1.8836,3.3717,3.7209,5.1603,5.4626
	L55.2763,192.6609z M181.6956,200.6203l-4.7383-6.2715c1.9939-1.5066,3.9463-3.1131,5.8028-4.7759l5.2435,5.8566
	C185.9852,197.2365,183.863,198.9828,181.6956,200.6203z M46.4186,182.779c-1.672-2.1408-3.2723-4.377-4.7552-6.6448l6.5785-4.3027
	c1.3636,2.085,2.8344,4.1405,4.372,6.11L46.4186,182.779z M191.7179,191.9242l-5.5429-5.5743
	c1.7722-1.7616,3.489-3.6182,5.1034-5.5171l5.989,5.0921C195.5114,187.9895,193.6445,190.0083,191.7179,191.9242z M38.9826,171.7913
	c-1.3661-2.3477-2.6472-4.7801-3.808-7.2297l7.1036-3.3662c1.0662,2.2501,2.2439,4.4854,3.4993,6.644L38.9826,171.7913z
	 M33.1123,159.8958c-1.0334-2.5143-1.9699-5.0991-2.7839-7.6827l7.4972-2.3614c0.7475,2.3724,1.608,4.7465,2.5568,7.0561
	L33.1123,159.8958z M28.9221,147.3021c-0.6779-2.6275-1.2512-5.3173-1.7052-7.9935l7.7505-1.3139
	c0.4168,2.4594,0.9434,4.9307,1.5661,7.344L28.9221,147.3021z M26.4959,134.2501c-0.3111-2.6918-0.5123-5.4332-0.5979-8.1477
	l7.8564-0.2473c0.0788,2.4958,0.2641,5.0168,0.55,7.4926L26.4959,134.2501z M25.8693,120.9923l0.0026-0.1047
	c0.0307-1.4548,0.0946-2.9315,0.19-4.3841c0.0799-1.216,0.1839-2.4468,0.3092-3.6589l7.8188,0.8081
	c-0.1151,1.1147-0.2106,2.2469-0.2842,3.3662c-0.0878,1.3367-0.1469,2.6964-0.1752,4.0417l-3.9317,0.0157L25.8693,120.9923z
	 M34.7949,108.996l-7.766-1.2162c0.4201-2.6832,0.9598-5.3797,1.6042-8.0146l7.6357,1.8673
	C35.677,104.0535,35.181,106.5307,34.7949,108.996z M37.504,97.1037l-7.5267-2.2678c0.7839-2.6006,1.6884-5.1982,2.6878-7.7202
	l7.3075,2.8958C39.0545,92.3282,38.2241,94.7142,37.504,97.1037z M41.8204,85.6882l-7.1438-3.2793
	c1.1335-2.469,2.3854-4.9187,3.722-7.2801l6.8415,3.871C44.0122,81.1693,42.8618,83.4199,41.8204,85.6882z M47.6609,74.9681
	l-6.6288-4.2244c1.4587-2.289,3.033-4.5444,4.6784-6.7028l6.2519,4.7651C50.449,70.7913,49.0021,72.8637,47.6609,74.9681z
	 M54.9075,65.1443l-5.9943-5.0847c1.7559-2.0704,3.6216-4.0913,5.5437-6.0055l5.5471,5.5688
	C58.2367,61.3829,56.5222,63.2406,54.9075,65.1443z M197.9539,73.9944c-1.3709-2.0903-2.8443-4.144-4.3785-6.1056l6.19-4.8437
	c1.6692,2.132,3.2712,4.3653,4.7618,6.6385L197.9539,73.9944z M63.4172,56.3969l-5.2497-5.8512
	c2.0177-1.8099,4.1381-3.5592,6.3032-5.1978l4.7443,6.2681C67.2235,53.1227,65.273,54.7312,63.4172,56.3969z M190.5856,64.268
	c-1.6371-1.8818-3.3752-3.7183-5.1659-5.4572l5.4777-5.6377c1.947,1.8916,3.8372,3.8881,5.6183,5.9341L190.5856,64.268z
	 M73.0302,48.8807l-4.4093-6.5076c2.2519-1.5253,4.5903-2.9708,6.9521-4.2955l3.8461,6.8553
	C77.2494,46.15,75.0994,47.4791,73.0302,48.8807z M181.9667,55.6259c-1.8823-1.6469-3.853-3.2304-5.8576-4.7074l4.6629-6.3288
	c2.1802,1.6069,4.3239,3.3296,6.3704,5.12L181.9667,55.6259z M83.5675,42.7447l-3.4825-7.0468
	c2.4321-1.2018,4.9453-2.3147,7.4704-3.3075l2.8773,7.3147C88.112,40.6181,85.8023,41.6405,83.5675,42.7447z M172.2536,48.2302
	c-2.0868-1.3747-4.2548-2.676-6.4431-3.867l3.7578-6.9037c2.3809,1.296,4.7392,2.7107,7.0094,4.2061L172.2536,48.2302z
	 M94.8359,38.1049l-2.4872-7.4564c2.5705-0.8571,5.2139-1.6162,7.8567-2.2561l1.8481,7.6404
	C99.6253,36.6204,97.1965,37.3176,94.8359,38.1049z M161.6236,42.2264c-2.2563-1.0772-4.5817-2.0695-6.9117-2.9487l2.7768-7.3548
	c2.5363,0.9581,5.0666,2.0379,7.5215,3.2099L161.6236,42.2264z M106.6429,35.0525l-1.4395-7.728
	c2.6607-0.4954,5.3817-0.8849,8.0888-1.1571l0.7861,7.8216C111.5896,34.239,109.0879,34.5968,106.6429,35.0525z M150.2693,37.7319
	c-2.3798-0.7564-4.8177-1.4196-7.2457-1.9705l1.7394-7.6653c2.6435,0.5997,5.2978,1.3213,7.8881,2.1454L150.2693,37.7319z
	 M118.7612,33.6419l-0.3764-7.8524c2.2462-0.1072,4.5335-0.1377,6.7983-0.0889c0.4533,0.0086,0.9126,0.0225,1.3702,0.0381
	l-0.2749,7.8557c-0.4183-0.015-0.8373-0.0262-1.2575-0.0345C122.931,33.5149,120.8271,33.5421,118.7612,33.6419z M138.4182,34.8433
	c-2.4513-0.4226-4.9576-0.747-7.4484-0.9635l0.681-7.831c2.7097,0.2358,5.4364,0.588,8.1035,1.0489L138.4182,34.8433z"/>
<path class="st1" d="M113.8537,201.5158c-1.6596-0.1948-3.3359-0.4443-4.9815-0.7437l0.879-4.8343
	c1.5439,0.2812,3.1162,0.5163,4.6735,0.6976L113.8537,201.5158z M134.4496,201.2395l-0.6966-4.863
	c1.5482-0.2216,3.1138-0.498,4.6534-0.8195l1.0047,4.8093C137.7702,200.7088,136.1006,201.0034,134.4496,201.2395z
	 M142.8467,199.566l-1.2196-4.7594c1.5195-0.3896,3.0456-0.8329,4.5363-1.3184l1.5219,4.6711
	C146.0953,198.6775,144.4674,199.1505,142.8467,199.566z M97.1757,197.693c-1.5861-0.5508-3.1709-1.1601-4.7109-1.8088
	l1.9086-4.5272c1.4427,0.6084,2.9286,1.1783,4.4154,1.6955L97.1757,197.693z M151.0145,196.9896l-1.7301-4.5982
	c1.4624-0.5498,2.9305-1.1572,4.3645-1.8049l2.0223,4.4773C154.1417,195.7547,152.5747,196.4024,151.0145,196.9896z
	 M89.2406,194.441c-1.5151-0.7197-3.0236-1.4959-4.4826-2.3068l2.3855-4.295c1.3693,0.7609,2.7842,1.4892,4.2062,2.1647
	L89.2406,194.441z M158.8473,193.5438l-2.2223-4.3813c1.4019-0.711,2.7947-1.4739,4.1395-2.2674l2.4968,4.2317
	C161.8268,191.9731,160.3418,192.7858,158.8473,193.5438z M81.7105,190.3504c-1.4182-0.8742-2.8331-1.8078-4.2048-2.777
	l2.8336-4.0129c1.2887,0.9097,2.6167,1.7867,3.9476,2.6062L81.7105,190.3504z M166.2542,189.27l-2.681-4.1165
	c1.3103-0.854,2.6129-1.7627,3.8708-2.7021l2.9401,3.9361C169.0417,187.3902,167.6522,188.3594,166.2542,189.27z M74.6697,185.472
	c-1.3251-1.0277-2.6316-2.1091-3.8819-3.2135l3.2519-3.6828c1.1726,1.0363,2.3979,2.0496,3.641,3.014L74.6697,185.472z
	 M173.1601,184.2179l-3.1118-3.8018c1.2186-0.997,2.4166-2.0429,3.5609-3.107l3.346,3.5983
	C175.735,182.0416,174.4579,183.1557,173.1601,184.2179z M68.1966,179.8673c-1.2014-1.1591-2.3831-2.373-3.512-3.6089l3.6271-3.3134
	c1.0598,1.1601,2.1686,2.2991,3.2961,3.3872L68.1966,179.8673z M179.484,178.4491l-3.5024-3.4448
	c1.1044-1.1227,2.1835-2.2905,3.2073-3.4726l3.7125,3.2184C181.8105,176.0089,180.6604,177.2534,179.484,178.4491z
	 M62.3663,173.6023c-1.068-1.2791-2.112-2.6138-3.1027-3.9659l3.963-2.9036c0.9298,1.2685,1.909,2.5208,2.9108,3.7202
	L62.3663,173.6023z M185.1526,172.0335l-3.8517-3.0495c0.9759-1.2321,1.923-2.5102,2.8163-3.7979l4.0369,2.8
	C187.2022,169.3582,186.1923,170.7198,185.1526,172.0335z M57.2447,166.7482c-0.9255-1.3885-1.8193-2.8278-2.6561-4.2758
	l4.2537-2.4584c0.7849,1.3587,1.6231,2.7079,2.491,4.0109L57.2447,166.7482z M190.1015,165.0412l-4.1578-2.6177
	c0.8358-1.3271,1.6399-2.6992,2.3903-4.0791l4.3161,2.3471C191.8498,162.1625,190.9925,163.6258,190.1015,165.0412z
	 M52.8964,159.3836c-0.7696-1.4806-1.5017-3.0072-2.1763-4.5368l4.4955-1.9824c0.6324,1.4345,1.3189,2.8662,2.04,4.2547
	L52.8964,159.3836z M194.2679,157.5537l-4.4159-2.1532c0.6866-1.4086,1.3376-2.8604,1.9345-4.3151l4.5454,1.8654
	C195.6948,154.5024,195.0005,156.0511,194.2679,157.5537z M49.3701,151.5872c-0.605-1.5593-1.1673-3.1579-1.6715-4.7546
	l4.6846-1.4796c0.4726,1.496,0.9999,2.9948,1.567,4.4552L49.3701,151.5872z M197.6,149.6508l-4.6241-1.66
	c0.5297-1.4748,1.0191-2.989,1.4542-4.5013l4.721,1.3587C198.6867,146.4613,198.1652,148.0772,197.6,149.6508z M46.7111,143.4444
	c-0.4304-1.613-0.8156-3.2635-1.1438-4.9053l4.8179-0.9634c0.3075,1.541,0.6688,3.0888,1.0728,4.602L46.7111,143.4444z
	 M44.9532,135.0665c-0.2533-1.6485-0.4572-3.3306-0.6074-4.9993l4.8937-0.4395c0.1401,1.567,0.332,3.1454,0.57,4.6922
	L44.9532,135.0665z M44.1079,126.5274l2.455-0.0912l-2.4555,0.0739c-0.0552-1.2263-0.082-2.4286-0.082-3.6156
	c0-0.4615,0.0038-0.9221,0.012-1.3818l4.912,0.0844c-0.0072,0.4308-0.011,0.8646-0.011,1.2973c0,1.115,0.025,2.2434,0.0748,3.3546
	l-2.4502,0.1871L44.1079,126.5274z M49.0798,118.2916l-4.9033-0.3032c0.1027-1.6658,0.2605-3.3527,0.4697-5.0146l4.8745,0.6122
	C49.3245,115.1452,49.1762,116.7284,49.0798,118.2916z M50.0072,110.3167l-4.8419-0.8329c0.284-1.6524,0.6247-3.3133,1.0123-4.9369
	l4.7786,1.1419C50.5925,107.2096,50.2735,108.767,50.0072,110.3167z M51.7963,102.4886l-4.722-1.3549
	c0.4611-1.6073,0.9811-3.2232,1.5458-4.8026l4.626,1.6524C52.7165,99.466,52.2291,100.9821,51.7963,102.4886z M54.4322,94.8909
	l-4.5473-1.8615c0.6338-1.5478,1.3266-3.0975,2.0592-4.604l4.4188,2.1475C55.6758,91.9863,55.0262,93.439,54.4322,94.8909z
	 M57.8775,87.627l-4.318-2.3432c0.7998-1.4739,1.6557-2.9382,2.5447-4.3525l4.1597,2.6138
	C59.4305,84.8712,58.6274,86.2443,57.8775,87.627z M62.0876,80.7825l-4.0397-2.7962c0.9466-1.3674,1.9546-2.7299,2.9967-4.0503
	l3.8565,3.0437C63.9222,78.2195,62.9756,79.4996,62.0876,80.7825z M67.0086,74.4312l-3.7154-3.2145
	c1.0987-1.2695,2.2473-2.516,3.4151-3.7039l3.5043,3.4429C69.1173,72.0707,68.0397,73.2394,67.0086,74.4312z M177.8854,72.9055
	c-1.0622-1.1601-2.1724-2.2981-3.2999-3.3844l3.4074-3.5388c1.2018,1.1563,2.3845,2.3701,3.5158,3.6051L177.8854,72.9055z
	 M72.5827,68.647l-3.3489-3.5945c1.2182-1.1352,2.4939-2.2502,3.7907-3.3143l3.1166,3.7979
	C74.9231,66.536,73.726,67.5819,72.5827,68.647z M172.1516,67.2796c-1.1769-1.0363-2.4032-2.0496-3.6444-3.0111l3.0072-3.8843
	c1.3232,1.0238,2.6301,2.1043,3.8843,3.2088L172.1516,67.2796z M78.7426,63.4999l-2.943-3.9342
	c1.3376-1.0008,2.7256-1.9709,4.1256-2.8854l2.6868,4.1127C81.2984,61.6509,79.9967,62.5615,78.7426,63.4999z M165.8449,62.3005
	c-1.2834-0.9049-2.6119-1.78-3.9486-2.6014l2.5711-4.1856c1.4249,0.8742,2.8408,1.8068,4.2091,2.7722L165.8449,62.3005z
	 M85.4173,59.0495l-2.4996-4.2297c1.4427-0.8521,2.9267-1.6667,4.4116-2.421l2.2252,4.3794
	C88.1621,57.4864,86.7702,58.2502,85.4173,59.0495z M159.0373,58.0285c-1.3784-0.7628-2.7937-1.4902-4.2077-2.159l2.1033-4.4408
	c1.507,0.7139,3.0164,1.4892,4.485,2.3029L159.0373,58.0285z M92.53,55.3494l-2.0275-4.4754
	c1.5199-0.689,3.0864-1.3386,4.6548-1.9306l1.7358,4.5963C95.4226,54.0953,93.9544,54.7037,92.53,55.3494z M151.8037,54.5185
	c-1.4403-0.6055-2.9262-1.1745-4.4164-1.6907l1.6073-4.6423c1.5905,0.5508,3.1761,1.1572,4.7138,1.804L151.8037,54.5185z
	 M100.0126,52.4401l-1.5276-4.6692c1.5943-0.522,3.2222-0.997,4.8386-1.4115l1.2225,4.7575
	C103.0318,51.5064,101.5066,51.9517,100.0126,52.4401z M144.2309,51.8125c-1.5003-0.4452-3.0375-0.8473-4.5689-1.1966l1.091-4.7901
	c1.6341,0.3723,3.2745,0.8022,4.876,1.2772L144.2309,51.8125z M107.7677,50.3636l-1.0104-4.8074
	c1.6317-0.3435,3.3009-0.6391,4.9609-0.879l0.7024,4.863C110.8633,49.7648,109.2977,50.0421,107.7677,50.3636z M136.4211,49.9539
	c-1.5387-0.2792-3.1109-0.5124-4.673-0.6928l0.5652-4.8803c1.6658,0.1929,3.3426,0.4414,4.9839,0.7389L136.4211,49.9539z
	 M115.7042,49.1382l-0.4865-4.888c1.4561-0.1459,2.9338-0.2514,4.3914-0.3157l0.6424-0.0269l0.1612,4.911l-0.58,0.023
	C118.4586,48.9031,117.0716,49.0029,115.7042,49.1382z M128.4567,48.953c-1.5756-0.1104-3.1646-0.1727-4.7234-0.1833l0.0345-4.9129
	c1.6615,0.0115,3.3546,0.0777,5.0324,0.1948L128.4567,48.953z"/>
<path class="st2" d="M123.0703,194.1407c-0.569,0-1.1366-0.0067-1.7023-0.0202l0.1094-4.8131
	c1.4465,0.0307,2.9175,0.0211,4.3885-0.0394l0.0504-0.0115l0.2912-0.0019v2.4104l0.4951,2.349l-0.4155,0.0547
	C125.2153,194.1167,124.1334,194.1407,123.0703,194.1407z M129.3405,193.8691l-0.4174-4.7959
	c1.5252-0.1334,3.0672-0.3205,4.5838-0.5585l0.7465,4.7556C132.6284,193.5256,130.9751,193.7271,129.3405,193.8691z
	 M137.24,192.7359l-0.9509-4.7191c1.5046-0.3032,3.0159-0.6631,4.4917-1.068l1.2753,4.6423
	C140.4733,192.0258,138.853,192.4116,137.24,192.7359z M144.964,190.7256l-1.4768-4.5828c1.46-0.4702,2.9214-0.9979,4.343-1.5679
	l1.7915,4.4696C148.0965,189.6557,146.5295,190.2209,144.964,190.7256z M95.1294,188.4208
	c-1.5084-0.6467-3.0168-1.3559-4.484-2.1091l2.1993-4.2835c1.3679,0.7024,2.775,1.3645,4.1817,1.9671L95.1294,188.4208z
	 M152.4121,187.8546l-1.9825-4.3871c1.3918-0.6285,2.7827-1.3165,4.1347-2.0448l2.2828,4.2393
	C155.3968,186.4431,153.9046,187.1801,152.4121,187.8546z M87.974,184.8666c-1.4235-0.8099-2.8422-1.684-4.2172-2.5966
	l2.6637-4.0109c1.2829,0.8521,2.6071,1.6677,3.9351,2.4238L87.974,184.8666z M81.2662,180.537
	c-1.3309-0.9682-2.6431-1.9949-3.9011-3.0514l3.0965-3.6866c1.1726,0.9845,2.397,1.9421,3.6382,2.846L81.2662,180.537z
	 M75.0847,175.4879c-1.2148-1.1112-2.4042-2.277-3.5355-3.465l3.487-3.3201c1.055,1.1083,2.1648,2.1955,3.2985,3.2327
	L75.0847,175.4879z M69.5064,169.7833c-1.0795-1.234-2.1317-2.5246-3.1272-3.8363l3.8344-2.9113
	c0.9288,1.2234,1.9105,2.4277,2.917,3.5791L69.5064,169.7833z M64.5992,163.4963c-0.9404-1.3549-1.8414-2.7549-2.6791-4.1626
	l4.1376-2.4622c0.7801,1.3117,1.6202,2.6167,2.4968,3.8785L64.5992,163.4963z M60.4266,156.7007
	c-0.7782-1.4432-1.5166-2.9353-2.194-4.4332l4.3871-1.9844c0.6314,1.3971,1.3194,2.7875,2.0453,4.1338L60.4266,156.7007z
	 M57.0432,149.4781c-0.6127-1.5267-1.1788-3.0936-1.6831-4.6586l4.5828-1.4758c0.4697,1.4576,0.9975,2.918,1.5679,4.3401
	L57.0432,149.4781z M54.4927,141.913c-0.4356-1.5814-0.8219-3.202-1.1476-4.817l4.7201-0.9519
	c0.3032,1.5055,0.6631,3.0159,1.0694,4.4907L54.4927,141.913z M192.1257,140.5283l-4.6663-1.186
	c0.3771-1.4825,0.7067-2.9996,0.9807-4.5109l4.7373,0.8578C192.8842,137.31,192.5302,138.9384,192.1257,140.5283z M52.811,134.1108
	c-0.2552-1.6188-0.4572-3.2721-0.6007-4.9139l4.7968-0.4184c0.1334,1.5314,0.3219,3.0735,0.5594,4.5838L52.811,134.1108z
	 M193.6533,132.6945l-4.77-0.6544c0.2077-1.5142,0.3646-3.0591,0.4663-4.5915l4.8045,0.3186
	C194.0448,129.4119,193.8764,131.069,193.6533,132.6945z M52.0108,126.1916l-0.0029-0.0624
	c-0.0485-1.0805-0.0729-2.1628-0.0729-3.2289c0-0.5613,0.0067-1.1208,0.0202-1.6792l4.8131,0.1152
	c-0.0125,0.5201-0.0182,1.0411-0.0182,1.5641c0,0.9951,0.0225,2.0045,0.0672,3.0015L52.0108,126.1916z M194.2914,124.7388
	l-4.8131-0.1171c0.013-0.5364,0.0192-1.0766,0.0192-1.6178c0-0.9912-0.0221-2.0007-0.0667-3.0015l4.804-0.3406l0.0034,0.0681
	c0.0499,1.1313,0.0744,2.2127,0.0744,3.274C194.3125,123.5835,194.3053,124.1621,194.2914,124.7388z M56.894,118.5103
	l-4.8045-0.3167c0.108-1.6389,0.2754-3.2961,0.4966-4.9254l4.7709,0.6487C57.1502,115.4359,56.9947,116.9818,56.894,118.5103z
	 M189.2374,117.0739c-0.1358-1.5324-0.3253-3.0744-0.5642-4.5838l4.7556-0.7523c0.2557,1.6178,0.4592,3.2702,0.6045,4.912
	L189.2374,117.0739z M57.7983,111.1266l-4.7383-0.854c0.2907-1.6159,0.6434-3.2452,1.0478-4.84l4.6673,1.1822
	C58.3981,108.102,58.0699,109.6201,57.7983,111.1266z M188.1714,109.7083c-0.3037-1.5017-0.6645-3.0121-1.0728-4.4898l4.6414-1.282
	c0.4376,1.5852,0.8247,3.2059,1.1505,4.816L188.1714,109.7083z M59.5294,103.8829l-4.6116-1.3818
	c0.4735-1.5814,1.009-3.1627,1.5905-4.699l4.5032,1.7042C60.4697,100.938,59.9713,102.4099,59.5294,103.8829z M186.2883,102.5107
	c-0.4707-1.4576-0.9994-2.918-1.5713-4.3401l4.4667-1.7963c0.6136,1.5257,1.1812,3.0927,1.6864,4.6567L186.2883,102.5107z
	 M62.0693,96.8791l-4.4264-1.8942c0.6467-1.5113,1.3563-3.0207,2.1081-4.4859l4.2835,2.1974
	C63.3335,94.0628,62.6724,95.4695,62.0693,96.8791z M183.6053,95.5712c-0.6299-1.3914-1.3189-2.7808-2.0482-4.1309l4.2364-2.2876
	c0.782,1.448,1.5219,2.9391,2.1979,4.4322L183.6053,95.5712z M65.3808,90.2073l-4.1856-2.3797
	c0.8132-1.4307,1.6864-2.8499,2.5966-4.2192l4.01,2.6637C66.9535,87.5493,66.1393,88.8725,65.3808,90.2073z M180.1629,88.9877
	c-0.7849-1.3156-1.626-2.6196-2.5006-3.8776l3.9534-2.7482c0.9375,1.3482,1.84,2.7482,2.682,4.1597L180.1629,88.9877z
	 M69.4166,83.95l-3.8944-2.8307c0.9668-1.3309,1.993-2.6436,3.0495-3.9025l3.6885,3.0936
	C71.2753,81.4849,70.3182,82.7093,69.4166,83.95z M176.0023,82.8264c-0.9313-1.2234-1.9138-2.4267-2.9204-3.5763l3.6214-3.1723
	c1.0795,1.2321,2.1326,2.5217,3.1306,3.8334L176.0023,82.8264z M74.1237,78.1831l-3.5542-3.2471
	c1.1054-1.21,2.2708-2.4008,3.463-3.5379l3.3229,3.4851C76.2425,75.9435,75.1553,77.0546,74.1237,78.1831z M171.1743,77.165
	c-1.056-1.1073-2.1667-2.1945-3.3013-3.2299l3.2471-3.5561c1.2158,1.1102,2.4061,2.2751,3.5384,3.4621L171.1743,77.165z
	 M79.4421,72.9775l-3.1713-3.6233c1.2345-1.0805,2.5251-2.1341,3.8354-3.1291l2.9132,3.8325
	C81.7973,70.9864,80.5936,71.969,79.4421,72.9775z M165.7451,72.0726c-1.1759-0.9864-2.4008-1.9431-3.6406-2.8432l2.8297-3.8958
	c1.3295,0.9663,2.6431,1.992,3.9035,3.0485L165.7451,72.0726z M85.3036,68.3985l-2.7463-3.9553
	c1.3419-0.9317,2.741-1.8337,4.1582-2.68l2.4689,4.1338C87.8612,66.6866,86.5553,67.5281,85.3036,68.3985z M159.7805,67.6155
	c-1.2801-0.8502-2.6042-1.6639-3.9342-2.419l2.3759-4.1875c1.4278,0.8099,2.8484,1.6831,4.222,2.5956L159.7805,67.6155z
	 M91.6366,64.5065l-2.2876-4.2374c1.4451-0.7801,2.9372-1.519,4.4341-2.1974l1.9853,4.3861
	C94.3738,63.0902,92.9834,63.7792,91.6366,64.5065z M153.3539,63.8502c-1.3602-0.6976-2.7669-1.3578-4.1808-1.9623l1.8913-4.4274
	c1.5175,0.6477,3.0274,1.3568,4.4879,2.1062L153.3539,63.8502z M98.3674,61.3505l-1.7944-4.4677
	c1.5247-0.6122,3.0912-1.1793,4.6562-1.684l1.4796,4.5809C101.2495,60.2518,99.7885,60.7796,98.3674,61.3505z M146.5453,60.8314
	c-1.4398-0.5431-2.9127-1.0411-4.378-1.4806l1.3808-4.6116c1.5727,0.4702,3.1531,1.0047,4.6975,1.5881L146.5453,60.8314z
	 M105.4163,58.9699l-1.281-4.6404c1.5794-0.4366,3.2001-0.8233,4.817-1.1496l0.9538,4.7191
	C108.3982,58.2032,106.8878,58.564,105.4163,58.9699z M139.4355,58.5975c-1.4907-0.3771-3.0082-0.7043-4.5114-0.9749l0.8502-4.7383
	c1.6135,0.2888,3.2428,0.641,4.8414,1.0459L139.4355,58.5975z M112.6874,57.4l-0.7494-4.7556
	c1.625-0.2562,3.2778-0.4587,4.9124-0.6016l0.4203,4.7959C115.7455,56.9721,114.2035,57.1611,112.6874,57.4z M132.1328,57.1822
	c-1.5228-0.2063-3.0682-0.3618-4.5939-0.4615l0.3138-4.8035c1.6365,0.1065,3.2942,0.2725,4.9268,0.4942L132.1328,57.1822z
	 M120.0688,56.6496l-0.1689-4.8112l0.084-0.0029c1.5914-0.071,3.238-0.0902,4.8419-0.0518l-0.1132,4.8131
	c-1.4969-0.0326-3.0202-0.0173-4.5392,0.0489L120.0688,56.6496z"/>
<path class="st0" d="M122.6231,186.7224c-1.6375-0.0115-3.2942-0.0873-4.924-0.2255l0.4001-4.6999
	c1.5075,0.1286,3.0404,0.1986,4.5555,0.2082L122.6231,186.7224z M125.7038,186.6677l-0.1957-4.7114
	c1.5075-0.0633,3.0384-0.1862,4.5493-0.3666l0.5594,4.6826C128.9854,186.4671,127.3321,186.6005,125.7038,186.6677z
	 M133.6686,185.8338l-0.7897-4.65l0.807-0.1411c1.2186-0.2207,2.4541-0.4855,3.6693-0.7859l1.1313,4.579
	c-1.3108,0.3234-2.6431,0.6093-3.961,0.8483L133.6686,185.8338z M106.7717,184.595c-1.5813-0.4203-3.1665-0.9087-4.7119-1.4509
	l1.5622-4.4504c1.4302,0.5018,2.8979,0.9538,4.3617,1.3434L106.7717,184.595z M141.4573,184.025l-1.3501-4.5195
	c1.4494-0.4328,2.9017-0.9288,4.3175-1.4739l1.6955,4.4005C144.5912,183.0213,143.0223,183.5577,141.4573,184.025z
	 M99.1768,182.0531c-1.5113-0.6151-3.0221-1.2973-4.4893-2.0295l2.1043-4.2201c1.3606,0.6784,2.7606,1.3107,4.1611,1.8798
	L99.1768,182.0531z M91.9633,178.5815c-1.4249-0.7993-2.8384-1.6648-4.2014-2.5735l2.6158-3.9246
	c1.2628,0.8415,2.5726,1.6437,3.8924,2.3835L91.9633,178.5815z M156.0632,177.5643l-2.4353-4.0397
	c1.293-0.7792,2.5745-1.6226,3.809-2.5054l2.7443,3.8363C158.8468,175.8093,157.4612,176.7209,156.0632,177.5643z M85.2417,174.2385
	c-1.3165-0.972-2.6114-2.0064-3.8483-3.0763l3.085-3.5676c1.1457,0.9903,2.3452,1.9498,3.5643,2.8499L85.2417,174.2385z
	 M162.639,173.0074l-2.9257-3.7001c1.185-0.9375,2.3519-1.9354,3.4669-2.966l3.202,3.4621
	C165.1785,170.9165,163.9191,171.9951,162.639,173.0074z M79.1144,169.0934c-1.1812-1.1246-2.3365-2.3125-3.4343-3.5321
	l3.5053-3.155c1.0166,1.1294,2.087,2.23,3.1809,3.2711L79.1144,169.0934z M168.5902,167.6598l-3.3652-3.3047
	c1.0618-1.0814,2.0947-2.2175,3.0691-3.3767l3.6099,3.0341C170.8523,165.2647,169.7373,166.4911,168.5902,167.6598z
	 M73.6771,163.2238c-1.0334-1.2666-2.0309-2.5908-2.9645-3.9352l3.8737-2.6906c0.8646,1.2455,1.7881,2.4709,2.7448,3.6434
	L73.6771,163.2238z M173.8294,161.6098l-3.7528-2.8576c0.9202-1.2081,1.8035-2.4651,2.6254-3.7355l3.9601,2.562
	C175.7749,158.9499,174.822,160.3058,173.8294,161.6098z M69.0203,156.7209c-0.8646-1.3837-1.6869-2.823-2.4449-4.2767
	l4.1817-2.1801c0.7019,1.3453,1.4633,2.6772,2.2636,3.9582L69.0203,156.7209z M178.2721,154.9534l-4.0781-2.3682
	c0.7609-1.3107,1.4806-2.6676,2.1393-4.033l4.248,2.0477C179.8707,152.0737,179.094,153.539,178.2721,154.9534z M65.2186,149.6767
	c-0.6851-1.4863-1.3199-3.0178-1.8865-4.5521l4.4236-1.6351c0.5249,1.4201,1.1126,2.8384,1.7464,4.2144L65.2186,149.6767z
	 M181.8527,147.7931l-4.342-1.8423c0.592-1.3952,1.1366-2.8307,1.6183-4.2662l4.4715,1.4988
	C183.0805,144.735,182.4922,146.2857,181.8527,147.7931z M62.3351,142.2095c-0.4923-1.5593-0.9298-3.1589-1.3002-4.7517
	l4.5934-1.0689c0.3435,1.4758,0.7485,2.9574,1.2042,4.4025L62.3351,142.2095z M184.5107,140.2357l-4.5397-1.28
	c0.4131-1.4633,0.7724-2.9564,1.0685-4.438l4.6251,0.925C185.3445,137.0423,184.9564,138.6553,184.5107,140.2357z M60.4088,134.4447
	l-0.0158-0.0864c-0.2879-1.5852-0.5191-3.1953-0.6866-4.7901l4.6903-0.4932c0.1554,1.4777,0.3694,2.9698,0.6362,4.436
	L60.4088,134.4447z M186.1956,132.4038l-4.6644-0.6985c0.2241-1.4979,0.392-3.0236,0.499-4.5349l4.7047,0.3339
	C186.6193,129.1355,186.4379,130.784,186.1956,132.4038z M59.4574,126.4967c-0.0681-1.1946-0.1027-2.4104-0.1032-3.6137
	c0-0.4395,0.0043-0.877,0.0134-1.3127l4.7153,0.096c-0.0082,0.4049-0.0125,0.8099-0.0125,1.2158
	c0.0005,1.114,0.0326,2.2406,0.0955,3.3479L59.4574,126.4967z M186.8779,124.427l-4.7153-0.1056
	c0.0096-0.4318,0.0144-0.8636,0.0144-1.2973c0-1.0824-0.0307-2.1811-0.0907-3.2654l4.7095-0.261
	c0.0648,1.1716,0.0974,2.3576,0.0974,3.5264C186.8932,123.4924,186.8885,123.9606,186.8779,124.427z M64.2111,118.8184
	l-4.7047-0.3262c0.1127-1.6293,0.2917-3.2778,0.5321-4.8995l4.6654,0.6909C64.4816,115.7842,64.3156,117.3099,64.2111,118.8184z
	 M181.8599,116.9136c-0.1559-1.5027-0.3733-3.0236-0.6453-4.5195l-0.0298-0.1622l4.6366-0.8636l0.0341,0.1852
	c0.2932,1.6101,0.5273,3.251,0.6957,4.8726L181.8599,116.9136z M65.1922,111.4701l-4.626-0.9193
	c0.3195-1.6073,0.7058-3.2203,1.1481-4.7959l4.5406,1.2762C65.8452,108.4887,65.4877,109.9818,65.1922,111.4701z M180.5995,109.4349
	c-0.3464-1.4787-0.7537-2.9593-1.21-4.3996l4.4955-1.4259c0.4932,1.5554,0.9327,3.1531,1.3069,4.7508L180.5995,109.4349z
	 M67.0921,104.3003l-4.4735-1.4931c0.5196-1.5564,1.1054-3.108,1.7416-4.6126l4.3439,1.8366
	C68.1155,101.4235,67.5733,102.86,67.0921,104.3003z M178.4621,102.337c-0.5282-1.423-1.1179-2.8393-1.7517-4.2115l4.2806-1.9786
	c0.6851,1.4816,1.3218,3.012,1.8927,4.5493L178.4621,102.337z M175.451,95.5693c-0.7038-1.3443-1.4672-2.6752-2.2689-3.9553
	l3.9966-2.5044c0.8665,1.3827,1.6912,2.8211,2.4512,4.2739L175.451,95.5693z M171.6133,89.2391
	c-0.8665-1.2445-1.792-2.4689-2.7501-3.6406l3.6502-2.9861c1.0349,1.2647,2.0343,2.587,2.9698,3.9303L171.6133,89.2391z
	 M167.0069,83.4386c-1.0157-1.1256-2.0875-2.2252-3.1857-3.2682l3.2481-3.4199c1.1855,1.1256,2.3428,2.3125,3.4391,3.5273
	L167.0069,83.4386z M161.7044,78.2569c-1.1404-0.9855-2.3404-1.9421-3.5662-2.8451l2.7952-3.7979
	c1.3247,0.9749,2.6215,2.0084,3.854,3.0735L161.7044,78.2569z M155.7993,73.7758c-1.2618-0.8387-2.5726-1.6389-3.8949-2.3787
	l2.301-4.1165c1.4283,0.7983,2.8432,1.6619,4.2057,2.5687L155.7993,73.7758z M149.3799,70.0642
	c-1.3602-0.6765-2.7607-1.3069-4.1611-1.874l1.7675-4.3717c1.5137,0.6112,3.026,1.2925,4.495,2.0237L149.3799,70.0642z
	 M142.5478,67.1846c-1.4365-0.5019-2.9055-0.9519-4.3655-1.3376l1.2062-4.5598c1.5766,0.4174,3.1622,0.9029,4.7129,1.4432
	L142.5478,67.1846z M108.8112,65.6685l-1.1371-4.5771c1.3323-0.331,2.694-0.6237,4.0469-0.8703l0.7715-0.1353l0.7916,4.65
	l-0.7197,0.1257C111.3104,65.0899,110.0476,65.3615,108.8112,65.6685z M135.4039,65.1849
	c-1.4777-0.3157-2.9909-0.5767-4.4965-0.7772l0.6208-4.675c1.6269,0.2159,3.262,0.498,4.8602,0.8396L135.4039,65.1849z
	 M116.1077,64.3261l-0.5652-4.6826c1.6264-0.1957,3.2788-0.332,4.911-0.4021l0.2044,4.7114
	C119.1457,64.019,117.6147,64.1438,116.1077,64.3261z M128.0662,64.1016c-1.5127-0.1257-3.0461-0.1938-4.5574-0.2015l0.0259-4.7172
	c1.6327,0.0096,3.2889,0.0825,4.923,0.2188L128.0662,64.1016z"/>
<path class="st1" d="M123.0823,179.7944c-0.7321,0-1.4614-0.0134-2.1873-0.0413l0.1775-4.6155
	c1.4441,0.0557,2.9027,0.0509,4.3732-0.0134l0.2783,4.6097l-0.0581,0.0029C124.7898,179.7761,123.9343,179.7944,123.0823,179.7944z
	 M118.8492,179.6389c-1.5991-0.119-3.2073-0.3071-4.7805-0.5594l0.7302-4.5598c1.4456,0.2312,2.9233,0.404,4.3928,0.5134
	L118.8492,179.6389z M127.7515,179.6063l-0.3742-4.604c1.471-0.119,2.9487-0.3013,4.3914-0.5412l0.7571,4.556
	C130.9564,179.2781,129.3501,179.4758,127.7515,179.6063z M112.0507,178.7177c-1.5674-0.3099-3.1416-0.6918-4.6793-1.1351
	l1.2781-4.437c1.412,0.4059,2.858,0.7571,4.2974,1.0411L112.0507,178.7177z M134.5427,178.6448l-0.9236-4.5253
	c1.4408-0.2936,2.8844-0.6525,4.2916-1.067l1.3031,4.4312C137.6824,177.9338,136.1106,178.3243,134.5427,178.6448z
	 M105.4077,176.9781c-1.5204-0.499-3.0375-1.0699-4.5094-1.6965l1.8097-4.2489c1.3511,0.5757,2.7434,1.0997,4.139,1.5564
	L105.4077,176.9781z M141.1694,176.8677l-1.4633-4.3794c1.3928-0.4654,2.7822-0.997,4.129-1.5794l1.8327,4.2393
	C144.2007,175.7824,142.687,176.3611,141.1694,176.8677z M99.0238,174.4448c-1.4456-0.6774-2.8825-1.4278-4.27-2.229l2.3097-3.9994
	c1.2743,0.736,2.5932,1.4249,3.9208,2.0467L99.0238,174.4448z M147.5289,174.3047l-1.9853-4.1702
	c1.3251-0.6304,2.6402-1.3261,3.9088-2.0678l2.3298,3.9879C150.4018,172.8606,148.9711,173.6177,147.5289,174.3047z
	 M92.9963,171.1583c-1.3573-0.8492-2.6925-1.7665-3.9687-2.7251l2.7731-3.6924c1.1726,0.8799,2.3994,1.7224,3.6473,2.5044
	L92.9963,171.1583z M153.53,170.9904l-2.4747-3.8996c1.2397-0.7868,2.4617-1.636,3.6324-2.5255l2.7933,3.677
	C156.2081,169.2095,154.8786,170.1345,153.53,170.9904z M87.4112,167.1752c-1.2436-1.0056-2.4589-2.0746-3.6127-3.18l3.1944-3.3354
	c1.0608,1.0162,2.1782,1.9997,3.321,2.9228L87.4112,167.1752z M159.0887,166.9747l-2.9247-3.5734
	c1.1361-0.9298,2.2473-1.9201,3.3028-2.9439l3.2155,3.3143C161.5336,164.8857,160.3246,165.9643,159.0887,166.9747z
	 M82.3443,162.5511c-1.1155-1.1476-2.194-2.3567-3.2064-3.5916l3.5724-2.9267c0.9298,1.1342,1.921,2.2444,2.9463,3.2999
	L82.3443,162.5511z M164.1273,162.3208l-3.3335-3.1973c1.0219-1.0651,2.0069-2.182,2.9281-3.3191l3.5887,2.9055
	C166.3088,159.9478,165.2375,161.1626,164.1273,162.3208z M77.8699,157.3551c-0.9687-1.2714-1.8946-2.5994-2.752-3.9486
	l3.8977-2.4776c0.7878,1.2397,1.638,2.4603,2.5275,3.6281L77.8699,157.3551z M168.572,157.0951l-3.6924-2.775
	c0.8847-1.1764,1.7287-2.4037,2.5092-3.6473l3.9111,2.4565C170.4512,154.4803,169.5334,155.815,168.572,157.0951z M74.0518,151.6611
	c-0.8094-1.3808-1.5679-2.8115-2.2554-4.2537l4.1693-1.9863c0.6304,1.3232,1.3271,2.6369,2.0702,3.9044L74.0518,151.6611z
	 M172.3593,151.3723l-3.9985-2.3106c0.7369-1.2762,1.4273-2.5956,2.0515-3.9217l4.1789,1.9652
	C173.9119,148.5493,173.161,149.9848,172.3593,151.3723z M70.9505,145.5478c-0.6348-1.4652-1.2153-2.9775-1.7248-4.4965
	l4.3785-1.4681c0.4678,1.3942,1.0008,2.7827,1.5838,4.128L70.9505,145.5478z M175.4318,145.2321l-4.248-1.8116
	c0.5772-1.353,1.1025-2.7453,1.5617-4.1395l4.3861,1.4432C176.6318,142.2431,176.0599,143.7601,175.4318,145.2321z
	 M68.6097,139.0967c-0.4529-1.5334-0.8449-3.1051-1.1659-4.6711l4.5243-0.9269c0.2946,1.4384,0.6549,2.8815,1.0709,4.2892
	L68.6097,139.0967z M67.0686,132.4114c-0.2629-1.5717-0.463-3.178-0.5944-4.7747l4.603-0.3781
	c0.1204,1.4681,0.3042,2.9449,0.5465,4.389L67.0686,132.4114z M66.3446,125.6063l-0.0034-0.0691
	c-0.0413-0.9173-0.0605-1.7733-0.0605-2.6263c0-0.713,0.0134-1.423,0.0403-2.1312l4.6145,0.1727
	c-0.024,0.6506-0.0365,1.3031-0.0365,1.9585c0,0.784,0.0173,1.5708,0.0528,2.3615L66.3446,125.6063z M71.0393,119.0726
	l-4.6059-0.3378c0.1171-1.5996,0.3037-3.2088,0.5546-4.7824l4.5608,0.7273C71.318,116.1249,71.1467,117.6026,71.0393,119.0726z
	 M71.8779,112.8279l-4.531-0.8924c0.3085-1.5679,0.6885-3.1425,1.1294-4.6788l4.4389,1.2724
	C72.5107,109.9405,72.1615,111.3866,71.8779,112.8279z M73.4693,106.7251l-4.389-1.4355c0.4961-1.518,1.0651-3.0351,1.6903-4.5099
	l4.2518,1.802C74.4481,103.9376,73.9256,105.3308,73.4693,106.7251z M75.7905,100.8603l-4.1827-1.9575
	c0.6784-1.4508,1.4269-2.8883,2.2243-4.2719l4.0014,2.3049C77.1017,98.2071,76.4142,99.5274,75.7905,100.8603z M78.803,95.3198
	l-3.9169-2.4469c0.8454-1.353,1.7608-2.6896,2.7203-3.9716l3.6972,2.7674C80.4213,92.848,79.5798,94.0762,78.803,95.3198z
	 M82.4599,90.1833l-3.5945-2.8998c1.0047-1.2455,2.0731-2.4622,3.1766-3.6166l3.3383,3.1915
	C84.3661,87.9187,83.3835,89.0376,82.4599,90.1833z M163.4714,89.7918c-0.9361-1.1371-1.9297-2.2454-2.9535-3.2951l3.3057-3.2241
	c1.114,1.1419,2.195,2.3471,3.2126,3.583L163.4714,89.7918z M86.7055,85.5218l-3.2222-3.3086
	c1.1491-1.1188,2.3567-2.1993,3.5887-3.2097l2.9295,3.5695C88.8697,83.5019,87.761,84.4941,86.7055,85.5218z M159.1793,85.1734
	c-1.0641-1.0152-2.1835-1.9968-3.3277-2.918l2.8969-3.5964c1.2441,1.0018,2.4613,2.0688,3.6185,3.1733L159.1793,85.1734z
	 M91.4769,81.4043l-2.8019-3.6713c1.2753-0.973,2.6033-1.9009,3.9476-2.7558l2.4795,3.8958
	C93.8681,79.6589,92.648,80.51,91.4769,81.4043z M154.3638,81.102c-1.1798-0.8818-2.4085-1.7224-3.6526-2.4977l2.4421-3.9188
	c1.3544,0.8434,2.6916,1.7579,3.975,2.7165L154.3638,81.102z M96.7055,77.8904l-2.3384-3.9822
	c1.3789-0.8099,2.8081-1.5698,4.2489-2.2598l1.994,4.1664C99.2862,76.4482,97.9726,77.1467,96.7055,77.8904z M149.0939,77.6371
	c-1.2772-0.7341-2.598-1.4201-3.926-2.0391l1.9517-4.1856c1.446,0.6746,2.8844,1.4211,4.2748,2.2195L149.0939,77.6371z
	 M102.3165,75.0367l-1.8414-4.2355c1.4657-0.6371,2.978-1.2186,4.495-1.7291l1.472,4.3775
	C105.0498,73.9178,103.6618,74.4513,102.3165,75.0367z M143.444,74.8313c-1.3535-0.5729-2.7467-1.0939-4.1424-1.5487l1.4297-4.3909
	c1.5204,0.4951,3.0394,1.0622,4.5137,1.6869L143.444,74.8313z M108.2365,72.8825l-1.3117-4.4274
	c1.531-0.4539,3.1018-0.8473,4.6692-1.1707l0.9317,4.5233C111.0859,72.1043,109.6427,72.466,108.2365,72.8825z M137.4972,72.7309
	c-1.4153-0.404-2.8619-0.7513-4.3002-1.0325l0.8876-4.5329c1.565,0.3071,3.1397,0.6851,4.6802,1.1246L137.4972,72.7309z
	 M114.3748,71.4614l-0.7657-4.5541c1.5804-0.2658,3.1872-0.4673,4.7752-0.5978l0.379,4.602
	C117.3043,71.0324,115.828,71.2167,114.3748,71.4614z M131.344,71.3692c-1.4499-0.2293-2.9276-0.3992-4.3924-0.5047l0.331-4.6059
	c1.5953,0.1142,3.2044,0.2994,4.7829,0.5489L131.344,71.3692z M120.6565,70.7878l-0.2428-4.6116l0.2068-0.0096
	c1.519-0.0691,3.0845-0.0748,4.6183-0.0182l-0.1679,4.6155c-1.4105-0.0508-2.834-0.0451-4.2691,0.0173L120.6565,70.7878z"/>
<path class="st0" d="M143.8471,168.3747l-1.8769-4.1107c1.3031-0.5959,2.5942-1.2609,3.8368-1.9786l2.2607,3.9131
	C146.7008,166.9881,145.2806,167.7202,143.8471,168.3747z M149.8313,165.1323l-2.4219-3.8171
	c1.2138-0.7696,2.4023-1.6053,3.5316-2.4843l2.7741,3.5695C152.4725,163.3658,151.1661,164.285,149.8313,165.1323z
	 M155.3181,161.1012l-2.918-3.4525c1.0939-0.9241,2.1585-1.9134,3.1641-2.941l3.2299,3.1608
	C157.6896,158.9979,156.5199,160.0851,155.3181,161.1012z M160.2075,156.3639l-3.3585-3.0245
	c0.96-1.0661,1.8807-2.1907,2.7371-3.3431l3.6281,2.6964C162.2734,153.9583,161.2621,155.1932,160.2075,156.3639z
	 M164.4118,151.0077l-3.7365-2.5428c0.8065-1.186,1.5665-2.4248,2.2574-3.6818l3.961,2.1782
	C166.1337,148.343,165.2989,149.7046,164.4118,151.0077z M167.8518,145.1284l-4.0474-2.0112
	c0.6395-1.2877,1.223-2.6177,1.7344-3.9534l4.2211,1.6159C169.1976,142.2498,168.5556,143.7121,167.8518,145.1284z
	 M170.4594,138.8318l-4.2844-1.4393c0.4558-1.3578,0.8516-2.7549,1.1754-4.152l4.4029,1.021
	C171.3969,135.7996,170.9613,137.3369,170.4594,138.8318z M172.1785,132.2416l-4.4418-0.8367
	c0.2653-1.4067,0.4659-2.8451,0.5959-4.2758l4.5013,0.4107C172.6904,129.1125,172.4702,130.6948,172.1785,132.2416z
	 M172.9787,125.4786l-4.5147-0.2226c0.0374-0.7513,0.0561-1.5065,0.0561-2.2665c0-0.6822-0.0158-1.3664-0.0465-2.0544
	l-0.0086-0.1871l4.5157-0.2053l0.0082,0.1871c0.0341,0.759,0.0509,1.5103,0.0509,2.2598
	C173.0397,123.8244,173.019,124.6544,172.9787,125.4786z M168.3364,118.8817c-0.1276-1.4326-0.3253-2.8729-0.5863-4.2796
	l4.4437-0.8252c0.2874,1.5468,0.5042,3.1282,0.6448,4.7018L168.3364,118.8817z M167.3687,112.7636
	c-0.3195-1.3962-0.711-2.7942-1.1635-4.1558l4.2892-1.4259c0.498,1.4988,0.9288,3.037,1.2805,4.5723L167.3687,112.7636z
	 M165.5762,106.8402c-0.5081-1.3386-1.0877-2.6704-1.7229-3.9582l4.0532-1.9997c0.699,1.4163,1.3367,2.8815,1.8956,4.3535
	L165.5762,106.8402z M80.677,106.8258l-4.224-1.6082c0.5604-1.4729,1.1994-2.9372,1.8985-4.3525l4.0522,2.0036
	C81.7676,104.1544,81.187,105.4863,80.677,106.8258z M162.9897,101.2201c-0.6894-1.2609-1.4456-2.5016-2.2482-3.6866l3.7423-2.5351
	c0.8828,1.304,1.7142,2.6676,2.4718,4.0532L162.9897,101.2201z M83.2722,101.1999l-3.9658-2.1686
	c0.7552-1.3808,1.5876-2.7443,2.4747-4.0522l3.7413,2.5351C84.7158,98.7051,83.9587,99.9448,83.2722,101.1999z M159.6582,96.002
	c-0.853-1.1534-1.7709-2.2799-2.729-3.3469l3.3642-3.0188c1.0526,1.1726,2.0616,2.4104,2.9996,3.6789L159.6582,96.002z
	 M86.6085,95.98l-3.6338-2.6887c0.9384-1.2676,1.9474-2.5054,2.9996-3.678l3.3642,3.0188
	C88.3808,93.6991,87.4625,94.8256,86.6085,95.98z M155.6472,91.2829c-1.0042-1.0296-2.0669-2.0208-3.1579-2.9468l2.9238-3.4467
	c1.1994,1.0181,2.3672,2.1072,3.4698,3.2385L155.6472,91.2829z M90.6209,91.2618l-3.2356-3.155
	c1.1016-1.1304,2.2689-2.2195,3.4693-3.2385l2.9247,3.4467C92.6869,89.242,91.6241,90.2332,90.6209,91.2618z M151.0317,87.1492
	c-1.1299-0.8818-2.3164-1.7205-3.5264-2.492l2.4296-3.8114c1.3309,0.8483,2.6359,1.7704,3.8785,2.7415L151.0317,87.1492z
	 M95.235,87.13l-2.7798-3.5638c1.246-0.972,2.551-1.8932,3.878-2.7386l2.4286,3.8114C97.5552,85.4085,96.3682,86.2462,95.235,87.13z
	 M145.8996,83.6784c-1.2417-0.7216-2.5308-1.3914-3.832-1.9892l1.8884-4.1069c1.4312,0.6583,2.8494,1.3952,4.2149,2.1888
	L145.8996,83.6784z M100.3633,83.664l-2.2694-3.9092c1.3683-0.7945,2.7875-1.5295,4.2173-2.1849l1.8836,4.1088
	C102.8961,82.2737,101.6069,82.9425,100.3633,83.664z M140.3428,80.9399c-1.328-0.546-2.6964-1.0325-4.0666-1.447l1.3079-4.3257
	c1.5089,0.4558,3.0145,0.9912,4.4754,1.5909L140.3428,80.9399z M105.9134,80.9312l-1.7138-4.1817
	c1.4638-0.5997,2.9703-1.1342,4.4768-1.5881l1.304,4.3276C108.6117,79.9016,107.2433,80.3872,105.9134,80.9312z M111.7892,78.9862
	l-1.1246-4.3775c1.5233-0.3915,3.0883-0.7139,4.6505-0.9596l0.7005,4.4658C114.5955,78.3375,113.1734,78.6312,111.7892,78.9862z
	 M134.4631,78.9852c-1.3861-0.3569-2.8081-0.6506-4.2269-0.8751l0.7043-4.4639c1.5598,0.2456,3.1243,0.569,4.6491,0.9615
	L134.4631,78.9852z M117.8776,77.8606l-0.5172-4.4907c1.1683-0.1343,2.361-0.2293,3.5446-0.2821
	c0.4001-0.0173,0.796-0.0297,1.1908-0.0384l0.0921,4.5195c-0.3613,0.0067-0.7225,0.0192-1.0853,0.0345
	C120.0275,77.6515,118.9413,77.7378,117.8776,77.8606z M128.3761,77.8578c-1.4235-0.165-2.8729-0.262-4.307-0.2898l0.0883-4.5195
	c1.577,0.0307,3.1709,0.1382,4.7369,0.3186L128.3761,77.8578z"/>
<path class="st2" d="M118.3396,165.6793c-1.5482-0.1718-3.0994-0.4299-4.6087-0.7686l0.9663-4.3142
	c1.352,0.3023,2.7415,0.5345,4.1299,0.688L118.3396,165.6793z M111.7158,164.4098c-1.4979-0.4117-2.9885-0.9106-4.4303-1.4825
	l1.6293-4.1107c1.294,0.5134,2.6311,0.9605,3.9745,1.3309L111.7158,164.4098z M105.3708,162.1126
	c-1.4096-0.641-2.8029-1.3674-4.1414-2.1609l2.255-3.8037c1.2009,0.712,2.4512,1.3645,3.7154,1.9383L105.3708,162.1126z
	 M99.468,158.8501c-1.2925-0.853-2.5548-1.7877-3.7519-2.7789l2.8192-3.4064c1.0752,0.8905,2.2084,1.7291,3.368,2.4948
	L99.468,158.8501z M94.1497,154.7067c-1.1462-1.045-2.2478-2.1648-3.274-3.3287l3.3153-2.9247
	c0.9217,1.044,1.91,2.0487,2.9382,2.9871L94.1497,154.7067z M89.5405,149.7909c-0.9696-1.211-1.8831-2.4891-2.7155-3.7979
	l3.7308-2.372c0.747,1.1735,1.5665,2.3202,2.4363,3.4064L89.5405,149.7909z M85.7545,144.2169
	c-0.77-1.3501-1.4729-2.7568-2.089-4.1789l4.057-1.7579c0.5522,1.2753,1.1827,2.5361,1.8731,3.7471L85.7545,144.2169z
	 M82.8869,138.1131c-0.5479-1.4537-1.0205-2.9535-1.4048-4.4562l4.2835-1.0958c0.3445,1.3472,0.7681,2.6906,1.2589,3.9937
	L82.8869,138.1131z M81.0163,131.6342c-0.3109-1.518-0.5426-3.0715-0.6885-4.6183l4.4024-0.4145
	c0.1305,1.3885,0.3382,2.7827,0.6175,4.1443L81.0163,131.6342z M80.1833,124.9662l-0.0053-0.1228
	c-0.0283-0.6304-0.0427-1.2772-0.0427-1.922c0-0.877,0.0273-1.7665,0.0811-2.6436l4.413,0.2706
	c-0.048,0.7868-0.0724,1.5861-0.0724,2.373c0,0.5796,0.0134,1.1611,0.0389,1.7454L80.1833,124.9662z M84.7873,118.6936
	l-4.3948-0.4836c0.1694-1.5449,0.426-3.0955,0.7624-4.6087l4.3161,0.9596C85.1697,115.9167,84.9399,117.3071,84.7873,118.6936z
	 M85.9191,112.753l-4.2643-1.1668c0.4097-1.4988,0.9077-2.9909,1.4801-4.4351l4.1107,1.6293
	C86.7333,110.0739,86.2866,111.4106,85.9191,112.753z M87.974,107.0619l-4.0273-1.8251c0.6386-1.4096,1.364-2.8029,2.1556-4.1424
	l3.8066,2.2492C89.1979,104.5469,88.5469,105.7972,87.974,107.0619z M155.6525,102.2219c-0.748-1.1716-1.5698-2.3164-2.4426-3.4016
	l3.4458-2.7712c0.9735,1.211,1.8898,2.4872,2.7237,3.7931L155.6525,102.2219z M90.8973,101.7622l-3.6933-2.4315
	c0.8511-1.2925,1.7853-2.5563,2.776-3.7557l3.4093,2.8153C92.4993,99.4679,91.6611,100.6021,90.8973,101.7622z M152.0071,97.3953
	c-0.9231-1.0421-1.9133-2.0448-2.9434-2.9813l2.9737-3.2721c1.1476,1.043,2.2516,2.1609,3.2802,3.3229L152.0071,97.3953z
	 M94.6098,96.9846l-3.2692-2.9765c1.045-1.1476,2.1633-2.2502,3.3249-3.2778l2.9295,3.3124
	C96.5524,94.9647,95.5478,95.955,94.6098,96.9846z M147.6541,93.1924c-1.0718-0.8847-2.2065-1.7214-3.3724-2.4881l2.4286-3.6943
	c1.2988,0.854,2.5635,1.7867,3.7581,2.7722L147.6541,93.1924z M99.0194,92.8441l-2.7664-3.4506
	c1.2129-0.972,2.4896-1.8865,3.795-2.7184l2.3759,3.7288C101.2533,91.1496,100.1076,91.9709,99.0194,92.8441z M142.6985,89.7188
	c-1.1994-0.7082-2.4507-1.3578-3.7183-1.9306l1.8203-4.0301c1.4139,0.6391,2.8091,1.3635,4.1463,2.1533L142.6985,89.7188z
	 M104.0173,89.4415l-2.1945-3.8382c1.3487-0.7715,2.7544-1.4748,4.1779-2.0928l1.7608,4.0551
	C106.4858,88.1202,105.2259,88.7507,104.0173,89.4415z M137.264,87.0609c-1.3021-0.5124-2.6402-0.9576-3.9778-1.3223l1.1649-4.2662
	c1.4907,0.4078,2.9818,0.9029,4.4317,1.4739L137.264,87.0609z M109.4868,86.8671l-1.5612-4.1376
	c1.4552-0.5489,2.9535-1.0229,4.4538-1.4077l1.1006,4.2815C112.1351,85.9497,110.7913,86.3748,109.4868,86.8671z M131.4779,85.2924
	c-1.3525-0.3003-2.7424-0.5287-4.1314-0.6803l0.4788-4.3948c1.5487,0.1679,3.1003,0.4232,4.6102,0.759L131.4779,85.2924z
	 M115.295,85.183l-0.8933-4.3295c1.5175-0.3138,3.0711-0.547,4.6183-0.6938l0.4174,4.4025
	C118.0494,84.6936,116.6556,84.9028,115.295,85.183z M125.4907,84.4557c-1.3515-0.0796-2.7131-0.094-4.0796-0.0307l-0.1094,0.0048
	l-0.2159-4.4159l0.1166-0.0058c1.5444-0.0691,3.0471-0.0566,4.5526,0.0336L125.4907,84.4557z"/>
<path class="st0" d="M123.5107,159.0113l-0.0441-4.3238c0.3541-0.0029,0.7096-0.0134,1.0661-0.0297
	c0.9879-0.0441,1.9805-0.1343,2.9516-0.2677l0.5882,4.2835c-1.1011,0.1507-2.2262,0.2533-3.3445,0.3042
	C124.321,158.996,123.9147,159.0065,123.5107,159.0113z M121.4337,158.9739c-1.5219-0.0691-3.0523-0.237-4.5497-0.499l0.7446-4.2585
	c1.317,0.2303,2.6637,0.3781,4.0028,0.4395L121.4337,158.9739z M130.1254,158.331l-0.8358-4.2412
	c1.3184-0.26,2.6282-0.6055,3.8929-1.0277l1.3683,4.1012C133.1125,157.643,131.6237,158.0364,130.1254,158.331z M114.8449,158.0575
	c-1.4825-0.3493-2.9574-0.7974-4.3833-1.3328l1.5199-4.0474c1.2537,0.4711,2.55,0.8655,3.8536,1.1716L114.8449,158.0575z
	 M136.506,156.4483l-1.6034-4.0148c1.2431-0.497,2.466-1.0785,3.6348-1.7291l2.1033,3.7768
	C139.3117,155.222,137.9204,155.8832,136.506,156.4483z M108.5335,155.9369c-1.388-0.6151-2.7539-1.328-4.0599-2.1187l2.2396-3.6981
	c1.1491,0.6957,2.3509,1.3232,3.5715,1.8635L108.5335,155.9369z M142.4264,153.4181l-2.3164-3.6502
	c1.1289-0.7168,2.2243-1.5132,3.2553-2.3682l2.7597,3.3277C144.9539,151.6985,143.7094,152.6044,142.4264,153.4181z
	 M102.7248,152.6907c-1.2489-0.8588-2.4598-1.8078-3.5983-2.8211l2.8748-3.2299c1.0042,0.8943,2.0712,1.731,3.1723,2.4872
	L102.7248,152.6907z M147.6872,149.3543l-2.9458-3.1646c0.9792-0.9116,1.911-1.8961,2.7693-2.9257l3.321,2.7674
	C149.8572,147.2011,148.7993,148.319,147.6872,149.3543z M97.6132,148.4389c-1.0771-1.0766-2.0942-2.2319-3.0236-3.4323
	l3.4189-2.6465c0.818,1.0565,1.7133,2.0736,2.6618,3.0217L97.6132,148.4389z M152.1175,144.3953l-3.4755-2.5716
	c0.7993-1.0805,1.5358-2.2195,2.1888-3.3844l3.7715,2.1129C153.861,141.8755,153.0247,143.169,152.1175,144.3953z
	 M155.5676,138.7071l-3.8872-1.8922c0.5853-1.2023,1.0996-2.4565,1.5281-3.7269l4.0963,1.3818
	C156.8179,135.9138,156.2335,137.3397,155.5676,138.7071z M157.9137,132.4748l-4.1702-1.14
	c0.3526-1.2896,0.6256-2.6158,0.8113-3.9428l4.2815,0.5988C158.6252,129.5002,158.3148,131.0086,157.9137,132.4748z
	 M159.0652,125.922l-4.3094-0.3512c0.07-0.8569,0.1051-1.7291,0.1051-2.5918c0-0.4769-0.0101-0.9557-0.0317-1.4365l-0.0058-0.1219
	l4.3185-0.2015l0.0062,0.1295c0.0245,0.546,0.0365,1.0901,0.0365,1.6303C159.1846,123.9587,159.1443,124.949,159.0652,125.922z
	 M154.6833,119.5918c-0.1411-1.3347-0.368-2.6714-0.675-3.9706l4.2077-0.9941c0.3488,1.4768,0.6069,2.9948,0.7672,4.5099
	L154.6833,119.5918z M153.5367,113.8517c-0.3833-1.2839-0.853-2.5543-1.3957-3.7768l3.9514-1.7541
	c0.617,1.3894,1.151,2.8345,1.5866,4.295L153.5367,113.8517z M151.3498,108.4273c-0.6108-1.186-1.3064-2.348-2.0674-3.4525
	l3.5609-2.4526c0.8646,1.2561,1.6552,2.5764,2.3504,3.9265L151.3498,108.4273z M148.202,103.4981
	c-0.8233-1.0594-1.721-2.0746-2.668-3.0178l3.0514-3.0629c1.0757,1.0718,2.0952,2.2252,3.0298,3.4266L148.202,103.4981z
	 M144.2007,99.2233c-1.0037-0.8914-2.0717-1.7253-3.1756-2.4795l2.4401-3.5696c1.2532,0.8569,2.4666,1.804,3.6055,2.8153
	L144.2007,99.2233z M139.4811,95.7525c-1.1467-0.6918-2.35-1.3165-3.5748-1.8567l1.7445-3.9553
	c1.3923,0.6141,2.7592,1.3242,4.0632,2.1101L139.4811,95.7525z M134.2083,93.2059c-1.2532-0.4683-2.5505-0.8598-3.8555-1.1639
	l0.9816-4.2105c1.4849,0.3464,2.9607,0.7916,4.3871,1.3251L134.2083,93.2059z"/>
<path class="st1" d="M117.8527,152.1111c-1.4844-0.2677-2.9607-0.6525-4.3876-1.1448l1.377-3.9937
	c1.2225,0.4212,2.4877,0.7504,3.76,0.9797L117.8527,152.1111z M111.4937,150.2055c-1.3866-0.592-2.7391-1.2983-4.0196-2.0966
	l2.2358-3.5849c1.0977,0.6842,2.2564,1.2887,3.4448,1.7973L111.4937,150.2055z M105.7263,146.9324
	c-1.2186-0.8857-2.3797-1.8721-3.4515-2.9324l2.9727-3.0034c0.9197,0.9106,1.9162,1.7579,2.9622,2.5179L105.7263,146.9324z
	 M100.8306,142.4638c-0.9946-1.1342-1.9086-2.3538-2.717-3.6233l3.5648-2.2684c0.6923,1.0881,1.4763,2.1331,2.3293,3.107
	L100.8306,142.4638z M97.0461,137.0221c-0.7177-1.328-1.3371-2.7213-1.8414-4.1405l3.9812-1.4144
	c0.4318,1.2158,0.9629,2.4095,1.5775,3.5475L97.0461,137.0221z M94.5705,130.8694c-0.4006-1.4489-0.6928-2.9449-0.8684-4.4456
	l4.1961-0.4913c0.1511,1.2877,0.4016,2.5697,0.7446,3.8123L94.5705,130.8694z M93.5317,124.3493l-0.0053-0.1737
	c-0.0182-0.3531-0.0278-0.7993-0.0278-1.2436c0-1.0478,0.0557-2.1024,0.165-3.1358l4.2019,0.4472
	c-0.094,0.8847-0.142,1.7896-0.142,2.6887c0,0.3809,0.0086,0.7638,0.0259,1.1486L93.5317,124.3493z M98.1199,118.4537
	l-4.1587-0.7446c0.2663-1.4873,0.6501-2.965,1.1404-4.39l3.9956,1.3741C98.6769,115.9147,98.3482,117.1794,98.1199,118.4537z
	 M147.0467,114.3958c-0.4352-1.2167-0.9682-2.4094-1.5847-3.5456l3.7135-2.0151c0.7197,1.3261,1.3419,2.7175,1.8495,4.1367
	L147.0467,114.3958z M99.7458,113.0054l-3.8862-1.6581c0.5901-1.3846,1.2944-2.7367,2.0923-4.0205l3.5878,2.2319
	C100.8556,110.6583,100.252,111.8184,99.7458,113.0054z M144.5442,109.2948c-0.6957-1.0881-1.4811-2.1331-2.3356-3.1042
	l3.1732-2.7904c0.9955,1.1332,1.9114,2.35,2.7223,3.6185L144.5442,109.2948z M102.5497,108.0569l-3.4208-2.4795
	c0.8833-1.2186,1.8692-2.3816,2.9295-3.4544l3.0053,2.9689C104.1536,106.0131,103.3077,107.011,102.5497,108.0569z
	 M140.9669,104.876c-0.9212-0.9087-1.9196-1.7541-2.9665-2.5121l2.4776-3.4218c1.2201,0.8828,2.3831,1.8673,3.4558,2.9267
	L140.9669,104.876z M106.3807,103.8522l-2.7885-3.1742c1.1337-0.996,2.3524-1.9114,3.6223-2.7203l2.2713,3.5619
	C108.3972,102.2142,107.3527,102.9982,106.3807,103.8522z M136.4973,101.3554c-1.1001-0.6822-2.2598-1.2848-3.4467-1.7896
	l1.6523-3.8881c1.3861,0.5892,2.7395,1.2916,4.0234,2.089L136.4973,101.3554z M111.0422,100.6031l-2.0122-3.7154
	c1.3256-0.7178,2.7179-1.3386,4.1391-1.8452l1.4192,3.9802C113.3701,99.4564,112.1774,99.988,111.0422,100.6031z M131.3613,98.9181
	c-1.2215-0.4193-2.4872-0.7465-3.761-0.973l0.7408-4.1606c1.4868,0.2648,2.9641,0.6477,4.3904,1.1361L131.3613,98.9181z
	 M116.3102,98.4777l-1.1284-4.0724c1.4475-0.4011,2.943-0.6938,4.4447-0.8713l0.4961,4.1952
	C118.8333,97.8818,117.5509,98.1332,116.3102,98.4777z M125.8112,97.6918c-1.2556-0.1334-2.5361-0.1689-3.8176-0.1142
	l-0.1674-2.1072l-0.0811-2.111l0.0748-0.0029c1.4566-0.0633,2.9708-0.0201,4.4327,0.1324L125.8112,97.6918z"/>
<path class="st0" d="M123.1067,146.1408l-0.0926-4.1261c0.3795,0,0.6669-0.0067,0.9562-0.0192
	c0.9154-0.0413,1.8318-0.1478,2.7232-0.3157l0.7657,4.0551c-1.0829,0.2044-2.1945,0.333-3.3038,0.3829
	C123.8048,146.1341,123.455,146.1408,123.1067,146.1408z M120.8748,146.0343c-1.4892-0.143-2.9684-0.4328-4.3967-0.8598
	l1.1831-3.9534c1.1716,0.3502,2.3859,0.5882,3.6089,0.7062L120.8748,146.0343z M129.5377,145.2426l-1.139-3.9668
	c1.1793-0.3387,2.3298-0.7936,3.4199-1.353l1.8846,3.6713C132.3751,144.2754,130.9736,144.83,129.5377,145.2426z M114.4621,144.4683
	c-1.3827-0.5575-2.7189-1.2532-3.9706-2.0669l2.2502-3.4602c1.0291,0.6698,2.1273,1.2417,3.2644,1.7003L114.4621,144.4683z
	 M135.5546,142.5319l-2.2137-3.4832c1.0344-0.6573,2.0103-1.4192,2.9003-2.2645l2.8422,2.9919
	C138.0005,140.8047,136.8135,141.7316,135.5546,142.5319z M108.7575,141.1549c-1.1707-0.9241-2.2569-1.9661-3.2294-3.0974
	l3.1291-2.6906c0.8003,0.9308,1.6951,1.7886,2.6585,2.5505L108.7575,141.1549z M140.562,138.2388l-3.1032-2.7194
	c0.8094-0.9241,1.5329-1.9297,2.1499-2.99l3.5667,2.0765C142.4255,135.8937,141.546,137.1161,140.562,138.2388z M104.2131,136.3763
	c-0.866-1.2167-1.6164-2.5236-2.23-3.8824l3.7615-1.6984c0.5038,1.116,1.1203,2.1888,1.8318,3.1896L104.2131,136.3763z
	 M144.1623,132.7137l-3.7413-1.7426c0.5167-1.1092,0.9269-2.2761,1.2191-3.4678l4.0081,0.9826
	C145.2917,129.9387,144.7917,131.3607,144.1623,132.7137z M101.1952,130.5086c-0.4846-1.4086-0.8343-2.8739-1.0392-4.3564
	l4.0877-0.5642c0.1684,1.2167,0.4558,2.421,0.854,3.5772L101.1952,130.5086z M146.0598,126.3902l-4.082-0.6064
	c0.1377-0.9269,0.2077-1.874,0.2077-2.8144c0-0.2869-0.0058-0.5748-0.0187-0.8626l4.118-0.2802l0.0053,0.1132
	c0.0149,0.332,0.0226,0.6813,0.0226,1.0296C146.3126,124.1122,146.2277,125.2637,146.0598,126.3902z M141.9994,120.2798
	c-0.1713-1.2177-0.4606-2.421-0.8607-3.5772l3.8996-1.3491c0.487,1.4067,0.8396,2.871,1.0478,4.3525L141.9994,120.2798z
	 M140.4877,115.0751c-0.5067-1.116-1.1256-2.1878-1.8385-3.1857l3.3584-2.3989c0.8674,1.2148,1.6202,2.5198,2.2377,3.8785
	L140.4877,115.0751z M137.5658,110.5096c-0.8027-0.9298-1.6994-1.7867-2.6642-2.5457l2.5524-3.2433
	c1.1716,0.9221,2.2602,1.9623,3.2352,3.0907L137.5658,110.5096z"/>
<path class="st2" d="M126.1097,139.9382l-0.6938-3.9687c1.1476-0.2005,2.2617-0.5517,3.3119-1.045l1.7109,3.6482
	C129.0656,139.2166,127.609,139.6763,126.1097,139.9382z M132.3789,137.5038l-2.1628-3.3988
	c0.9797-0.6237,1.875-1.376,2.6618-2.2367l2.9737,2.7175C134.8258,135.7085,133.6575,136.6901,132.3789,137.5038z
	 M137.2395,132.8576l-3.2961-2.3164c0.6707-0.9548,1.2119-1.9921,1.6077-3.0821l3.7864,1.376
	C138.8209,130.2582,138.1151,131.6112,137.2395,132.8576z M139.9585,126.705l-3.9323-0.8751
	c0.2082-0.9356,0.3138-1.9009,0.3138-2.8662c0-0.1996-0.0048-0.3992-0.0134-0.5997l2.6882-0.1622l1.3362-0.0221
	c0.0115,0.2677,0.0173,0.5268,0.0173,0.784C140.3682,124.2226,140.2305,125.4815,139.9585,126.705z M105.8976,123.7303
	c-0.012-0.2725-0.0178-0.5306-0.0178-0.7897c0-1.2465,0.1348-2.492,0.4011-3.7048l3.9351,0.8655
	c-0.2044,0.9279-0.308,1.8836-0.308,2.8393c0,0.1996,0.0048,0.4001,0.0134,0.6007L105.8976,123.7303z M136.1332,120.6204
	c-0.2029-1.1457-0.5575-2.2588-1.0541-3.3086l3.6425-1.7214c0.6491,1.3731,1.1126,2.8288,1.3784,4.3257L136.1332,120.6204z
	 M110.6877,118.47l-3.7893-1.3683c0.5148-1.4259,1.2182-2.7808,2.0899-4.0273l3.3009,2.3087
	C111.6208,116.3389,111.082,117.3771,110.6877,118.47z M134.2563,115.8265c-0.6266-0.9768-1.3822-1.8702-2.2463-2.6561
	l2.7098-2.9804c1.1256,1.0229,2.1105,2.1878,2.9276,3.4621L134.2563,115.8265z M113.3519,114.0561l-2.9794-2.7117
	c1.0224-1.1236,2.1883-2.1072,3.465-2.9247l2.172,3.393C115.0306,112.4392,114.1363,113.1944,113.3519,114.0561z M130.6805,112.1101
	c-0.9543-0.6669-1.993-1.2042-3.0874-1.5986l1.3654-3.7902c1.4278,0.5143,2.7837,1.2158,4.0287,2.0861L130.6805,112.1101z
	 M117.4948,110.9913l-1.7176-3.6444c1.3722-0.6467,2.8273-1.1092,4.3252-1.3741l0.7024,3.9668
	C119.6581,110.143,118.5445,110.4961,117.4948,110.9913z M125.9619,110.0413c-1.1136-0.2437-2.2574-0.3464-3.4227-0.2917
	l-0.2644-4.0205l0.1722-0.0058c0.1689-0.0096,0.4289-0.0154,0.6875-0.0154c1.2426,0,2.4833,0.1334,3.689,0.3973L125.9619,110.0413z"
	/>
<path class="st0" d="M123.124,134.7441c-0.4112,0-0.818-0.0211-1.2182-0.0624l0.404-3.9092
	c1.0771,0.1113,2.2075-0.0038,3.2505-0.3435l1.2158,3.7384C125.5992,134.5503,124.37,134.7441,123.124,134.7441z M119.494,134.1741
	c-1.5794-0.5105-3.0087-1.3347-4.248-2.4488l2.6282-2.9228c0.8262,0.7437,1.7776,1.2925,2.8278,1.6312L119.494,134.1741z
	 M129.0286,133.1609l-1.9709-3.4007c0.9447-0.547,1.7848-1.305,2.4291-2.1907l3.1781,2.3125
	C131.6871,131.2264,130.4636,132.3289,129.0286,133.1609z M113.5961,129.9003c-0.9831-1.3463-1.6572-2.8528-2.0036-4.4773
	l3.844-0.8195c0.2303,1.0805,0.6789,2.0822,1.3338,2.9785L113.5961,129.9003z M133.8984,127.748l-3.5897-1.6005
	c0.4486-1.0066,0.676-2.0813,0.676-3.1944l3.4866-0.0345l0.4433,0.001C134.915,124.6218,134.5729,126.2348,133.8984,127.748z
	 M111.333,122.9723v-0.0192c0-1.6581,0.3382-3.2644,1.0056-4.7728l3.5945,1.5909c-0.4443,1.0037-0.6698,2.0746-0.6698,3.1819
	L111.333,122.9723z M130.8086,121.2873c-0.2332-1.0795-0.6842-2.0813-1.3405-2.9765l3.1704-2.3241
	c0.985,1.3443,1.662,2.8489,2.0122,4.4715L130.8086,121.2873z M116.7516,118.3491l-3.1829-2.3068
	c0.9615-1.3271,2.2166-2.4632,3.6305-3.2855l1.9767,3.3968C118.2327,116.7025,117.394,117.4615,116.7516,118.3491z
	 M128.3636,117.094c-0.829-0.7417-1.7829-1.2887-2.834-1.6264l1.2023-3.7423c1.579,0.5076,3.0092,1.328,4.2513,2.4382
	L128.3636,117.094z M120.6723,115.482l-1.2234-3.7346c1.5622-0.5124,3.2572-0.6861,4.8664-0.5258l-0.3896,3.9111
	C122.8457,115.0262,121.7134,115.1404,120.6723,115.482z"/>
<path class="st3" d="M107.4673,38.2737c1.1668-0.1469,2.3746-0.1495,3.493-0.4669c3.7632-1.0681,7.6233-1.3884,11.4928-1.6444
	c1.3636-0.0902,2.74-0.0253,4.1083,0.0268c0.2576,0.0098,0.5047,0.2946,0.7566,0.4524c-0.1719,0.2006-0.3438,0.4013-0.6901,0.8053
	c1.3901,0.1567,2.6982,0.215,3.968,0.4665c2.4003,0.4755,4.7758,1.0746,7.1677,1.594c0.6288,0.1365,1.2924,0.6039,1.7819-0.4602
	c0.1438-0.3126,1.3301-0.315,1.9865-0.1887c1.494,0.2875,2.9486,0.7727,4.4322,1.1229c2.2365,0.5279,4.4946,0.9671,6.7231,1.5257
	c1.3656,0.3423,2.7162,0.7771,4.0298,1.2835l1.2259,2.0612c1.5674,1.4579,3.1707,3.021,4.8594,4.4857
	c0.705,0.6115,1.3638,1.1096,1.6891,2.0934c0.261,0.7895,1.0102,1.4311,1.59,2.0973c0.4113,0.4726,0.9826,0.8185,1.3424,1.3213
	c1.9294,2.6965,4.7418,4.4635,7.0422,6.7661c-0.1518,0.2107-0.3035,0.4215-0.3835,0.5325c1.1758,2.3289,3.5249,2.6133,5.6877,3.2469
	c1.2463,0.3651,2.5122,0.6917,3.7064,1.1869c0.3169,0.1314,0.6536,0.9004,0.5478,1.2426c-0.3887,1.256-0.7695,2.5877-1.5051,3.6465
	c-1.2193,1.755-3.0675,2.656-5.2164,2.8998c-1.4432,0.1637-2.741,0.6682-3.7466,1.7731c-0.0498,0.0547-0.1016,0.1517-0.1546,0.1532
	c-1.8085,0.0492-2.3968,1.7041-3.4998,2.6713c-0.8721,0.7648-0.882,1.6719-0.1821,2.6031c0.1473,0.196,0.2629,0.5872,0.1666,0.768
	c-0.8156,1.5319,0.2231,2.7836,0.563,4.1397c0.1477,0.589,0.3812,1.1865,0.3751,1.7781c-0.0152,1.4864-0.1603,2.971-0.2228,4.4576
	c-0.041,0.9739-1.4042,2.4808-2.5411,2.4724c-2.3362-0.0173-4.1792,1.1983-6.0695,2.2668c-0.3394,0.1918-0.5955,1.0925-0.442,1.4952
	c0.5993,1.5725,0.3853,3.1201,0.0506,4.6566c-0.0746,0.3423-0.6519,0.6854-1.0654,0.8193
	c-0.7395,0.2395-1.5398,0.2837-2.2969,0.4786c-0.6162,0.1586-1.2533,0.3035-0.8135,1.2747c0.2715,0.5995-1.3305,3.407-1.9276,3.8281
	c-0.6584,0.4643-1.2977,0.98-1.8537,1.5611c-1.9994,2.0895-4.2621,3.7602-7.2125,4.0548c-1.1309,0.1129-2.3123-0.4065-3.4712-0.4091
	c-1.0563-0.0023-2.1365,0.2202-3.1633,0.5004c-0.9391,0.2563-2.4668-0.1937-2.7159-1.144c-0.2-0.7629-0.0309-1.6189-0.0555-2.4326
	c-0.0173-0.5698,0.0701-1.2109-0.1572-1.6941c-0.932-1.9814-2.2025-3.8345-2.8991-5.8872c-0.7323-2.158-0.9294-4.4948-1.4065-6.7437
	c-0.1793-0.845-0.4324-1.6849-0.7527-2.4868c-0.3578-0.8955-0.8131-1.754-1.2579-2.6121c-0.3893-0.751-0.8026-1.4914-1.2415-2.2145
	c-0.7576-1.248-0.6972-2.578-0.2876-3.8724c0.5349-1.6904,0.995-3.4111,2.4117-4.7083c0.7107-0.6507,0.7687-1.5936,0.1679-2.5391
	c-0.4812-0.7573-1.1247-1.4781-0.5078-2.6228c0.2433-0.4514-0.3035-1.3996-0.6133-2.0644
	c-0.9604-2.0607-2.1195-3.9764-4.1218-5.2348c-0.3699-0.2325-0.649-0.6147-0.9556-0.9413
	c-0.7117-0.7581-1.2062-1.4135-0.4777-2.6004c0.5809-0.9465,0.6427-2.2145,0.9127-3.3451c0.0388-0.1625-0.0069-0.374-0.082-0.5298
	c-0.3167-0.6566-2.231-1.5074-2.9769-1.36c-0.5795,0.1146-1.1725,0.1683-1.7454,0.3072c-0.9619,0.2333-1.6771-0.0818-2.2116-0.883
	c-0.5684-0.8522-1.3106-1.1482-2.3731-1.0718c-2.5775,0.1854-4.9286,1.0004-7.2732,2.0342
	c-1.071,0.4722-2.3933,0.3455-3.5817,0.5877c-1.5875,0.3235-3.2518,0.5265-4.7065,1.1765c-1.6223,0.7249-3.0566,0.903-4.6993,0.1956
	c-1.0781-0.4643-2.2995-0.5875-3.4013-1.0085c-0.5541-0.2117-0.9968-0.733-1.4643-1.1434
	c-0.1539-0.1351-0.1833-0.4523-0.3452-0.5313c-0.9895-0.4829-1.9683-1.0336-3.0158-1.3361
	c-0.7329-0.2116-1.0956-0.4466-1.0967-1.2386c-0.0006-0.4232-0.2131-0.846-0.3586-1.3725c1.186-0.9687,1.9919-2.4416,2.2535-4.1853
	c0.0571-0.3803-0.2547-0.8045-0.3297-1.2206c-0.04-0.222-0.0224-0.5572,0.1154-0.6917c0.9217-0.9001,1.8749-1.7687,2.8335-2.6301
	c0.7376-0.6627,1.4249-1.4227,2.2638-1.9229c1.7466-1.0413,3.5995-1.9031,5.363-2.918c0.5222-0.3006,0.8479-0.9244,1.3415-1.2971
	c0.7044-0.5319,1.4441-1.0437,2.2346-1.4291c1.1835-0.5771,2.4241-1.0369,3.7955-1.6116L107.4673,38.2737z"/>
<path class="st3" d="M89.7409,177.6978c0.5517,0.4636,1.1132,0.9163,1.6505,1.3961c0.2209,0.1973,0.4794,0.423,0.5672,0.6869
	c0.4991,1.4998,1.7241,2.1143,3.2425,2.1211c1.3001,0.0059,2.6079,0.4637,3.8927,0.7974c0.6793,0.1764,1.2976,0.5867,1.9766,0.7653
	c1.8946,0.4982,2.8716,1.9541,3.7552,3.5008c0.4549,0.7963,0.8089,1.6503,1.2871,2.6413c-0.0554,0.0123,0.1839-0.0264,0.4144-0.0946
	c0.5908-0.1748,1.1743-0.5657,1.4755,0.4639c0.0795,0.2717,0.8448,0.5482,1.2403,0.4841c1.22-0.1978,2.4198-0.5363,3.6153-0.8643
	c0.9815-0.2693,1.9457-0.6019,2.9986-0.9317c-0.0365-0.5362-1.6189-1.4647-0.0565-1.914c0.3755-1.1486,0.6894-2.1085,1.0214-3.1242
	c-0.3988-0.2722-0.8214-0.5607-0.9758-0.666c-0.7544,0.1521-1.3403,0.4672-1.7381,0.3091
	c-0.8054-0.3201-0.8688-1.0258-0.8192-1.9312c0.066-1.206,0.3765-2.0384,1.2999-2.8651c0.6052-0.5419,0.8309-1.5439,1.1227-2.3763
	c0.0838-0.2391-0.2421-0.5969-0.2938-0.9144c-0.0726-0.4457-0.1694-0.9299-0.0671-1.352c0.169-0.6977,0.5889-1.3397,0.7232-2.0396
	c0.2537-1.3221,1.0541-0.196,1.5715-0.4156c0.0682-0.3245,0.1393-0.6626,0.2104-1.0008c0.0436,0.1041,0.0872,0.2082,0.1307,0.3123
	c0.6891-0.1019,1.3785-0.2023,2.0672-0.3072c0.1098-0.0167,0.228-0.0988,0.3228-0.0745c1.6547,0.4234,2.7455-0.7987,4.0036-1.4357
	c1.2724-0.6442,1.4587-0.7077,2.3712,0.5246c0.215-0.1617,0.4347-0.3194,0.6458-0.4878c0.2288-0.1826,0.5467-0.5833,0.659-0.531
	c1.0819,0.5039,2.191-0.4159,3.2347,0.0894c0.5221,0.2527,0.9946,0.6078,1.4411,1.0043c2.3863,0.2447,4.8599,0.5561,6.8154-1.3834
	c0.5726,0.7739,1.0914,1.4752,1.5517,2.0973c1.3454-0.2058,2.6619-0.4436,3.9881-0.5983c1.0421-0.1215,2.0971-0.1279,3.1445-0.2096
	c0.4924-0.0384,0.9803-0.1901,1.4703-0.1899c0.7603,0.0003,1.5697-0.057,2.2658,0.1808c0.5758,0.1967,0.828,0.6999,0.5766,1.5387
	c-0.2519,0.8406-0.058,1.8619,0.1437,2.7584c0.0512,0.2278,0.8739,0.2821,1.4269,0.4404c0.2469,0.5473,0.5494,1.2178,0.8595,1.9053
	c-0.676,0.9652-1.406,1.8345-2.7744,1.7314c-0.1867-0.0141-0.5521,0.1657-0.5575,0.27c-0.0419,0.8151-0.7412,0.7674-1.217,1.0436
	c-0.2665,0.1547-0.4168,0.5093-0.6195,0.7738c0.319,0.1004,0.6512,0.313,0.9544,0.2776c0.6232-0.0727,1.2536-0.2187,1.8394-0.4433
	c0.8336-0.3196,1.5916-0.5642,2.336,0.2109c0.1536,0.1599,0.5594,0.1012,0.8492,0.1028c0.9863,0.0051,1.9858-0.1023,2.9528,0.0315
	c0.3976,0.0551,0.7086,0.6359,1.0893,0.9396c0.4176,0.3331,0.8702,0.6224,1.2691,0.9036c-1.237,1.4216,0.0708,3.1457-0.0793,4.8237
	c0.7685,0.1913,1.4413,0.3589,2.3244,0.5787c-0.6459,0.5599-1.1567,1.0284-1.6949,1.4631
	c-0.7508,0.6063-0.8595,1.3194-0.2494,2.0311c0.5678,0.6624,0.4228,1.048-0.2401,1.5111c-0.6598,0.4609-1.2971,0.9907-1.8185,1.5982
	c-0.2868,0.3341-0.3144,0.8905-0.3137,1.4068c-0.8644,1.4842-2.2109,2.7015-2.9412,4.6138
	c-1.0533-0.0501-2.1373,0.597-3.1546,1.5405c-0.8926,0.8279-1.9346,1.3215-3.2692,1.4815c-1.4722,0.1765-2.8605,0.9883-4.3094,1.448
	c-0.9455,0.3-1.9259,0.5108-2.9046,0.6817c-1.7169,0.2997-3.4412,0.5641-5.1695,0.7887c-0.6422,0.0835-1.3044,0.0135-2.1273,0.0135
	c0.1105-0.5828,0.0794-1.065,0.2865-1.4001c0.9213-1.4913,0.3086-2.7705-1.5084-3.0344c-0.208-0.0302-0.4174-0.0511-0.8137-0.0989
	c0.4077-0.3749,0.6892-0.6339,0.9738-0.8956c-0.8842-2.0399-5.629-3.6345-7.7571-2.5441c-0.987-1.1125-2.1326-1.9077-3.9568-1.3851
	c0.929,0.7258,1.2718,1.3891,0.4718,2.2682c-0.1745,0.1918-0.0255,0.6778-0.0255,1.0927c-0.5999-0.0264-1.2403-0.1115-1.868-0.0555
	c-0.2713,0.0242-0.5166,0.3399-0.7736,0.5232c0.2338,0.251,0.4469,0.5263,0.7059,0.7478c0.4594,0.3929,0.9776,0.7225,1.4023,1.1474
	c0.1169,0.1169-0.0107,0.478-0.0191,0.6138c-1.3505-0.07-2.6317-0.1372-3.913-0.2016c-0.1486-0.0075-0.3183-0.0449-0.4432,0.0105
	c-0.3871,0.1715-0.8079,0.6089-1.1258,0.5384c-1.8634-0.4137-3.7988-0.7235-5.5217-1.4907
	c-1.9569-0.8714-3.716-2.1867-5.5691-3.3138c0.9468-1.3699-0.7573-2.098-0.8317-3.5027c-0.4946,0.2251-0.9007,0.4374-1.3269,0.5961
	c-0.4399,0.1639-0.9033,0.3841-1.3486,0.3679c-0.251-0.0091-0.6598-0.4288-0.6854-0.6937
	c-0.0326-0.3376,0.2503-0.7056,0.4274-1.1335c-0.4794-0.6854-1.0274-1.4691-1.6574-2.3699
	c0.2288-0.4375,0.5638-1.0778,0.9224-1.7633c-0.2354-0.1998-0.4531-0.3845-1.1051-0.9378c0.346-0.3969,0.6381-0.732,1.0727-1.2306
	c-0.5456-1.1013-0.7992-3.4209-3.5961-3.1589c0.4966,0.2447,1.045,0.4043,1.4367,0.7444c0.2926,0.254,0.5382,0.7516,0.5128,1.1207
	c-0.0195,0.284-0.4766,0.7272-0.7695,0.7527c-0.3265,0.0285-0.9289-0.2778-0.9908-0.5383
	c-0.2512-1.0569-1.1702-1.1044-1.8944-1.4709c-0.4896-0.2478-0.9524-0.5489-1.4271-0.8261
	c0.0458-0.0927,0.0916-0.1854,0.1374-0.2781c0.4633,0.068,0.9266,0.1359,1.3899,0.2039c0.0303-0.0608,0.0607-0.1215,0.091-0.1823
	c-0.9875-0.5633-1.9814-1.1158-2.9597-1.6947c-0.4424-0.2617-0.9359-0.5045-1.2623-0.8807
	c-0.7048-0.8124-1.364-1.6754-1.9403-2.5822c-0.1957-0.3078-0.0863-0.8094-0.1163-1.2225
	C89.7726,177.6716,89.7409,177.6978,89.7409,177.6978z"/>
<path class="st3" d="M65.4551,169.7243c-0.2395,0.2225-0.3963,0.3681-0.5105,0.4742c-0.782-0.8717-1.878-1.6117-2.2246-2.6114
	c-0.3673-1.0592-0.9175-1.8528-1.6219-2.6237c-0.1778-0.1945-0.4032-0.3455-0.7949-0.3466c0.3706,0.487,0.7412,0.974,1.1118,1.4609
	c-0.0898,0.0722-0.1795,0.1443-0.2693,0.2165c-1.1477-1.3244-2.2989-2.6458-3.4395-3.9762
	c-0.1919-0.2239-0.2836-0.5728-0.5137-0.7186c-1.6975-1.076-2.362-2.9224-3.3941-4.4892c-1.6575-2.5159-3.3944-4.9899-4.8824-7.6041
	c-1.4152-2.4864-2.569-5.1229-3.8099-7.7067c-0.8067-1.6797-1.5633-3.3834-2.3427-5.0762
	c-0.3921-0.8516-0.9698-0.9728-1.7178-0.4383c-1.1913,0.8512-1.1799,0.8439-1.837-0.4366
	c-0.3906-0.7611-0.8169-1.5044-1.2445-2.2458c-1.2489-2.1651-1.2321-4.587-1.2824-6.9496
	c-0.1866-8.7664,0.6424-17.4388,2.8842-25.9329c0.5387-2.0411,1.3972-4.005,2.2069-5.9637
	c0.3164-0.7654,0.8631-1.4112,1.9238-0.7953c0.1568,0.091,0.7514-0.4198,1.0419-0.7433c0.5421-0.604,0.945-1.3414,1.5235-1.902
	c0.822-0.7966,1.3767-0.4589,1.8413,0.5638c0.4833,1.0638,0.5592,2.0197,0.206,3.1315c0.3859-0.3264,0.7717-0.6528,1.1814-0.9994
	c0.1454,0.1328,0.2932,0.2678,0.4514,0.4123c0.7769-1.64,2.8543-2.4986,3.4945-1.5941c1.4074-0.9523,2.7632-1.9923,4.2432-2.8064
	c0.537-0.2954,1.3985-0.1734,2.0623-0.0229c0.8463,0.1919,1.598,0.2551,2.3342-0.275c0.4896-0.3525,0.7459-0.1678,1.005,0.3649
	c0.8699,1.788,0.5965,3.5257-0.0506,5.2922c-0.8159,2.2271-1.6146,4.4616-2.3562,6.7141c-0.1405,0.4268-0.0527,0.9693,0.0533,1.43
	c0.7638,3.3181,1.1528,6.6566,0.7234,10.0606c-0.1266,1.0038,0.2472,1.9825-0.1688,3.0587
	c-0.2531,0.6547-0.513,1.1699-0.9319,1.7355c-1.6837,2.2732-2.9141,4.7572-2.8648,7.6909c0.0049,0.2915,0.0392,0.618,0.1738,0.8665
	c1.7479,3.2269,1.3053,6.7718,1.5358,10.2232c0.0716,1.0717,0.2759,2.1401,0.4909,3.1955c0.5337,2.6197-0.476,3.0446-2.6122,4.1979
	c1.7849,0.5731,3.2252,1.3014,3.7009,3.2465c0.4579,1.8725-0.1068,3.4342-0.9444,5.0478c0.3769,0.4976,0.7538,1.0365,1.1731,1.5402
	c0.9103,1.0936,0.8825,1.6921-0.4788,2.8607c0.5147,0.3856,1.0043,0.7525,1.5905,1.1917c0.1651-0.3213,0.2878-0.5599,0.4707-0.9156
	c0.138,0.2726,0.3221,0.4756,0.3354,0.6894c0.0682,1.0954,0.5371,1.9642,1.2517,2.7899c0.328,0.379,0.4639,1.0163,0.4903,1.5463
	c0.0718,1.4414,1.2883,2.3015,2.8256,1.7305c0.3048,0.5889,0.5496,1.2504,0.9494,1.7988c1.1925,1.636,1.4621,4.0862,4.0028,4.564
	c0,0.3008,0,0.5893,0,0.8685c0.0748,0.0322,0.1324,0.0819,0.1753,0.0715c0.3097-0.0751,0.6817-0.3168,0.9128-0.2192
	c0.9786,0.4136,1.8653,0.4184,2.6893-0.415c0.1097,0.0359,0.2194,0.0717,0.329,0.1076c0,0.8692,0.2045,1.8044-0.0499,2.5914
	c-0.3459,1.07-2.1485,1.5397-3.9676,1.2207c0.1917-0.1726,0.3308-0.2977,0.4699-0.4229c-1.8006,0.7912-2.9105-0.735-4.2598-1.3538
	C67.3016,172.4346,66.1365,171.3576,65.4551,169.7243z"/>
<path class="st3" d="M175.1141,97.106c2.8517,0.7686,4.8547-0.5793,6.4706-2.8167c0.805,1.2599,1.0439,4.3358,0.4326,5.6276
	c-0.1556-0.2124-0.293-0.3998-0.4323-0.59c-0.0836,0.0689-0.1581,0.0992-0.1766,0.15c-0.3819,1.0462-0.6263,2.1675-1.1601,3.1284
	c-1.3368,2.4062-2.795,4.7455-4.2238,7.0999c-0.5235,0.8626-1.9194,1.3351-2.8565,1.0204
	c-0.6058-0.2034-1.5459-1.8152-1.5127-2.5682c0.0343-0.7781,0.0373-1.5578,0.0786-2.3354c0.0486-0.9138,0.0929-1.7064,1.0648-2.3571
	c0.7868-0.5268,1.4359-1.4559,1.2084-2.6969C173.767,99.459,173.9586,98.1749,175.1141,97.106z"/>
<g>
	<path class="st4" d="M300.2874,134.0067c-0.8741-16.4401-1.9239-36.2031-1.7483-50.8939h-0.5249
		c-4.0225,13.8167-8.92,28.5075-14.8664,44.7729l-20.8118,57.191h-11.5435l-19.063-56.1413
		c-5.5966-16.6157-10.3186-31.8314-13.642-45.8227h-0.3498c-0.3497,14.6908-1.2239,34.4538-2.2737,52.1183l-3.1478,50.5451H197.8
		l8.22-117.8791h19.4133l20.1128,57.0159c4.8971,14.5162,8.9196,27.4582,11.8923,39.7012h0.5249
		c2.9737-11.8927,7.1708-24.8357,12.4176-39.7012l20.9874-57.0159h19.4128l7.3454,117.8791h-14.8655L300.2874,134.0067z"/>
	<path class="st4" d="M358.8808,148.699l-12.243,37.0773h-15.7406l40.0509-117.8791h18.364l40.2256,117.8791h-16.2645
		L400.681,148.699H358.8808z M397.5327,136.8057l-11.5435-33.9299c-2.6234-7.6956-4.3717-14.6908-6.121-21.5123h-0.3503
		c-1.7483,6.9961-3.6722,14.1669-5.9464,21.3377l-11.5425,34.1046H397.5327z"/>
	<path class="st4" d="M446.8559,69.4708c7.6956-1.5737,18.7142-2.4478,29.2079-2.4478c16.2645,0,26.7582,2.9727,34.1036,9.6186
		c5.9464,5.2469,9.2693,13.2918,9.2693,22.3865c0,15.5659-9.7932,25.885-22.2108,30.0821v0.5249
		c9.0937,3.1483,14.5162,11.5425,17.3142,23.786c3.8478,16.4401,6.6459,27.808,9.0947,32.3553h-15.7405
		c-1.9239-3.323-4.5473-13.4664-7.8703-28.1582c-3.4976-16.265-9.7942-22.3869-23.6109-22.9118h-14.3415v51.07h-15.2157V69.4708z
		 M462.0716,123.1637h15.5659c16.2654,0,26.5836-8.92,26.5836-22.3865c0-15.2157-11.0176-21.8616-27.1084-22.0372
		c-7.3454,0-12.5923,0.6995-15.041,1.4V123.1637z"/>
	<path class="st0" d="M559.314,77.341c0.1756,5.2469-3.6722,9.4449-9.7932,9.4449c-5.4224,0-9.2703-4.1981-9.2703-9.4449
		c0-5.4215,4.0234-9.6186,9.6196-9.6186C555.6418,67.7225,559.314,71.9196,559.314,77.341z M542.1744,185.7762v-84.6497h15.3913
		v84.6497H542.1744z"/>
	<path class="st0" d="M581.5268,167.2376c6.8205,4.1971,16.7893,7.6956,27.283,7.6956c15.566,0,24.6606-8.2205,24.6606-20.1133
		c0-11.0186-6.2966-17.3147-22.2119-23.4367c-19.2381-6.8205-31.1309-16.7894-31.1309-33.4041
		c0-18.364,15.2157-32.006,38.127-32.006c12.0674,0,20.8118,2.7981,26.0587,5.7717l-4.1971,12.4176
		c-3.8478-2.0995-11.7181-5.5971-22.3865-5.5971c-16.0898,0-22.2118,9.6196-22.2118,17.6645
		c0,11.0186,7.1708,16.4401,23.4362,22.7367c19.9377,7.6947,30.0821,17.3142,30.0821,34.629
		c0,18.1893-13.4674,33.9299-41.2753,33.9299c-11.3679,0-23.7855-3.3229-30.0821-7.521L581.5268,167.2376z"/>
</g>
<path class="st2" d="M123.0597,209.4696c-1.1678,0-2.3471-0.024-3.5053-0.071l0.2044-5.007
	c1.6044,0.0652,3.2371,0.0844,4.8606,0.0518l0.0988,5.0108C124.1642,209.4648,123.6115,209.4696,123.0597,209.4696z
	 M128.7595,209.2844l-0.3234-5.0012c1.6169-0.1046,3.2457-0.2581,4.8414-0.4568l0.6199,4.9724
	C132.2033,209.01,130.4747,209.1731,128.7595,209.2844z M115.5162,209.1424c-1.7099-0.1487-3.4343-0.3512-5.1255-0.6007
	l0.7312-4.9571c1.5933,0.2351,3.2184,0.4251,4.8299,0.5661L115.5162,209.1424z M137.9016,208.2039l-0.8502-4.9379
	c1.5895-0.2744,3.1929-0.5997,4.7647-0.9672l1.1428,4.8784C141.2903,207.5687,139.589,207.9132,137.9016,208.2039z
	 M106.4004,207.8566c-1.6735-0.3282-3.3671-0.713-5.0334-1.1447l1.2561-4.8515c1.5703,0.4068,3.1651,0.7696,4.7407,1.0776
	L106.4004,207.8566z M146.8793,206.1611l-1.3731-4.8189c1.5559-0.4433,3.1152-0.9384,4.6347-1.471l1.6581,4.7287
	C150.1859,205.166,148.5307,205.6909,146.8793,206.1611z M97.4616,205.5988c-1.6312-0.5076-3.2759-1.0728-4.8885-1.6812
	l1.7694-4.6884c1.5195,0.5738,3.0691,1.1064,4.6054,1.5833L97.4616,205.5988z M155.5868,203.1701l-1.8779-4.6462
	c1.4878-0.6007,2.9818-1.258,4.4403-1.9537l2.1561,4.5233C158.7557,201.8325,157.1676,202.5311,155.5868,203.1701z
	 M88.8122,202.3948c-1.5775-0.6832-3.1517-1.4202-4.6783-2.1926l2.2617-4.4715c1.4379,0.7273,2.9209,1.4221,4.4077,2.0659
	L88.8122,202.3948z M163.9099,199.2705l-2.3634-4.4197c1.4144-0.7561,2.8312-1.5698,4.211-2.4181l2.6244,4.27
	C166.9167,197.6028,165.4121,198.4664,163.9099,199.2705z M80.5605,198.2869c-1.4902-0.8444-2.9756-1.7445-4.4154-2.6772
	l2.7232-4.2067c1.3578,0.879,2.7578,1.7281,4.1621,2.5236L80.5605,198.2869z M171.7759,194.5053l-2.8211-4.1414
	c1.3299-0.9058,2.6527-1.8663,3.9323-2.8547l3.0639,3.9649C174.5927,192.5238,173.1879,193.5429,171.7759,194.5053z
	 M72.7962,193.3289c-1.3933-0.9979-2.7746-2.0506-4.105-3.1282l3.1531-3.8939c1.2546,1.0152,2.5563,2.0074,3.8699,2.9478
	L72.7962,193.3289z M179.0945,188.9274l-3.2462-3.8171c1.234-1.0497,2.4493-2.1456,3.6118-3.2577l3.465,3.6194
	C181.6915,186.6533,180.4028,187.8153,179.0945,188.9274z M65.6043,187.5783c-1.2801-1.14-2.5419-2.3317-3.7504-3.5436
	l3.5475-3.5388c1.139,1.1419,2.3288,2.2655,3.5355,3.3402L65.6043,187.5783z M185.7821,182.6078l-3.629-3.4563
	c1.1112-1.1658,2.2036-2.3845,3.2471-3.6204l3.8286,3.2337C188.121,180.0765,186.9614,181.369,185.7821,182.6078z M59.0621,181.1041
	c-1.1515-1.2676-2.2799-2.586-3.3541-3.9188l3.9016-3.1454c1.0128,1.257,2.0765,2.4996,3.1622,3.6943L59.0621,181.1041z
	 M191.7688,175.6097l-3.9745-3.0514c0.9831-1.281,1.9417-2.6081,2.848-3.9457l4.1482,2.8115
	C193.8284,172.8433,192.8118,174.252,191.7688,175.6097z M53.2443,173.9746c-1.0095-1.3798-1.9916-2.8096-2.919-4.2499
	l4.2125-2.7136c0.8746,1.3578,1.8001,2.705,2.751,4.0061L53.2443,173.9746z M196.9839,168.0187l-4.2748-2.6158
	c0.8396-1.3722,1.6519-2.7933,2.4133-4.2249l4.4236,2.3548C198.7375,165.0517,197.8759,166.5611,196.9839,168.0187z
	 M48.2162,166.2742c-0.8554-1.4777-1.6797-3.0025-2.4493-4.5339l4.4773-2.2511c0.7254,1.4441,1.5022,2.8816,2.3082,4.2729
	L48.2162,166.2742z M201.3662,159.9104l-4.5291-2.1456c0.6914-1.4595,1.3472-2.9593,1.9498-4.4591l4.65,1.8692
	C202.7969,156.7669,202.1003,158.3598,201.3662,159.9104z M44.0388,158.0863c-0.6947-1.5622-1.352-3.1704-1.9541-4.7776
	l4.6927-1.7579c0.5671,1.5142,1.1865,3.0284,1.8404,4.4994L44.0388,158.0863z M204.86,151.3761l-4.7325-1.6485
	c0.5316-1.5247,1.0229-3.0878,1.4614-4.6433l4.8237,1.3587C205.9467,148.0964,205.4242,149.7554,204.86,151.3761z M40.7547,149.4829
	c-0.5249-1.6341-1.0066-3.3028-1.4312-4.959l4.8544-1.2436c0.3997,1.5593,0.853,3.1301,1.3477,4.6692L40.7547,149.4829z
	 M207.4187,142.5204l-4.8822-1.1323c0.3632-1.566,0.6842-3.1694,0.9543-4.7652l4.9408,0.8348
	C208.145,139.1523,207.8044,140.8555,207.4187,142.5204z M209.013,133.4497l-4.9753-0.6007c0.1938-1.6015,0.3416-3.2308,0.44-4.8429
	l5.0022,0.3051C209.3752,130.0221,209.2183,131.7503,209.013,133.4497z M209.6319,124.2667l-5.0108-0.071
	c0.0058-0.3934,0.0086-0.7859,0.0086-1.1803c0-1.2244-0.0278-2.4641-0.082-3.6857l-0.0081-0.1746l5.007-0.213l0.0067,0.1487
	c0.0581,1.3117,0.0873,2.6263,0.0873,3.9246C209.6405,123.4329,209.6376,123.8503,209.6319,124.2667z M204.2756,115.3572
	c-0.1497-1.6092-0.3488-3.2337-0.592-4.8266l4.9532-0.7571c0.2586,1.6898,0.4702,3.4131,0.6285,5.1212L204.2756,115.3572z
	 M203.0196,106.775c-0.3176-1.5804-0.6885-3.1733-1.1011-4.7354l4.8448-1.2801c0.438,1.6581,0.8315,3.3489,1.1692,5.0271
	L203.0196,106.775z M200.8577,98.3769c-0.4855-1.5382-1.0248-3.0831-1.6015-4.5905l4.6798-1.7905
	c0.6127,1.5996,1.1846,3.2395,1.7003,4.8726L200.8577,98.3769z M197.8101,90.2591c-0.6472-1.4768-1.3472-2.9516-2.0803-4.3852
	l4.461-2.2818c0.7787,1.5209,1.5219,3.0879,2.2089,4.6558L197.8101,90.2591z M49.1537,88.6892l-4.5454-2.111
	c0.724-1.5583,1.5031-3.1128,2.3159-4.6193l4.4101,2.3797C50.569,85.7568,49.835,87.2211,49.1537,88.6892z M193.9172,82.526
	c-0.8031-1.4029-1.6567-2.7961-2.5376-4.1414l4.1933-2.7443c0.9346,1.4288,1.8409,2.9075,2.693,4.3967L193.9172,82.526z
	 M53.2241,81.0195l-4.295-2.5812c0.8794-1.4633,1.8188-2.9257,2.7914-4.3449l4.1338,2.8326
	C54.9374,78.2637,54.0527,79.6406,53.2241,81.0195z M189.2197,75.2459c-0.9476-1.3098-1.945-2.6052-2.9646-3.8526l3.8785-3.1723
	c1.0824,1.3232,2.1408,2.6983,3.1459,4.0868L189.2197,75.2459z M58.0857,73.8296l-3.9975-3.0226
	c1.0315-1.3645,2.1201-2.7175,3.2342-4.0234l3.8114,3.2548C60.083,71.2685,59.0578,72.5437,58.0857,73.8296z M183.7718,68.4992
	c-1.0747-1.1966-2.2041-2.3807-3.3556-3.5177l3.5206-3.5657c1.2229,1.2071,2.4219,2.4641,3.5628,3.7346L183.7718,68.4992z
	 M63.6775,67.1942l-3.655-3.4275c1.1769-1.2551,2.4018-2.4862,3.641-3.6588l3.4439,3.6406
	C65.9407,64.8519,64.7868,66.012,63.6775,67.1942z M177.6402,62.3648c-1.2038-1.0824-2.4521-2.1408-3.7111-3.1454l3.1262-3.9169
	c1.3352,1.0661,2.6599,2.1887,3.9366,3.3373L177.6402,62.3648z M69.9372,61.1903l-3.273-3.7941
	c1.3026-1.1236,2.6503-2.2185,4.0061-3.2529l3.0399,3.9841C72.434,59.1013,71.1645,60.1319,69.9372,61.1903z M170.8922,56.9087
	c-1.3103-0.949-2.6642-1.8692-4.0234-2.7357l2.6925-4.2259c1.4427,0.9193,2.8796,1.8961,4.27,2.9027L170.8922,56.9087z
	 M76.7928,55.8858L73.94,51.7655c1.4158-0.9797,2.8715-1.9249,4.3276-2.8077l2.5994,4.2835
	C79.4968,54.0732,78.1256,54.9627,76.7928,55.8858z M163.6005,52.1973c-1.4024-0.8051-2.8461-1.5765-4.2911-2.2933l2.2281-4.4888
	c1.5343,0.7619,3.0677,1.5813,4.5569,2.4354L163.6005,52.1973z M84.167,51.3404l-2.397-4.4005
	c1.5084-0.8214,3.0552-1.6063,4.5982-2.3308l2.1302,4.5368C87.0456,49.8282,85.5881,50.5661,84.167,51.3404z M91.9782,47.6106
	l-1.9143-4.6308c1.5794-0.6525,3.2035-1.2676,4.8275-1.828l1.6341,4.7364C94.9956,46.4169,93.4655,46.9955,91.9782,47.6106z"/>
<g>
	<path class="st4" d="M217.6869,213.2531c-0.1818-3.417-0.3997-7.5258-0.3637-10.5801h-0.1089
		c-0.8362,2.8729-1.8543,5.9262-3.0902,9.3077l-4.3266,11.8889h-2.3999l-3.963-11.6701c-1.1635-3.4544-2.1451-6.6181-2.836-9.5265
		h-0.0729c-0.0724,3.0543-0.2543,7.1631-0.4726,10.8353l-0.6544,10.5071h-3.0178l1.709-24.5052h4.0359l4.1813,11.8524
		c1.0176,3.0178,1.8539,5.7084,2.4723,8.2531h0.1089c0.618-2.4718,1.4907-5.1624,2.5817-8.2531l4.3626-11.8524h4.0359
		l1.5271,24.5052h-3.0907L217.6869,213.2531z"/>
	<path class="st4" d="M236.1176,224.0155l-0.2543-2.2175h-0.1089c-0.9816,1.3818-2.8724,2.6177-5.3812,2.6177
		c-3.5633,0-5.3812-2.5092-5.3812-5.054c0-4.2537,3.7816-6.5806,10.5806-6.5442v-0.3637c0-1.4547-0.4001-4.0724-3.9994-4.0724
		c-1.636,0-3.345,0.5095-4.5814,1.3088l-0.7269-2.1091c1.4542-0.9452,3.5628-1.5631,5.7809-1.5631c5.3812,0,6.69,3.6722,6.69,7.1986
		v6.5816c0,1.5267,0.0724,3.0178,0.2907,4.2173H236.1176z M235.645,215.035c-3.4904-0.0729-7.4534,0.545-7.4534,3.963
		c0,2.0726,1.3818,3.0543,3.0178,3.0543c2.2905,0,3.7447-1.4547,4.2537-2.9449c0.1094-0.3272,0.1818-0.6909,0.1818-1.0181V215.035z"
		/>
	<path class="st4" d="M243.8972,211.9078c0-2.0717-0.0365-3.8536-0.1454-5.4896h2.7995l0.1084,3.4544h0.1459
		c0.8003-2.3634,2.7271-3.8545,4.8717-3.8545c0.3637,0,0.6189,0.0365,0.9097,0.1094v3.0178
		c-0.3272-0.0729-0.6544-0.1094-1.091-0.1094c-2.254,0-3.8536,1.709-4.2902,4.1088c-0.0729,0.4356-0.1458,0.9452-0.1458,1.4902
		v9.3806h-3.1627V211.9078z"/>
	<path class="st4" d="M259.4938,201.4736c0.0355,1.091-0.7638,1.9633-2.0362,1.9633c-1.1275,0-1.9277-0.8722-1.9277-1.9633
		c0-1.1275,0.8367-1.9997,1.9997-1.9997C258.73,199.4739,259.4938,200.3461,259.4938,201.4736z M255.93,224.0155v-17.5973h3.2001
		v17.5973H255.93z"/>
	<path class="st4" d="M264.4374,211.1815c0-1.8184-0.0365-3.3086-0.1459-4.7632h2.8365l0.1814,2.9084h0.0729
		c0.8723-1.6725,2.9084-3.3085,5.8168-3.3085c2.4363,0,6.2179,1.4547,6.2179,7.4903v10.5071h-3.2001v-10.1435
		c0-2.8365-1.0536-5.1998-4.0714-5.1998c-2.1091,0-3.7451,1.4911-4.2911,3.2721c-0.1449,0.4001-0.2178,0.9452-0.2178,1.4911v10.5801
		h-3.1992V211.1815z"/>
	<path class="st4" d="M286.3959,215.7988c0.0729,4.3266,2.8355,6.1076,6.0356,6.1076c2.2905,0,3.6722-0.3992,4.8717-0.9087
		l0.545,2.2905c-1.1265,0.5095-3.0533,1.091-5.8533,1.091c-5.4177,0-8.6533-3.5628-8.6533-8.8711c0-5.3083,3.1272-9.49,8.2531-9.49
		c5.7449,0,7.2715,5.054,7.2715,8.2896c0,0.6544-0.072,1.1639-0.1084,1.4911H286.3959z M295.7766,213.5084
		c0.0365-2.0362-0.8367-5.1998-4.436-5.1998c-3.2356,0-4.6538,2.9814-4.9081,5.1998H295.7766z"/>
	<path class="st4" d="M320.2788,224.0155l-0.2543-2.2175h-0.1084c-0.9816,1.3818-2.8729,2.6177-5.3812,2.6177
		c-3.5638,0-5.3812-2.5092-5.3812-5.054c0-4.2537,3.7816-6.5806,10.5801-6.5442v-0.3637c0-1.4547-0.4001-4.0724-3.9994-4.0724
		c-1.636,0-3.345,0.5095-4.5809,1.3088l-0.7274-2.1091c1.4547-0.9452,3.5628-1.5631,5.7813-1.5631c5.3812,0,6.69,3.6722,6.69,7.1986
		v6.5816c0,1.5267,0.072,3.0178,0.2907,4.2173H320.2788z M319.8067,215.035c-3.4909-0.0729-7.4539,0.545-7.4539,3.963
		c0,2.0726,1.3818,3.0543,3.0178,3.0543c2.2905,0,3.7451-1.4547,4.2537-2.9449c0.1094-0.3272,0.1823-0.6909,0.1823-1.0181V215.035z"
		/>
	<path class="st4" d="M328.0589,211.1815c0-1.8184-0.0364-3.3086-0.1458-4.7632h2.8365l0.1814,2.9084h0.0729
		c0.8723-1.6725,2.9084-3.3085,5.8168-3.3085c2.4363,0,6.2179,1.4547,6.2179,7.4903v10.5071h-3.2001v-10.1435
		c0-2.8365-1.0536-5.1998-4.0714-5.1998c-2.1091,0-3.7451,1.4911-4.2911,3.2721c-0.1449,0.4001-0.2178,0.9452-0.2178,1.4911v10.5801
		h-3.1992V211.1815z"/>
	<path class="st4" d="M363.4339,198.2015v21.2695c0,1.5631,0.0355,3.345,0.1449,4.5445h-2.8719l-0.1459-3.0543h-0.0729
		c-0.9816,1.9632-3.1263,3.4544-5.9991,3.4544c-4.2537,0-7.5258-3.5993-7.5258-8.944c-0.0365-5.8543,3.5993-9.4536,7.8895-9.4536
		c2.6906,0,4.509,1.2724,5.3083,2.6906h0.0729v-10.5072H363.4339z M360.2338,213.5803c0-0.3992-0.0364-0.9452-0.1449-1.3453
		c-0.4731-2.0352-2.2185-3.7077-4.6174-3.7077c-3.3095,0-5.2728,2.9084-5.2728,6.7985c0,3.5628,1.7454,6.5087,5.1998,6.5087
		c2.1446,0,4.1079-1.4182,4.6903-3.8181c0.1084-0.4366,0.1449-0.8722,0.1449-1.3818V213.5803z"/>
	<path class="st4" d="M380.5198,216.3074l-2.5457,7.7081h-3.2721l8.3261-24.5052h3.8171l8.3625,24.5052h-3.3805l-2.6186-7.7081
		H380.5198z M388.5542,213.8356l-2.3989-7.0537c-0.546-1.5996-0.9097-3.0543-1.2733-4.4725h-0.072
		c-0.3637,1.4547-0.7638,2.9449-1.2368,4.436l-2.3989,7.0902H388.5542z"/>
	<path class="st4" d="M398.5883,211.1815c0-1.8184-0.0365-3.3086-0.1459-4.7632h2.8365l0.1814,2.9084h0.0729
		c0.8722-1.6725,2.9084-3.3085,5.8168-3.3085c2.4363,0,6.218,1.4547,6.218,7.4903v10.5071h-3.2001v-10.1435
		c0-2.8365-1.0536-5.1998-4.0714-5.1998c-2.1091,0-3.7451,1.4911-4.2911,3.2721c-0.1449,0.4001-0.2178,0.9452-0.2178,1.4911v10.5801
		h-3.1992V211.1815z"/>
	<path class="st4" d="M422.4745,201.3642v5.054h4.5809v2.4363h-4.5809v9.4891c0,2.1811,0.618,3.4179,2.3989,3.4179
		c0.8367,0,1.4547-0.1094,1.8548-0.2188l0.1449,2.3999c-0.618,0.2543-1.5996,0.4366-2.8355,0.4366
		c-1.4911,0-2.6906-0.4731-3.4544-1.3453c-0.9087-0.9452-1.2359-2.5092-1.2359-4.5809v-9.5984h-2.7271v-2.4363h2.7271v-4.2173
		L422.4745,201.3642z"/>
	<path class="st4" d="M440.3971,224.0155l-0.2543-2.2175h-0.1084c-0.9816,1.3818-2.8729,2.6177-5.3812,2.6177
		c-3.5638,0-5.3812-2.5092-5.3812-5.054c0-4.2537,3.7816-6.5806,10.58-6.5442v-0.3637c0-1.4547-0.4001-4.0724-3.9994-4.0724
		c-1.636,0-3.345,0.5095-4.5809,1.3088l-0.7273-2.1091c1.4547-0.9452,3.5628-1.5631,5.7813-1.5631c5.3812,0,6.69,3.6722,6.69,7.1986
		v6.5816c0,1.5267,0.072,3.0178,0.2907,4.2173H440.3971z M439.925,215.035c-3.4909-0.0729-7.4538,0.545-7.4538,3.963
		c0,2.0726,1.3817,3.0543,3.0178,3.0543c2.2905,0,3.7451-1.4547,4.2537-2.9449c0.1094-0.3272,0.1823-0.6909,0.1823-1.0181V215.035z"
		/>
	<path class="st4" d="M448.1772,211.9078c0-2.0717-0.0365-3.8536-0.1459-5.4896h2.8l0.1084,3.4544h0.1459
		c0.8003-2.3634,2.7271-3.8545,4.8717-3.8545c0.3636,0,0.6189,0.0365,0.9096,0.1094v3.0178
		c-0.3272-0.0729-0.6544-0.1094-1.091-0.1094c-2.254,0-3.8536,1.709-4.2902,4.1088c-0.0729,0.4356-0.1458,0.9452-0.1458,1.4902
		v9.3806h-3.1627V211.9078z"/>
	<path class="st4" d="M472.2457,223.3611c-0.8367,0.4366-2.6906,1.0181-5.054,1.0181c-5.3083,0-8.7627-3.5993-8.7627-8.9805
		c0-5.4176,3.7087-9.3442,9.4536-9.3442c1.8903,0,3.5628,0.4731,4.4351,0.9087l-0.7264,2.4728
		c-0.7638-0.4366-1.9642-0.8367-3.7087-0.8367c-4.0359,0-6.2179,2.9813-6.2179,6.6536c0,4.0724,2.6177,6.5816,6.1086,6.5816
		c1.8184,0,3.0178-0.4731,3.9265-0.8732L472.2457,223.3611z"/>
	<path class="st4" d="M480.3146,201.3642v5.054h4.5809v2.4363h-4.5809v9.4891c0,2.1811,0.618,3.4179,2.3999,3.4179
		c0.8358,0,1.4547-0.1094,1.8539-0.2188l0.1458,2.3999c-0.618,0.2543-1.5996,0.4366-2.8364,0.4366
		c-1.4902,0-2.6896-0.4731-3.4535-1.3453c-0.9087-0.9452-1.2359-2.5092-1.2359-4.5809v-9.5984h-2.7271v-2.4363h2.7271v-4.2173
		L480.3146,201.3642z"/>
	<path class="st4" d="M492.0577,201.4736c0.0365,1.091-0.7638,1.9633-2.0362,1.9633c-1.1265,0-1.9268-0.8722-1.9268-1.9633
		c0-1.1275,0.8358-1.9997,1.9997-1.9997C491.2939,199.4739,492.0577,200.3461,492.0577,201.4736z M488.4949,224.0155v-17.5973
		h3.1992v17.5973H488.4949z"/>
	<path class="st4" d="M509.5456,223.3611c-0.8367,0.4366-2.6906,1.0181-5.054,1.0181c-5.3083,0-8.7627-3.5993-8.7627-8.9805
		c0-5.4176,3.7087-9.3442,9.4536-9.3442c1.8903,0,3.5628,0.4731,4.4351,0.9087l-0.7264,2.4728
		c-0.7638-0.4366-1.9642-0.8367-3.7087-0.8367c-4.0359,0-6.2179,2.9813-6.2179,6.6536c0,4.0724,2.6177,6.5816,6.1085,6.5816
		c1.8184,0,3.0178-0.4731,3.9265-0.8732L509.5456,223.3611z"/>
	<path class="st4" d="M521.1044,199.8376c1.6005-0.3272,3.891-0.5095,6.0721-0.5095c3.3815,0,5.5626,0.618,7.0901,1.9997
		c1.2359,1.091,1.9268,2.7635,1.9268,4.6539c0,3.2366-2.0362,5.3812-4.6174,6.2534v0.1094
		c1.8903,0.6544,3.0178,2.3998,3.5992,4.9446c0.8003,3.4179,1.3818,5.7813,1.8904,6.7265h-3.2721
		c-0.4001-0.6909-0.9452-2.8-1.636-5.8533c-0.7274-3.3815-2.0362-4.6539-4.9081-4.7632h-2.9813v10.6165h-3.1637V199.8376z
		 M524.2681,210.9991h3.2356c3.3815,0,5.527-1.8539,5.527-4.6538c0-3.1627-2.2914-4.5445-5.6354-4.5809
		c-1.5276,0-2.6187,0.1449-3.1272,0.2908V210.9991z"/>
	<path class="st4" d="M542.4814,215.7988c0.0729,4.3266,2.8364,6.1076,6.0356,6.1076c2.2905,0,3.6722-0.3992,4.8727-0.9087
		l0.545,2.2905c-1.1274,0.5095-3.0543,1.091-5.8533,1.091c-5.4177,0-8.6533-3.5628-8.6533-8.8711c0-5.3083,3.1262-9.49,8.2531-9.49
		c5.7439,0,7.2715,5.054,7.2715,8.2896c0,0.6544-0.0729,1.1639-0.1094,1.4911H542.4814z M551.8621,213.5084
		c0.0365-2.0362-0.8358-5.1998-4.4351-5.1998c-3.2366,0-4.6539,2.9814-4.9091,5.1998H551.8621z"/>
	<path class="st4" d="M558.4782,220.7434c0.9452,0.618,2.6177,1.2724,4.2173,1.2724c2.3269,0,3.4179-1.163,3.4179-2.6177
		c0-1.5276-0.9097-2.3634-3.2731-3.2356c-3.1627-1.1275-4.6538-2.8729-4.6538-4.981c0-2.8365,2.2914-5.1634,6.0721-5.1634
		c1.7819,0,3.345,0.5095,4.3266,1.091l-0.7993,2.3269c-0.6909-0.4366-1.9642-1.0181-3.6002-1.0181
		c-1.8903,0-2.9449,1.091-2.9449,2.3999c0,1.4537,1.0546,2.1081,3.345,2.9813c3.0543,1.163,4.6174,2.6906,4.6174,5.3083
		c0,3.0898-2.3989,5.2718-6.5806,5.2718c-1.9268,0-3.7087-0.4731-4.9446-1.1994L558.4782,220.7434z"/>
	<path class="st4" d="M575.092,215.7988c0.0729,4.3266,2.8364,6.1076,6.0356,6.1076c2.2905,0,3.6722-0.3992,4.8727-0.9087
		l0.545,2.2905c-1.1274,0.5095-3.0543,1.091-5.8533,1.091c-5.4177,0-8.6533-3.5628-8.6533-8.8711c0-5.3083,3.1262-9.49,8.2531-9.49
		c5.7439,0,7.2715,5.054,7.2715,8.2896c0,0.6544-0.0729,1.1639-0.1094,1.4911H575.092z M584.4726,213.5084
		c0.0365-2.0362-0.8358-5.1998-4.4351-5.1998c-3.2366,0-4.6539,2.9814-4.9091,5.1998H584.4726z"/>
	<path class="st4" d="M601.2687,224.0155l-0.2543-2.2175h-0.1094c-0.9816,1.3818-2.8719,2.6177-5.3812,2.6177
		c-3.5628,0-5.3812-2.5092-5.3812-5.054c0-4.2537,3.7816-6.5806,10.581-6.5442v-0.3637c0-1.4547-0.4001-4.0724-3.9994-4.0724
		c-1.636,0-3.345,0.5095-4.5819,1.3088l-0.7264-2.1091c1.4537-0.9452,3.5629-1.5631,5.7804-1.5631c5.3812,0,6.69,3.6722,6.69,7.1986
		v6.5816c0,1.5267,0.0729,3.0178,0.2908,4.2173H601.2687z M600.7957,215.035c-3.4899-0.0729-7.4529,0.545-7.4529,3.963
		c0,2.0726,1.3817,3.0543,3.0178,3.0543c2.2905,0,3.7442-1.4547,4.2537-2.9449c0.1094-0.3272,0.1814-0.6909,0.1814-1.0181V215.035z"
		/>
	<path class="st4" d="M609.0478,211.9078c0-2.0717-0.0364-3.8536-0.1449-5.4896h2.7991l0.1094,3.4544h0.1459
		c0.7993-2.3634,2.7261-3.8545,4.8716-3.8545c0.3636,0,0.618,0.0365,0.9087,0.1094v3.0178
		c-0.3272-0.0729-0.6544-0.1094-1.091-0.1094c-2.254,0-3.8536,1.709-4.2902,4.1088c-0.072,0.4356-0.1449,0.9452-0.1449,1.4902
		v9.3806h-3.1637V211.9078z"/>
	<path class="st4" d="M633.1164,223.3611c-0.8358,0.4366-2.6906,1.0181-5.054,1.0181c-5.3083,0-8.7617-3.5993-8.7617-8.9805
		c0-5.4176,3.7078-9.3442,9.4526-9.3442c1.8903,0,3.5628,0.4731,4.436,0.9087l-0.7273,2.4728
		c-0.7639-0.4366-1.9633-0.8367-3.7087-0.8367c-4.0359,0-6.217,2.9813-6.217,6.6536c0,4.0724,2.6177,6.5816,6.1075,6.5816
		c1.8184,0,3.0178-0.4731,3.9275-0.8732L633.1164,223.3611z"/>
	<path class="st4" d="M636.8596,198.2015h3.2001v10.9802h0.072c0.5095-0.9097,1.3088-1.709,2.2914-2.255
		c0.9452-0.545,2.0717-0.9087,3.2721-0.9087c2.3634,0,6.144,1.4547,6.144,7.5268v10.4707h-3.1992v-10.108
		c0-2.8355-1.0546-5.2353-4.0723-5.2353c-2.0727,0-3.7087,1.4547-4.2902,3.2001c-0.1813,0.4356-0.2178,0.9087-0.2178,1.5267v10.6165
		h-3.2001V198.2015z"/>
	<path class="st0" d="M165.6616,267.6427v-15.161h-2.4723v-2.4363h2.4723v-0.8367c0-2.4718,0.5455-4.7258,2.0362-6.144
		c1.1999-1.1639,2.7995-1.636,4.2902-1.636c1.127,0,2.1086,0.2543,2.7271,0.5086l-0.4366,2.4728
		c-0.4726-0.2178-1.127-0.4001-2.0362-0.4001c-2.7266,0-3.4175,2.3998-3.4175,5.0904v0.9452h4.2537v2.4363h-4.2537v15.161H165.6616z
		"/>
	<path class="st0" d="M191.4027,258.6987c0,6.5077-4.5085,9.3441-8.7622,9.3441c-4.7628,0-8.435-3.4908-8.435-9.0534
		c0-5.8898,3.8536-9.3442,8.7257-9.3442C187.9852,249.6453,191.4027,253.3175,191.4027,258.6987z M177.4411,258.8801
		c0,3.8545,2.218,6.7629,5.3447,6.7629c3.0543,0,5.3447-2.8719,5.3447-6.8349c0-2.9813-1.4907-6.7629-5.2718-6.7629
		C179.0772,252.0451,177.4411,255.535,177.4411,258.8801z"/>
	<path class="st0" d="M195.4371,255.535c0-2.0717-0.0365-3.8536-0.1454-5.4896h2.7995l0.1089,3.4544h0.1458
		c0.7998-2.3634,2.7266-3.8545,4.8717-3.8545c0.3637,0,0.618,0.0365,0.9092,0.1094v3.0178
		c-0.3272-0.0729-0.6544-0.1094-1.091-0.1094c-2.254,0-3.854,1.709-4.2902,4.1088c-0.0724,0.4356-0.1454,0.9452-0.1454,1.4902
		v9.3806h-3.1632V255.535z"/>
	<path class="st0" d="M218.3043,243.1376v24.5052h-3.1632v-24.5052H218.3043z"/>
	<path class="st0" d="M224.0847,254.8087c0-1.8184-0.0365-3.3085-0.1454-4.7632h2.836l0.1818,2.9084h0.0724
		c0.8727-1.6725,2.9089-3.3085,5.8173-3.3085c2.4363,0,6.2174,1.4547,6.2174,7.4903v10.5071h-3.1996v-10.1435
		c0-2.8364-1.0546-5.1998-4.0719-5.1998c-2.1091,0-3.7451,1.4911-4.2907,3.2721c-0.1454,0.4001-0.2178,0.9452-0.2178,1.4911v10.5801
		h-3.1996V254.8087z"/>
	<path class="st0" d="M244.2618,254.8087c0-1.8184-0.0365-3.3085-0.1454-4.7632h2.836l0.1814,2.9084h0.0729
		c0.8722-1.6725,2.9084-3.3085,5.8168-3.3085c2.4363,0,6.2179,1.4547,6.2179,7.4903v10.5071h-3.2001v-10.1435
		c0-2.8364-1.0536-5.1998-4.0714-5.1998c-2.1091,0-3.7451,1.4911-4.2911,3.2721c-0.1449,0.4001-0.2178,0.9452-0.2178,1.4911v10.5801
		h-3.1992V254.8087z"/>
	<path class="st0" d="M280.3632,258.6987c0,6.5077-4.508,9.3441-8.7617,9.3441c-4.7632,0-8.4355-3.4908-8.4355-9.0534
		c0-5.8898,3.8546-9.3442,8.7262-9.3442C276.9462,249.6453,280.3632,253.3175,280.3632,258.6987z M266.4016,258.8801
		c0,3.8545,2.2185,6.7629,5.3447,6.7629c3.0543,0,5.3447-2.8719,5.3447-6.8349c0-2.9813-1.4902-6.7629-5.2718-6.7629
		S266.4016,255.535,266.4016,258.8801z"/>
	<path class="st0" d="M285.3798,250.0454l3.4544,9.8892c0.5815,1.5996,1.0536,3.0543,1.4173,4.509h0.1094
		c0.4001-1.4547,0.9087-2.9094,1.4911-4.509l3.417-9.8892h3.345l-6.9078,17.5973h-3.0543l-6.69-17.5973H285.3798z"/>
	<path class="st0" d="M311.2283,267.6427l-0.2543-2.2175h-0.1084c-0.9816,1.3817-2.8729,2.6176-5.3812,2.6176
		c-3.5638,0-5.3812-2.5092-5.3812-5.054c0-4.2537,3.7816-6.5806,10.5801-6.5442v-0.3637c0-1.4547-0.4001-4.0724-3.9994-4.0724
		c-1.636,0-3.345,0.5095-4.5809,1.3088l-0.7274-2.1091c1.4547-0.9452,3.5628-1.5631,5.7813-1.5631c5.3812,0,6.69,3.6722,6.69,7.1986
		v6.5816c0,1.5266,0.072,3.0178,0.2907,4.2173H311.2283z M310.7562,258.6622c-3.4909-0.0729-7.4539,0.545-7.4539,3.963
		c0,2.0726,1.3818,3.0543,3.0178,3.0543c2.2905,0,3.7451-1.4547,4.2537-2.9449c0.1094-0.3272,0.1823-0.6909,0.1823-1.0181V258.6622z
		"/>
	<path class="st0" d="M322.7171,244.9914v5.054h4.5809v2.4363h-4.5809v9.4891c0,2.1811,0.618,3.4179,2.3989,3.4179
		c0.8367,0,1.4547-0.1094,1.8548-0.2188l0.1449,2.3998c-0.618,0.2543-1.5996,0.4366-2.8355,0.4366
		c-1.4911,0-2.6906-0.4731-3.4544-1.3453c-0.9087-0.9452-1.2359-2.5092-1.2359-4.5809v-9.5984h-2.7271v-2.4363h2.7271v-4.2172
		L322.7171,244.9914z"/>
	<path class="st0" d="M334.4592,245.1008c0.0364,1.091-0.7638,1.9633-2.0362,1.9633c-1.1265,0-1.9268-0.8722-1.9268-1.9633
		c0-1.1275,0.8358-1.9997,1.9997-1.9997C333.6953,243.1011,334.4592,243.9733,334.4592,245.1008z M330.8963,267.6427v-17.5973
		h3.1992v17.5973H330.8963z"/>
	<path class="st0" d="M355.3286,258.6987c0,6.5077-4.5089,9.3441-8.7627,9.3441c-4.7623,0-8.4345-3.4908-8.4345-9.0534
		c0-5.8898,3.8536-9.3442,8.7253-9.3442C351.9106,249.6453,355.3286,253.3175,355.3286,258.6987z M341.367,258.8801
		c0,3.8545,2.2175,6.7629,5.3447,6.7629c3.0543,0,5.3447-2.8719,5.3447-6.8349c0-2.9813-1.4911-6.7629-5.2718-6.7629
		C343.0031,252.0451,341.367,255.535,341.367,258.8801z"/>
	<path class="st0" d="M359.3625,254.8087c0-1.8184-0.0364-3.3085-0.1458-4.7632h2.8365l0.1814,2.9084h0.0729
		c0.8723-1.6725,2.9084-3.3085,5.8168-3.3085c2.4363,0,6.2179,1.4547,6.2179,7.4903v10.5071h-3.2001v-10.1435
		c0-2.8364-1.0536-5.1998-4.0714-5.1998c-2.1091,0-3.7451,1.4911-4.2911,3.2721c-0.1449,0.4001-0.2178,0.9452-0.2178,1.4911v10.5801
		h-3.1992V254.8087z"/>
	<path class="st0" d="M396.9906,267.6427l-0.2543-2.2175h-0.1094c-0.9816,1.3817-2.8719,2.6176-5.3812,2.6176
		c-3.5628,0-5.3812-2.5092-5.3812-5.054c0-4.2537,3.7816-6.5806,10.581-6.5442v-0.3637c0-1.4547-0.4001-4.0724-3.9994-4.0724
		c-1.636,0-3.345,0.5095-4.5819,1.3088l-0.7264-2.1091c1.4537-0.9452,3.5628-1.5631,5.7804-1.5631c5.3812,0,6.69,3.6722,6.69,7.1986
		v6.5816c0,1.5266,0.0729,3.0178,0.2907,4.2173H396.9906z M396.5175,258.6622c-3.4899-0.0729-7.4529,0.545-7.4529,3.963
		c0,2.0726,1.3818,3.0543,3.0178,3.0543c2.2905,0,3.7442-1.4547,4.2537-2.9449c0.1094-0.3272,0.1813-0.6909,0.1813-1.0181V258.6622z
		"/>
	<path class="st0" d="M404.7697,254.8087c0-1.8184-0.0365-3.3085-0.1449-4.7632h2.8355l0.1823,2.9084h0.072
		c0.8732-1.6725,2.9094-3.3085,5.8178-3.3085c2.4363,0,6.217,1.4547,6.217,7.4903v10.5071h-3.1992v-10.1435
		c0-2.8364-1.0546-5.1998-4.0724-5.1998c-2.1091,0-3.7452,1.4911-4.2902,3.2721c-0.1458,0.4001-0.2178,0.9452-0.2178,1.4911v10.5801
		h-3.2001V254.8087z"/>
	<path class="st0" d="M440.1447,241.8287v21.2695c0,1.5631,0.0365,3.345,0.1459,4.5445h-2.8729l-0.1449-3.0543h-0.0729
		c-0.9816,1.9632-3.1272,3.4544-5.9991,3.4544c-4.2537,0-7.5258-3.5993-7.5258-8.944c-0.0365-5.8543,3.5993-9.4536,7.8895-9.4536
		c2.6906,0,4.508,1.2724,5.3083,2.6906h0.0729v-10.5071H440.1447z M436.9456,257.2076c0-0.3992-0.0365-0.9452-0.1458-1.3453
		c-0.4721-2.0352-2.2175-3.7077-4.6174-3.7077c-3.3085,0-5.2718,2.9084-5.2718,6.7984c0,3.5628,1.7454,6.5087,5.1989,6.5087
		c2.1456,0,4.1088-1.4182,4.6903-3.8181c0.1094-0.4366,0.1458-0.8723,0.1458-1.3818V257.2076z"/>
	<path class="st0" d="M452.831,263.7892c1.4182,0.8722,3.4909,1.5996,5.6719,1.5996c3.2356,0,5.1269-1.709,5.1269-4.1818
		c0-2.2905-1.3088-3.5993-4.6174-4.8717c-3.9994-1.4182-6.4722-3.4899-6.4722-6.9443c0-3.8181,3.1637-6.6536,7.9259-6.6536
		c2.5092,0,4.3266,0.5815,5.4177,1.1994l-0.8723,2.5822c-0.8003-0.4366-2.4363-1.1639-4.6538-1.1639
		c-3.345,0-4.6174,1.9997-4.6174,3.6722c0,2.2905,1.4902,3.4179,4.8716,4.7268c4.1443,1.5996,6.2534,3.5993,6.2534,7.1986
		c0,3.7816-2.8,7.0537-8.5804,7.0537c-2.3634,0-4.9446-0.6909-6.2534-1.5631L452.831,263.7892z"/>
	<path class="st0" d="M485.8062,262.843c0,1.8184,0.0365,3.4179,0.1459,4.7997h-2.8355l-0.1823-2.8719h-0.0729
		c-0.8358,1.4173-2.6906,3.2721-5.8168,3.2721c-2.7635,0-6.0721-1.5276-6.0721-7.7081v-10.2893h3.1992v9.7443
		c0,3.345,1.0181,5.599,3.9275,5.599c2.1446,0,3.6358-1.4911,4.2173-2.9084c0.1814-0.4731,0.2907-1.0546,0.2907-1.637v-10.7979
		h3.1992V262.843z"/>
	<path class="st0" d="M490.6769,264.3706c0.9452,0.618,2.6177,1.2724,4.2173,1.2724c2.3269,0,3.4179-1.163,3.4179-2.6177
		c0-1.5276-0.9087-2.3634-3.2721-3.2356c-3.1637-1.1275-4.6538-2.8729-4.6538-4.981c0-2.8365,2.2904-5.1634,6.0721-5.1634
		c1.7809,0,3.345,0.5095,4.3267,1.091l-0.8003,2.3269c-0.6909-0.4366-1.9632-1.0181-3.5993-1.0181
		c-1.8904,0-2.9449,1.091-2.9449,2.3998c0,1.4537,1.0545,2.1082,3.345,2.9814c3.0543,1.163,4.6174,2.6906,4.6174,5.3083
		c0,3.0898-2.3999,5.2718-6.5807,5.2718c-1.9277,0-3.7087-0.4731-4.9456-1.1995L490.6769,264.3706z"/>
	<path class="st0" d="M509.3643,244.9914v5.054h4.5809v2.4363h-4.5809v9.4891c0,2.1811,0.618,3.4179,2.3999,3.4179
		c0.8358,0,1.4547-0.1094,1.8539-0.2188l0.1459,2.3998c-0.618,0.2543-1.5996,0.4366-2.8365,0.4366
		c-1.4902,0-2.6896-0.4731-3.4535-1.3453c-0.9087-0.9452-1.2359-2.5092-1.2359-4.5809v-9.5984h-2.7271v-2.4363h2.7271v-4.2172
		L509.3643,244.9914z"/>
	<path class="st0" d="M527.2878,267.6427l-0.2543-2.2175h-0.1094c-0.9816,1.3817-2.8719,2.6176-5.3812,2.6176
		c-3.5629,0-5.3812-2.5092-5.3812-5.054c0-4.2537,3.7816-6.5806,10.5811-6.5442v-0.3637c0-1.4547-0.4001-4.0724-3.9995-4.0724
		c-1.636,0-3.345,0.5095-4.5818,1.3088l-0.7264-2.1091c1.4537-0.9452,3.5628-1.5631,5.7803-1.5631
		c5.3812,0,6.6901,3.6722,6.6901,7.1986v6.5816c0,1.5266,0.0729,3.0178,0.2907,4.2173H527.2878z M526.8148,258.6622
		c-3.4899-0.0729-7.4529,0.545-7.4529,3.963c0,2.0726,1.3818,3.0543,3.0178,3.0543c2.2905,0,3.7442-1.4547,4.2537-2.9449
		c0.1094-0.3272,0.1813-0.6909,0.1813-1.0181V258.6622z"/>
	<path class="st0" d="M538.6298,245.1008c0.0365,1.091-0.7638,1.9633-2.0361,1.9633c-1.1265,0-1.9268-0.8722-1.9268-1.9633
		c0-1.1275,0.8358-1.9997,1.9997-1.9997C537.866,243.1011,538.6298,243.9733,538.6298,245.1008z M535.067,267.6427v-17.5973h3.1992
		v17.5973H535.067z"/>
	<path class="st0" d="M543.5744,254.8087c0-1.8184-0.0365-3.3085-0.1459-4.7632h2.8364l0.1814,2.9084h0.0729
		c0.8722-1.6725,2.9084-3.3085,5.8168-3.3085c2.4363,0,6.2179,1.4547,6.2179,7.4903v10.5071h-3.2001v-10.1435
		c0-2.8364-1.0536-5.1998-4.0714-5.1998c-2.1091,0-3.7451,1.4911-4.2911,3.2721c-0.1448,0.4001-0.2178,0.9452-0.2178,1.4911v10.5801
		h-3.1992V254.8087z"/>
	<path class="st0" d="M573.4953,267.6427l-0.2543-2.2175h-0.1094c-0.9816,1.3817-2.8719,2.6176-5.3812,2.6176
		c-3.5629,0-5.3812-2.5092-5.3812-5.054c0-4.2537,3.7816-6.5806,10.5811-6.5442v-0.3637c0-1.4547-0.4001-4.0724-3.9995-4.0724
		c-1.636,0-3.345,0.5095-4.5818,1.3088l-0.7264-2.1091c1.4537-0.9452,3.5628-1.5631,5.7803-1.5631
		c5.3812,0,6.6901,3.6722,6.6901,7.1986v6.5816c0,1.5266,0.0729,3.0178,0.2907,4.2173H573.4953z M573.0222,258.6622
		c-3.4899-0.0729-7.4529,0.545-7.4529,3.963c0,2.0726,1.3818,3.0543,3.0178,3.0543c2.2905,0,3.7442-1.4547,4.2537-2.9449
		c0.1094-0.3272,0.1813-0.6909,0.1813-1.0181V258.6622z"/>
	<path class="st0" d="M581.1285,267.6427c0.0729-1.1995,0.1459-2.9814,0.1459-4.5445v-21.2695h3.1627v11.0522h0.0729
		c1.1275-1.9633,3.1637-3.2356,5.9991-3.2356c4.3631,0,7.4539,3.6358,7.4174,8.9805c0,6.2899-3.963,9.4171-7.8904,9.4171
		c-2.5447,0-4.5809-0.9816-5.8898-3.3085h-0.1094l-0.1449,2.9084H581.1285z M584.4371,260.589c0,0.4001,0.0729,0.8003,0.1459,1.1639
		c0.618,2.2175,2.4718,3.7442,4.7988,3.7442c3.345,0,5.3447-2.7261,5.3447-6.762c0-3.5273-1.8174-6.5452-5.2354-6.5452
		c-2.1811,0-4.2172,1.4912-4.8716,3.9275c-0.0729,0.3637-0.1824,0.7993-0.1824,1.3088V260.589z"/>
	<path class="st0" d="M605.5234,245.1008c0.0364,1.091-0.7638,1.9633-2.0362,1.9633c-1.1265,0-1.9268-0.8722-1.9268-1.9633
		c0-1.1275,0.8358-1.9997,1.9998-1.9997C604.7596,243.1011,605.5234,243.9733,605.5234,245.1008z M601.9605,267.6427v-17.5973
		h3.1992v17.5973H601.9605z"/>
	<path class="st0" d="M610.467,241.8287h3.2001v25.814h-3.2001V241.8287z"/>
	<path class="st0" d="M622.6102,245.1008c0.0355,1.091-0.7638,1.9633-2.0361,1.9633c-1.1275,0-1.9278-0.8722-1.9278-1.9633
		c0-1.1275,0.8367-1.9997,1.9998-1.9997C621.8464,243.1011,622.6102,243.9733,622.6102,245.1008z M619.0464,267.6427v-17.5973
		h3.2001v17.5973H619.0464z"/>
	<path class="st0" d="M631.4074,244.9914v5.054h4.5809v2.4363h-4.5809v9.4891c0,2.1811,0.6179,3.4179,2.3998,3.4179
		c0.8358,0,1.4547-0.1094,1.8539-0.2188l0.1458,2.3998c-0.6179,0.2543-1.5995,0.4366-2.8364,0.4366
		c-1.4902,0-2.6896-0.4731-3.4534-1.3453c-0.9087-0.9452-1.2359-2.5092-1.2359-4.5809v-9.5984h-2.7271v-2.4363h2.7271v-4.2172
		L631.4074,244.9914z"/>
	<path class="st0" d="M641.0778,250.0454l3.8536,10.3987c0.4001,1.163,0.8367,2.5447,1.1275,3.5993h0.0729
		c0.3272-1.0546,0.6899-2.3998,1.1265-3.6722l3.4909-10.3258h3.3815l-4.7997,12.5433c-2.2904,6.0356-3.8536,9.1263-6.0356,11.0167
		c-1.5631,1.3818-3.1262,1.9268-3.9265,2.0726l-0.8002-2.6906c0.8002-0.2543,1.8548-0.7638,2.7999-1.5631
		c0.8723-0.6909,1.9633-1.9278,2.6906-3.5638c0.1449-0.3272,0.2543-0.5815,0.2543-0.7628c0-0.1823-0.0729-0.4366-0.2178-0.8367
		l-6.5087-16.2155H641.0778z"/>
</g>
</svg>
