<?xml version="1.0" encoding="utf-8"?>
<svg viewBox="0 0 247.185 234.797" xmlns="http://www.w3.org/2000/svg">
  <path class="st0" d="M 114.584 211.625 C 111.879 211.386 109.153 211.031 106.483 210.568 L 107.825 202.823 C 110.28 203.249 112.786 203.575 115.274 203.794 L 114.584 211.625 Z M 119.685 211.94 L 119.96 204.084 C 120.414 204.1 120.867 204.113 121.321 204.123 C 123.366 204.167 125.438 204.14 127.481 204.045 L 127.85 211.897 C 125.628 212.001 123.375 212.029 121.154 211.982 C 120.665 211.972 120.174 211.958 119.685 211.94 Z M 101.474 209.563 C 98.83 208.96 96.177 208.235 93.589 207.408 L 95.979 199.92 C 98.357 200.68 100.794 201.345 103.222 201.898 L 101.474 209.563 Z M 132.942 211.526 L 132.167 203.703 C 134.648 203.458 137.149 203.103 139.601 202.648 L 141.034 210.377 C 138.366 210.872 135.643 211.259 132.942 211.526 Z M 88.752 205.722 C 86.206 204.758 83.676 203.675 81.232 202.504 L 84.63 195.415 C 86.874 196.49 89.198 197.485 91.537 198.372 L 88.752 205.722 Z M 146.03 209.312 L 144.194 201.67 C 146.612 201.088 149.041 200.394 151.413 199.606 L 153.891 207.066 C 151.308 207.924 148.664 208.679 146.03 209.312 Z M 76.679 200.174 C 74.295 198.873 71.938 197.455 69.673 195.96 L 74.005 189.4 C 76.086 190.774 78.253 192.078 80.444 193.274 L 76.679 200.174 Z M 158.686 205.332 L 155.817 198.014 C 158.136 197.104 160.447 196.084 162.685 194.981 L 166.161 202.031 C 163.725 203.232 161.21 204.343 158.686 205.332 Z M 65.483 193.031 C 63.301 191.42 61.16 189.695 59.118 187.905 L 64.301 181.995 C 66.178 183.641 68.147 185.227 70.154 186.709 L 65.483 193.031 Z M 170.677 199.655 L 166.836 192.796 C 169.012 191.577 171.163 190.251 173.23 188.854 L 177.632 195.367 C 175.384 196.886 173.044 198.329 170.677 199.655 Z M 55.366 184.438 C 53.421 182.544 51.533 180.545 49.755 178.498 L 55.69 173.343 C 57.325 175.226 59.062 177.064 60.85 178.805 L 55.366 184.438 Z M 181.785 192.397 L 177.047 186.126 C 179.041 184.619 180.993 183.013 182.85 181.35 L 188.093 187.207 C 186.075 189.014 183.953 190.76 181.785 192.397 Z M 46.508 174.556 C 44.836 172.415 43.236 170.179 41.753 167.911 L 48.332 163.609 C 49.695 165.694 51.166 167.749 52.704 169.719 L 46.508 174.556 Z M 191.808 183.701 L 186.265 178.127 C 188.037 176.365 189.754 174.509 191.368 172.61 L 197.357 177.702 C 195.601 179.767 193.734 181.785 191.808 183.701 Z M 39.072 163.568 C 37.706 161.221 36.425 158.788 35.264 156.339 L 42.368 152.972 C 43.434 155.223 44.612 157.458 45.867 159.616 L 39.072 163.568 Z M 33.202 151.673 C 32.169 149.159 31.232 146.574 30.418 143.99 L 37.915 141.629 C 38.663 144.001 39.523 146.375 40.472 148.685 L 33.202 151.673 Z M 29.012 139.079 C 28.334 136.452 27.761 133.762 27.307 131.086 L 35.057 129.772 C 35.474 132.231 36.001 134.702 36.623 137.116 L 29.012 139.079 Z M 26.586 126.027 C 26.275 123.335 26.073 120.594 25.988 117.879 L 33.844 117.632 C 33.923 120.128 34.108 122.649 34.394 125.125 L 26.586 126.027 Z M 25.959 112.769 L 25.962 112.665 C 25.992 111.21 26.056 109.733 26.152 108.281 C 26.232 107.065 26.336 105.834 26.461 104.622 L 34.28 105.43 C 34.165 106.544 34.069 107.677 33.996 108.796 C 33.908 110.133 33.849 111.492 33.82 112.838 L 29.889 112.853 L 25.959 112.769 Z M 34.885 100.773 L 27.119 99.557 C 27.539 96.874 28.079 94.177 28.723 91.542 L 36.359 93.41 C 35.767 95.831 35.271 98.308 34.885 100.773 Z M 37.594 88.881 L 30.067 86.613 C 30.851 84.012 31.756 81.415 32.755 78.893 L 40.062 81.789 C 39.144 84.105 38.314 86.491 37.594 88.881 Z M 41.91 77.465 L 34.766 74.186 C 35.9 71.717 37.152 69.267 38.488 66.906 L 45.33 70.777 C 44.102 72.946 42.952 75.197 41.91 77.465 Z M 47.751 66.745 L 41.122 62.521 C 42.581 60.232 44.155 57.976 45.8 55.818 L 52.052 60.583 C 50.539 62.568 49.092 64.641 47.751 66.745 Z M 54.997 56.921 L 49.003 51.837 C 50.759 49.766 52.625 47.745 54.547 45.831 L 60.094 51.4 C 58.327 53.16 56.612 55.018 54.997 56.921 Z M 198.044 65.771 C 196.673 63.681 195.199 61.627 193.665 59.666 L 199.855 54.822 C 201.524 56.954 203.126 59.187 204.617 61.461 L 198.044 65.771 Z M 63.507 48.174 L 58.257 42.323 C 60.275 40.513 62.395 38.764 64.561 37.125 L 69.305 43.393 C 67.313 44.9 65.363 46.508 63.507 48.174 Z M 190.675 56.045 C 189.038 54.163 187.3 52.327 185.51 50.588 L 190.987 44.95 C 192.934 46.842 194.824 48.838 196.606 50.884 L 190.675 56.045 Z M 73.12 40.658 L 68.711 34.15 C 70.963 32.625 73.301 31.179 75.663 29.855 L 79.509 36.71 C 77.339 37.927 75.189 39.256 73.12 40.658 Z M 182.057 47.403 C 180.174 45.756 178.204 44.173 176.199 42.696 L 180.862 36.367 C 183.042 37.974 185.186 39.696 187.232 41.487 L 182.057 47.403 Z M 83.657 34.522 L 80.175 27.475 C 82.607 26.273 85.12 25.16 87.645 24.167 L 90.523 31.482 C 88.202 32.395 85.892 33.418 83.657 34.522 Z M 172.343 40.007 C 170.257 38.633 168.089 37.331 165.9 36.14 L 169.658 29.237 C 172.039 30.533 174.397 31.947 176.668 33.443 L 172.343 40.007 Z M 94.926 29.882 L 92.439 22.426 C 95.009 21.568 97.652 20.809 100.295 20.169 L 102.143 27.81 C 99.715 28.397 97.286 29.095 94.926 29.882 Z M 161.713 34.003 C 159.457 32.926 157.132 31.934 154.802 31.055 L 157.579 23.7 C 160.115 24.658 162.645 25.738 165.1 26.91 L 161.713 34.003 Z M 106.733 26.83 L 105.293 19.102 C 107.954 18.606 110.675 18.217 113.382 17.944 L 114.168 25.766 C 111.679 26.016 109.178 26.374 106.733 26.83 Z M 150.359 29.509 C 147.979 28.753 145.541 28.089 143.113 27.538 L 144.853 19.873 C 147.496 20.473 150.151 21.194 152.741 22.019 L 150.359 29.509 Z M 118.851 25.419 L 118.475 17.567 C 120.721 17.459 123.008 17.429 125.273 17.478 C 125.726 17.486 126.186 17.5 126.643 17.516 L 126.368 25.371 C 125.95 25.356 125.531 25.345 125.111 25.337 C 123.021 25.292 120.917 25.319 118.851 25.419 Z M 138.508 26.62 C 136.057 26.198 133.55 25.873 131.06 25.657 L 131.741 17.826 C 134.45 18.062 137.177 18.414 139.844 18.875 L 138.508 26.62 Z" style="fill: rgb(19, 122, 183);" transform="matrix(1, 0, 0, 1, -2.842170943040401e-14, -1.4210854715202004e-14)"/>
  <path class="st1" d="M 113.944 193.293 C 112.284 193.098 110.608 192.849 108.962 192.549 L 109.841 187.715 C 111.385 187.996 112.957 188.231 114.515 188.412 L 113.944 193.293 Z M 134.539 193.017 L 133.843 188.154 C 135.391 187.932 136.957 187.656 138.496 187.334 L 139.501 192.143 C 137.86 192.486 136.19 192.78 134.539 193.017 Z M 142.937 191.343 L 141.717 186.584 C 143.236 186.194 144.763 185.751 146.253 185.265 L 147.775 189.936 C 146.185 190.455 144.557 190.928 142.937 191.343 Z M 97.266 189.47 C 95.679 188.919 94.095 188.31 92.555 187.661 L 94.463 183.134 C 95.906 183.742 97.392 184.312 98.879 184.83 L 97.266 189.47 Z M 151.104 188.767 L 149.374 184.168 C 150.837 183.619 152.305 183.011 153.739 182.364 L 155.761 186.841 C 154.232 187.532 152.665 188.179 151.104 188.767 Z M 89.33 186.218 C 87.815 185.498 86.307 184.722 84.848 183.911 L 87.233 179.616 C 88.603 180.377 90.018 181.105 91.44 181.781 L 89.33 186.218 Z M 158.937 185.321 L 156.715 180.94 C 158.117 180.229 159.51 179.466 160.854 178.672 L 163.351 182.904 C 161.917 183.75 160.432 184.563 158.937 185.321 Z M 81.8 182.127 C 80.382 181.253 78.967 180.32 77.596 179.35 L 80.429 175.338 C 81.718 176.247 83.046 177.124 84.377 177.944 L 81.8 182.127 Z M 166.344 181.047 L 163.663 176.931 C 164.973 176.077 166.276 175.168 167.534 174.228 L 170.474 178.165 C 169.132 179.167 167.742 180.136 166.344 181.047 Z M 74.76 177.249 C 73.434 176.221 72.128 175.14 70.878 174.036 L 74.13 170.353 C 75.302 171.389 76.527 172.402 77.771 173.367 L 74.76 177.249 Z M 173.25 175.995 L 170.138 172.193 C 171.357 171.196 172.555 170.15 173.699 169.086 L 177.045 172.684 C 175.825 173.819 174.548 174.933 173.25 175.995 Z M 68.286 171.644 C 67.085 170.485 65.903 169.271 64.774 168.035 L 68.402 164.722 C 69.461 165.882 70.57 167.021 71.698 168.109 L 68.286 171.644 Z M 179.574 170.226 L 176.071 166.781 C 177.176 165.659 178.255 164.491 179.279 163.309 L 182.991 166.527 C 181.9 167.786 180.75 169.03 179.574 170.226 Z M 62.456 165.379 C 61.388 164.1 60.344 162.766 59.353 161.413 L 63.316 158.51 C 64.246 159.778 65.225 161.031 66.227 162.23 L 62.456 165.379 Z M 185.242 163.811 L 181.391 160.761 C 182.367 159.529 183.314 158.251 184.207 156.963 L 188.244 159.763 C 187.292 161.135 186.282 162.497 185.242 163.811 Z M 57.335 158.525 C 56.409 157.137 55.515 155.697 54.678 154.249 L 58.932 151.791 C 59.717 153.15 60.555 154.499 61.423 155.802 L 57.335 158.525 Z M 190.191 156.818 L 186.034 154.201 C 186.869 152.873 187.673 151.501 188.424 150.121 L 192.74 152.469 C 191.94 153.94 191.082 155.403 190.191 156.818 Z M 52.986 151.161 C 52.217 149.68 51.485 148.153 50.81 146.624 L 55.305 144.641 C 55.938 146.076 56.624 147.508 57.345 148.896 L 52.986 151.161 Z M 194.358 149.331 L 189.942 147.178 C 190.628 145.769 191.279 144.317 191.876 142.862 L 196.422 144.728 C 195.785 146.279 195.09 147.828 194.358 149.331 Z M 49.46 143.364 C 48.855 141.805 48.293 140.206 47.788 138.61 L 52.473 137.13 C 52.946 138.626 53.473 140.125 54.04 141.585 L 49.46 143.364 Z M 197.69 141.428 L 193.066 139.768 C 193.595 138.293 194.085 136.779 194.52 135.267 L 199.241 136.625 C 198.777 138.238 198.255 139.854 197.69 141.428 Z M 46.801 135.221 C 46.371 133.608 45.985 131.958 45.657 130.316 L 50.475 129.353 C 50.783 130.894 51.144 132.442 51.548 133.955 L 46.801 135.221 Z M 45.043 126.844 C 44.79 125.195 44.586 123.513 44.436 121.844 L 49.329 121.405 C 49.469 122.972 49.661 124.55 49.899 126.097 L 45.043 126.844 Z M 44.198 118.304 L 46.653 118.213 L 44.197 118.287 C 44.142 117.061 44.115 115.859 44.115 114.672 C 44.115 114.21 44.119 113.749 44.127 113.29 L 49.039 113.374 C 49.032 113.805 49.028 114.239 49.028 114.671 C 49.028 115.786 49.053 116.915 49.103 118.026 L 46.653 118.213 L 44.198 118.304 Z M 49.17 110.069 L 44.266 109.765 C 44.369 108.1 44.527 106.413 44.736 104.751 L 49.611 105.363 C 49.414 106.922 49.266 108.505 49.17 110.069 Z M 50.097 102.094 L 45.255 101.261 C 45.539 99.608 45.88 97.948 46.267 96.324 L 51.046 97.466 C 50.682 98.987 50.363 100.544 50.097 102.094 Z M 51.886 94.266 L 47.164 92.911 C 47.625 91.303 48.145 89.688 48.71 88.108 L 53.336 89.761 C 52.806 91.243 52.319 92.759 51.886 94.266 Z M 54.522 86.668 L 49.975 84.806 C 50.609 83.259 51.301 81.709 52.034 80.202 L 56.453 82.35 C 55.766 83.763 55.116 85.216 54.522 86.668 Z M 57.967 79.404 L 53.649 77.061 C 54.449 75.587 55.305 74.123 56.194 72.708 L 60.354 75.322 C 59.52 76.648 58.717 78.021 57.967 79.404 Z M 62.177 72.56 L 58.138 69.763 C 59.084 68.396 60.092 67.033 61.134 65.713 L 64.991 68.757 C 64.012 69.997 63.065 71.277 62.177 72.56 Z M 67.098 66.208 L 63.383 62.994 C 64.482 61.724 65.63 60.478 66.798 59.29 L 70.302 62.733 C 69.207 63.848 68.13 65.016 67.098 66.208 Z M 177.975 64.683 C 176.913 63.522 175.803 62.384 174.675 61.298 L 178.083 57.759 C 179.285 58.916 180.467 60.129 181.599 61.364 L 177.975 64.683 Z M 72.673 60.424 L 69.324 56.83 C 70.542 55.694 71.818 54.579 73.114 53.515 L 76.231 57.313 C 75.013 58.313 73.816 59.359 72.673 60.424 Z M 172.241 59.057 C 171.065 58.02 169.838 57.007 168.597 56.046 L 171.604 52.161 C 172.927 53.185 174.234 54.266 175.489 55.37 L 172.241 59.057 Z M 78.832 55.277 L 75.889 51.343 C 77.227 50.342 78.615 49.372 80.015 48.457 L 82.702 52.57 C 81.388 53.428 80.087 54.339 78.832 55.277 Z M 165.935 54.078 C 164.651 53.173 163.323 52.298 161.986 51.476 L 164.557 47.291 C 165.982 48.165 167.398 49.097 168.766 50.063 L 165.935 54.078 Z M 85.507 50.827 L 83.008 46.597 C 84.45 45.745 85.934 44.93 87.419 44.176 L 89.644 48.555 C 88.252 49.263 86.86 50.027 85.507 50.827 Z M 159.127 49.806 C 157.749 49.043 156.333 48.315 154.919 47.647 L 157.023 43.206 C 158.53 43.92 160.039 44.695 161.508 45.509 L 159.127 49.806 Z M 92.62 47.126 L 90.592 42.651 C 92.112 41.962 93.679 41.312 95.247 40.72 L 96.983 45.317 C 95.512 45.872 94.044 46.481 92.62 47.126 Z M 151.894 46.296 C 150.453 45.69 148.967 45.121 147.477 44.605 L 149.084 39.963 C 150.675 40.513 152.261 41.12 153.798 41.767 L 151.894 46.296 Z M 100.102 44.217 L 98.575 39.548 C 100.169 39.026 101.797 38.551 103.413 38.136 L 104.636 42.894 C 103.122 43.283 101.596 43.729 100.102 44.217 Z M 144.321 43.59 C 142.82 43.144 141.283 42.742 139.752 42.393 L 140.843 37.603 C 142.477 37.975 144.117 38.405 145.719 38.88 L 144.321 43.59 Z M 107.858 42.141 L 106.847 37.333 C 108.479 36.99 110.148 36.694 111.808 36.454 L 112.51 41.317 C 110.953 41.542 109.388 41.819 107.858 42.141 Z M 136.511 41.731 C 134.972 41.452 133.4 41.219 131.838 41.038 L 132.403 36.158 C 134.069 36.351 135.746 36.599 137.387 36.897 L 136.511 41.731 Z M 115.794 40.915 L 115.308 36.027 C 116.764 35.881 118.241 35.776 119.699 35.712 L 120.341 35.685 L 120.503 40.596 L 119.923 40.619 C 118.548 40.68 117.161 40.78 115.794 40.915 Z M 128.547 40.73 C 126.971 40.62 125.382 40.557 123.823 40.547 L 123.858 35.634 C 125.519 35.645 127.212 35.712 128.89 35.829 L 128.547 40.73 Z" style="fill: rgb(109, 146, 133);" transform="matrix(1, 0, 0, 1, -2.842170943040401e-14, -1.4210854715202004e-14)"/>
  <path class="st2" d="M 123.16 185.918 C 122.591 185.918 122.024 185.911 121.458 185.898 L 121.567 181.084 C 123.014 181.115 124.485 181.106 125.956 181.045 L 126.006 181.034 L 126.297 181.032 L 126.297 183.442 L 126.792 185.791 L 126.377 185.846 C 125.305 185.894 124.223 185.918 123.16 185.918 Z M 129.43 185.646 L 129.013 180.85 C 130.538 180.717 132.08 180.53 133.597 180.292 L 134.343 185.047 C 132.718 185.303 131.065 185.504 129.43 185.646 Z M 137.33 184.513 L 136.379 179.794 C 137.884 179.491 139.395 179.131 140.871 178.726 L 142.146 183.368 C 140.563 183.803 138.943 184.189 137.33 184.513 Z M 145.054 182.503 L 143.577 177.92 C 145.037 177.45 146.498 176.922 147.92 176.352 L 149.712 180.822 C 148.186 181.433 146.619 181.998 145.054 182.503 Z M 95.219 180.198 C 93.711 179.551 92.202 178.842 90.735 178.089 L 92.935 173.805 C 94.302 174.508 95.71 175.17 97.116 175.772 L 95.219 180.198 Z M 152.502 179.632 L 150.519 175.245 C 151.911 174.616 153.302 173.928 154.654 173.2 L 156.937 177.439 C 155.487 178.22 153.994 178.957 152.502 179.632 Z M 88.064 176.644 C 86.64 175.834 85.222 174.96 83.847 174.047 L 86.51 170.036 C 87.793 170.888 89.117 171.704 90.445 172.46 L 88.064 176.644 Z M 81.356 172.314 C 80.025 171.346 78.713 170.319 77.455 169.263 L 80.551 165.576 C 81.724 166.561 82.948 167.518 84.19 168.422 L 81.356 172.314 Z M 75.175 167.265 C 73.96 166.154 72.77 164.988 71.639 163.8 L 75.126 160.48 C 76.181 161.588 77.291 162.675 78.425 163.713 L 75.175 167.265 Z M 69.596 161.56 C 68.517 160.326 67.465 159.036 66.469 157.724 L 70.303 154.813 C 71.232 156.036 72.214 157.24 73.22 158.392 L 69.596 161.56 Z M 64.689 155.273 C 63.749 153.918 62.848 152.518 62.01 151.111 L 66.148 148.649 C 66.928 149.96 67.768 151.265 68.644 152.527 L 64.689 155.273 Z M 60.516 148.478 C 59.738 147.035 59 145.542 58.322 144.045 L 62.71 142.06 C 63.341 143.457 64.029 144.848 64.755 146.194 L 60.516 148.478 Z M 57.133 141.255 C 56.52 139.728 55.954 138.162 55.45 136.597 L 60.033 135.121 C 60.502 136.578 61.03 138.039 61.601 139.461 L 57.133 141.255 Z M 54.583 133.69 C 54.147 132.109 53.761 130.488 53.435 128.873 L 58.155 127.921 C 58.458 129.427 58.818 130.937 59.224 132.412 L 54.583 133.69 Z M 192.216 132.305 L 187.549 131.119 C 187.926 129.637 188.256 128.12 188.53 126.608 L 193.267 127.466 C 192.974 129.087 192.62 130.715 192.216 132.305 Z M 52.901 125.888 C 52.646 124.269 52.444 122.616 52.3 120.974 L 57.097 120.556 C 57.23 122.087 57.419 123.629 57.656 125.139 L 52.901 125.888 Z M 193.743 124.472 L 188.973 123.817 C 189.181 122.303 189.338 120.758 189.439 119.226 L 194.244 119.544 C 194.135 121.189 193.966 122.846 193.743 124.472 Z M 52.101 117.969 L 52.098 117.906 C 52.049 116.826 52.025 115.743 52.025 114.677 C 52.025 114.116 52.032 113.557 52.045 112.998 L 56.858 113.113 C 56.846 113.633 56.84 114.154 56.84 114.677 C 56.84 115.673 56.862 116.682 56.907 117.679 L 52.101 117.969 Z M 194.381 116.516 L 189.568 116.399 C 189.581 115.862 189.587 115.322 189.587 114.781 C 189.587 113.79 189.565 112.78 189.521 111.779 L 194.325 111.439 L 194.328 111.507 C 194.378 112.638 194.402 113.72 194.402 114.781 C 194.402 115.361 194.395 115.939 194.381 116.516 Z M 56.984 110.287 L 52.179 109.971 C 52.287 108.332 52.455 106.675 52.676 105.045 L 57.447 105.694 C 57.24 107.213 57.085 108.759 56.984 110.287 Z M 189.327 108.851 C 189.191 107.319 189.002 105.777 188.763 104.267 L 193.519 103.515 C 193.774 105.133 193.978 106.785 194.123 108.427 L 189.327 108.851 Z M 57.888 102.904 L 53.15 102.05 C 53.441 100.434 53.793 98.804 54.198 97.21 L 58.865 98.392 C 58.488 99.879 58.16 101.397 57.888 102.904 Z M 188.261 101.485 C 187.958 99.984 187.597 98.473 187.188 96.996 L 191.83 95.714 C 192.267 97.299 192.655 98.919 192.98 100.53 L 188.261 101.485 Z M 59.619 95.66 L 55.008 94.278 C 55.481 92.697 56.017 91.115 56.598 89.579 L 61.101 91.283 C 60.56 92.715 60.061 94.187 59.619 95.66 Z M 186.378 94.288 C 185.907 92.83 185.379 91.37 184.807 89.948 L 189.274 88.151 C 189.887 89.677 190.455 91.244 190.96 92.808 L 186.378 94.288 Z M 62.159 88.656 L 57.733 86.762 C 58.379 85.251 59.089 83.741 59.841 82.276 L 64.124 84.473 C 63.423 85.84 62.762 87.247 62.159 88.656 Z M 183.695 87.348 C 183.065 85.957 182.376 84.567 181.647 83.217 L 185.883 80.93 C 186.665 82.378 187.405 83.869 188.081 85.362 L 183.695 87.348 Z M 65.471 81.984 L 61.285 79.605 C 62.098 78.174 62.971 76.755 63.882 75.385 L 67.892 78.049 C 67.043 79.326 66.229 80.65 65.471 81.984 Z M 180.253 80.765 C 179.468 79.449 178.627 78.145 177.752 76.887 L 181.706 74.139 C 182.643 75.487 183.546 76.887 184.388 78.299 L 180.253 80.765 Z M 69.506 75.727 L 65.612 72.896 C 66.579 71.565 67.605 70.253 68.662 68.994 L 72.35 72.087 C 71.365 73.262 70.408 74.486 69.506 75.727 Z M 176.092 74.603 C 175.161 73.38 174.178 72.177 173.172 71.027 L 176.793 67.855 C 177.873 69.087 178.926 70.377 179.924 71.688 L 176.092 74.603 Z M 74.214 69.96 L 70.659 66.713 C 71.765 65.503 72.93 64.312 74.122 63.175 L 77.445 66.66 C 76.332 67.721 75.245 68.832 74.214 69.96 Z M 171.264 68.942 C 170.208 67.835 169.097 66.748 167.963 65.712 L 171.21 62.156 C 172.426 63.266 173.616 64.431 174.748 65.618 L 171.264 68.942 Z M 79.532 64.755 L 76.361 61.131 C 77.595 60.051 78.886 58.997 80.196 58.002 L 83.109 61.835 C 81.887 62.763 80.683 63.746 79.532 64.755 Z M 165.835 63.85 C 164.659 62.863 163.434 61.907 162.194 61.006 L 165.024 57.111 C 166.354 58.077 167.667 59.103 168.928 60.159 L 165.835 63.85 Z M 85.393 60.176 L 82.647 56.22 C 83.989 55.289 85.388 54.387 86.805 53.54 L 89.274 57.674 C 87.951 58.464 86.645 59.305 85.393 60.176 Z M 159.87 59.393 C 158.59 58.542 157.266 57.729 155.936 56.974 L 158.312 52.786 C 159.74 53.596 161.16 54.469 162.534 55.382 L 159.87 59.393 Z M 91.726 56.284 L 89.439 52.046 C 90.884 51.266 92.376 50.527 93.873 49.849 L 95.858 54.235 C 94.464 54.867 93.073 55.556 91.726 56.284 Z M 153.444 55.627 C 152.084 54.93 150.677 54.269 149.263 53.665 L 151.154 49.238 C 152.672 49.885 154.182 50.594 155.642 51.344 L 153.444 55.627 Z M 98.457 53.128 L 96.663 48.66 C 98.188 48.048 99.754 47.481 101.319 46.976 L 102.799 51.557 C 101.339 52.029 99.878 52.557 98.457 53.128 Z M 146.635 52.608 C 145.195 52.065 143.722 51.567 142.257 51.128 L 143.638 46.516 C 145.211 46.986 146.791 47.521 148.335 48.104 L 146.635 52.608 Z M 105.506 50.747 L 104.225 46.107 C 105.805 45.67 107.425 45.283 109.042 44.957 L 109.996 49.676 C 108.488 49.98 106.978 50.341 105.506 50.747 Z M 139.525 50.375 C 138.035 49.997 136.517 49.67 135.014 49.4 L 135.864 44.661 C 137.478 44.95 139.107 45.302 140.706 45.707 L 139.525 50.375 Z M 112.777 49.177 L 112.028 44.421 C 113.653 44.165 115.306 43.963 116.94 43.82 L 117.361 48.616 C 115.835 48.749 114.293 48.938 112.777 49.177 Z M 132.223 48.959 C 130.7 48.753 129.154 48.597 127.629 48.498 L 127.943 43.694 C 129.579 43.801 131.237 43.967 132.869 44.188 L 132.223 48.959 Z M 120.159 48.427 L 119.99 43.615 L 120.074 43.613 C 121.665 43.542 123.312 43.522 124.916 43.561 L 124.802 48.374 C 123.306 48.341 121.782 48.357 120.263 48.423 L 120.159 48.427 Z" style="fill: rgb(55, 167, 223);" transform="matrix(1, 0, 0, 1, -2.842170943040401e-14, -1.4210854715202004e-14)"/>
  <path class="st0" d="M 122.713 178.499 C 121.075 178.488 119.419 178.412 117.789 178.274 L 118.189 173.574 C 119.697 173.703 121.229 173.773 122.745 173.782 L 122.713 178.499 Z M 125.794 178.445 L 125.598 173.733 C 127.105 173.67 128.636 173.547 130.147 173.367 L 130.707 178.049 C 129.075 178.244 127.422 178.378 125.794 178.445 Z M 133.758 177.611 L 132.969 172.961 L 133.776 172.82 C 134.994 172.599 136.23 172.334 137.445 172.034 L 138.576 176.613 C 137.266 176.936 135.933 177.222 134.615 177.461 L 133.758 177.611 Z M 106.862 176.372 C 105.28 175.952 103.695 175.463 102.15 174.921 L 103.712 170.471 C 105.142 170.973 106.61 171.425 108.074 171.814 L 106.862 176.372 Z M 141.547 175.802 L 140.197 171.283 C 141.646 170.85 143.099 170.354 144.515 169.809 L 146.21 174.209 C 144.681 174.798 143.112 175.335 141.547 175.802 Z M 99.267 173.83 C 97.755 173.215 96.245 172.533 94.777 171.801 L 96.882 167.581 C 98.242 168.259 99.642 168.891 101.043 169.46 L 99.267 173.83 Z M 92.053 170.359 C 90.628 169.559 89.215 168.694 87.852 167.785 L 90.468 163.86 C 91.73 164.702 93.04 165.504 94.36 166.244 L 92.053 170.359 Z M 156.153 169.341 L 153.718 165.302 C 155.011 164.522 156.292 163.679 157.527 162.796 L 160.271 166.633 C 158.937 167.586 157.551 168.498 156.153 169.341 Z M 85.332 166.016 C 84.015 165.044 82.72 164.009 81.483 162.939 L 84.568 159.372 C 85.714 160.362 86.913 161.321 88.133 162.222 L 85.332 166.016 Z M 162.729 164.784 L 159.803 161.084 C 160.988 160.147 162.155 159.149 163.27 158.118 L 166.472 161.58 C 165.268 162.694 164.009 163.772 162.729 164.784 Z M 79.204 160.87 C 78.023 159.746 76.868 158.558 75.77 157.338 L 79.275 154.183 C 80.292 155.313 81.362 156.413 82.456 157.454 L 79.204 160.87 Z M 168.68 159.437 L 165.315 156.132 C 166.377 155.051 167.41 153.915 168.384 152.755 L 171.994 155.79 C 170.942 157.042 169.827 158.268 168.68 159.437 Z M 73.767 155.001 C 72.734 153.734 71.736 152.41 70.802 151.066 L 74.676 148.375 C 75.541 149.621 76.464 150.846 77.421 152.018 L 73.767 155.001 Z M 173.919 153.387 L 170.166 150.529 C 171.087 149.321 171.97 148.064 172.792 146.794 L 176.752 149.356 C 175.865 150.727 174.912 152.083 173.919 153.387 Z M 69.11 148.498 C 68.246 147.114 67.423 145.675 66.665 144.221 L 70.847 142.041 C 71.549 143.386 72.31 144.718 73.111 145.999 L 69.11 148.498 Z M 178.362 146.73 L 174.284 144.362 C 175.045 143.052 175.764 141.695 176.423 140.329 L 180.671 142.377 C 179.961 143.851 179.184 145.316 178.362 146.73 Z M 65.308 141.454 C 64.623 139.967 63.989 138.436 63.422 136.902 L 67.846 135.267 C 68.37 136.687 68.958 138.105 69.592 139.481 L 65.308 141.454 Z M 181.943 139.57 L 177.601 137.728 C 178.193 136.333 178.737 134.897 179.219 133.462 L 183.69 134.96 C 183.17 136.512 182.582 138.063 181.943 139.57 Z M 62.425 133.987 C 61.933 132.427 61.495 130.828 61.125 129.235 L 65.718 128.166 C 66.062 129.642 66.467 131.123 66.922 132.568 L 62.425 133.987 Z M 184.601 132.013 L 180.061 130.733 C 180.474 129.269 180.833 127.776 181.129 126.295 L 185.754 127.22 C 185.434 128.819 185.046 130.432 184.601 132.013 Z M 60.499 126.222 L 60.483 126.135 C 60.195 124.55 59.964 122.94 59.796 121.345 L 64.487 120.852 C 64.642 122.33 64.856 123.822 65.123 125.288 L 60.499 126.222 Z M 186.285 124.181 L 181.621 123.482 C 181.845 121.984 182.013 120.459 182.12 118.947 L 186.825 119.281 C 186.709 120.913 186.528 122.561 186.285 124.181 Z M 59.547 118.274 C 59.479 117.079 59.445 115.863 59.444 114.66 C 59.444 114.221 59.448 113.783 59.457 113.347 L 64.173 113.443 C 64.165 113.848 64.16 114.253 64.16 114.659 C 64.161 115.773 64.193 116.9 64.256 118.007 L 59.547 118.274 Z M 186.968 116.204 L 182.252 116.098 C 182.262 115.667 182.267 115.235 182.267 114.801 C 182.267 113.719 182.236 112.62 182.176 111.536 L 186.886 111.275 C 186.95 112.446 186.983 113.632 186.983 114.801 C 186.983 115.269 186.978 115.738 186.968 116.204 Z M 64.301 110.595 L 59.596 110.269 C 59.709 108.64 59.888 106.991 60.128 105.37 L 64.794 106.061 C 64.571 107.561 64.405 109.087 64.301 110.595 Z M 181.95 108.691 C 181.794 107.188 181.576 105.667 181.304 104.171 L 181.275 104.009 L 185.911 103.145 L 185.945 103.331 C 186.239 104.941 186.473 106.582 186.641 108.203 L 181.95 108.691 Z M 65.282 103.247 L 60.656 102.328 C 60.976 100.721 61.362 99.108 61.804 97.532 L 66.345 98.808 C 65.935 100.266 65.578 101.759 65.282 103.247 Z M 180.689 101.212 C 180.343 99.733 179.936 98.253 179.479 96.812 L 183.975 95.386 C 184.468 96.942 184.908 98.54 185.282 100.137 L 180.689 101.212 Z M 67.182 96.077 L 62.708 94.584 C 63.228 93.028 63.814 91.476 64.45 89.972 L 68.794 91.808 C 68.205 93.201 67.663 94.637 67.182 96.077 Z M 178.552 94.114 C 178.024 92.691 177.434 91.275 176.8 89.903 L 181.081 87.924 C 181.766 89.406 182.403 90.936 182.974 92.473 L 178.552 94.114 Z M 175.541 87.346 C 174.837 86.002 174.074 84.671 173.272 83.391 L 177.269 80.887 C 178.135 82.269 178.96 83.708 179.72 85.161 L 175.541 87.346 Z M 171.703 81.016 C 170.837 79.772 169.911 78.547 168.953 77.376 L 172.603 74.389 C 173.638 75.654 174.638 76.976 175.573 78.32 L 171.703 81.016 Z M 167.097 75.216 C 166.081 74.09 165.009 72.99 163.911 71.947 L 167.159 68.528 C 168.345 69.653 169.502 70.84 170.598 72.055 L 167.097 75.216 Z M 161.794 70.034 C 160.654 69.048 159.454 68.092 158.228 67.189 L 161.023 63.391 C 162.348 64.366 163.645 65.399 164.877 66.464 L 161.794 70.034 Z M 155.889 65.553 C 154.627 64.714 153.317 63.914 151.994 63.174 L 154.295 59.058 C 155.724 59.856 157.138 60.72 158.501 61.626 L 155.889 65.553 Z M 149.47 61.841 C 148.11 61.165 146.709 60.534 145.309 59.967 L 147.076 55.596 C 148.59 56.207 150.102 56.888 151.571 57.619 L 149.47 61.841 Z M 142.638 58.962 C 141.201 58.46 139.732 58.01 138.272 57.624 L 139.478 53.064 C 141.055 53.482 142.641 53.967 144.191 54.507 L 142.638 58.962 Z M 108.901 57.446 L 107.764 52.868 C 109.096 52.537 110.458 52.245 111.811 51.998 L 112.582 51.863 L 113.374 56.513 L 112.654 56.639 C 111.4 56.867 110.137 57.139 108.901 57.446 Z M 135.494 56.962 C 134.016 56.646 132.503 56.385 130.997 56.185 L 131.618 51.51 C 133.245 51.726 134.88 52.008 136.478 52.349 L 135.494 56.962 Z M 116.198 56.103 L 115.632 51.421 C 117.259 51.225 118.911 51.089 120.543 51.018 L 120.748 55.73 C 119.236 55.796 117.705 55.921 116.198 56.103 Z M 128.156 55.879 C 126.643 55.753 125.11 55.685 123.599 55.677 L 123.625 50.96 C 125.257 50.97 126.913 51.042 128.548 51.179 L 128.156 55.879 Z" style="fill: rgb(19, 122, 183);" transform="matrix(1, 0, 0, 1, -2.842170943040401e-14, -1.4210854715202004e-14)"/>
  <path class="st1" d="M 123.172 171.571 C 122.44 171.571 121.711 171.558 120.985 171.53 L 121.162 166.915 C 122.606 166.97 124.065 166.966 125.536 166.901 L 125.814 171.511 L 125.756 171.514 C 124.88 171.553 124.024 171.571 123.172 171.571 Z M 118.939 171.416 C 117.34 171.297 115.732 171.109 114.159 170.857 L 114.889 166.297 C 116.334 166.528 117.812 166.701 119.282 166.81 L 118.939 171.416 Z M 127.841 171.383 L 127.467 166.779 C 128.938 166.66 130.416 166.478 131.859 166.238 L 132.616 170.794 C 131.046 171.055 129.44 171.253 127.841 171.383 Z M 112.141 170.495 C 110.573 170.185 108.999 169.803 107.461 169.36 L 108.739 164.923 C 110.151 165.329 111.597 165.68 113.037 165.964 L 112.141 170.495 Z M 134.633 170.422 L 133.709 165.897 C 135.15 165.603 136.593 165.244 138.001 164.83 L 139.304 169.261 C 137.772 169.711 136.2 170.101 134.633 170.422 Z M 105.498 168.755 C 103.977 168.256 102.46 167.685 100.988 167.059 L 102.798 162.81 C 104.149 163.385 105.541 163.909 106.937 164.366 L 105.498 168.755 Z M 141.259 168.645 L 139.796 164.265 C 141.189 163.8 142.578 163.268 143.925 162.686 L 145.758 166.925 C 144.291 167.559 142.777 168.138 141.259 168.645 Z M 99.114 166.222 C 97.668 165.544 96.231 164.794 94.844 163.993 L 97.153 159.993 C 98.428 160.729 99.747 161.418 101.074 162.04 L 99.114 166.222 Z M 147.619 166.082 L 145.633 161.912 C 146.959 161.281 148.274 160.585 149.542 159.844 L 151.872 163.832 C 150.492 164.638 149.061 165.395 147.619 166.082 Z M 93.086 162.935 C 91.729 162.086 90.394 161.169 89.117 160.21 L 91.891 156.518 C 93.063 157.398 94.29 158.24 95.538 159.022 L 93.086 162.935 Z M 153.62 162.767 L 151.145 158.868 C 152.385 158.081 153.607 157.232 154.778 156.342 L 157.571 160.019 C 156.298 160.987 154.968 161.912 153.62 162.767 Z M 87.501 158.952 C 86.257 157.947 85.042 156.878 83.888 155.772 L 87.083 152.437 C 88.144 153.453 89.261 154.437 90.404 155.36 L 87.501 158.952 Z M 159.179 158.752 L 156.254 155.178 C 157.39 154.249 158.501 153.258 159.557 152.234 L 162.772 155.549 C 161.623 156.663 160.414 157.741 159.179 158.752 Z M 82.434 154.328 C 81.319 153.181 80.24 151.971 79.228 150.737 L 82.8 147.81 C 83.73 148.944 84.721 150.054 85.746 151.11 L 82.434 154.328 Z M 164.217 154.098 L 160.884 150.901 C 161.906 149.835 162.891 148.719 163.812 147.581 L 167.4 150.487 C 166.399 151.725 165.327 152.94 164.217 154.098 Z M 77.96 149.132 C 76.991 147.861 76.065 146.533 75.208 145.184 L 79.105 142.706 C 79.893 143.946 80.743 145.166 81.633 146.334 L 77.96 149.132 Z M 168.662 148.872 L 164.969 146.097 C 165.854 144.921 166.698 143.693 167.479 142.45 L 171.39 144.906 C 170.541 146.257 169.623 147.592 168.662 148.872 Z M 74.142 143.438 C 73.332 142.057 72.574 140.627 71.886 139.184 L 76.056 137.198 C 76.686 138.521 77.383 139.835 78.126 141.103 L 74.142 143.438 Z M 172.449 143.149 L 168.451 140.839 C 169.188 139.563 169.878 138.243 170.502 136.917 L 174.681 138.882 C 174.002 140.326 173.251 141.762 172.449 143.149 Z M 71.04 137.325 C 70.406 135.86 69.825 134.347 69.316 132.828 L 73.694 131.36 C 74.162 132.754 74.695 134.143 75.278 135.488 L 71.04 137.325 Z M 175.522 137.009 L 171.274 135.198 C 171.851 133.845 172.376 132.452 172.835 131.058 L 177.221 132.501 C 176.722 134.02 176.15 135.537 175.522 137.009 Z M 68.7 130.874 C 68.247 129.34 67.855 127.769 67.534 126.203 L 72.058 125.276 C 72.353 126.714 72.713 128.157 73.129 129.565 L 68.7 130.874 Z M 67.158 124.188 C 66.896 122.617 66.695 121.01 66.564 119.414 L 71.167 119.036 C 71.287 120.504 71.471 121.981 71.714 123.425 L 67.158 124.188 Z M 66.434 117.383 L 66.431 117.314 C 66.39 116.397 66.371 115.541 66.371 114.688 C 66.371 113.975 66.384 113.265 66.411 112.557 L 71.025 112.729 C 71.001 113.38 70.989 114.033 70.989 114.688 C 70.989 115.472 71.006 116.259 71.042 117.049 L 66.434 117.383 Z M 71.129 110.85 L 66.523 110.512 C 66.64 108.912 66.827 107.303 67.078 105.729 L 71.639 106.457 C 71.408 107.902 71.237 109.38 71.129 110.85 Z M 71.968 104.605 L 67.437 103.713 C 67.745 102.145 68.125 100.57 68.566 99.034 L 73.005 100.306 C 72.601 101.718 72.251 103.164 71.968 104.605 Z M 73.559 98.502 L 69.17 97.067 C 69.666 95.549 70.235 94.032 70.86 92.557 L 75.112 94.359 C 74.538 95.715 74.015 97.108 73.559 98.502 Z M 75.88 92.637 L 71.698 90.68 C 72.376 89.229 73.125 87.792 73.922 86.408 L 77.923 88.713 C 77.192 89.984 76.504 91.304 75.88 92.637 Z M 78.893 87.097 L 74.976 84.65 C 75.821 83.297 76.737 81.96 77.696 80.678 L 81.393 83.446 C 80.511 84.625 79.67 85.853 78.893 87.097 Z M 82.55 81.96 L 78.955 79.061 C 79.96 77.815 81.028 76.598 82.132 75.444 L 85.47 78.635 C 84.456 79.696 83.473 80.815 82.55 81.96 Z M 163.561 81.569 C 162.625 80.432 161.632 79.323 160.608 78.274 L 163.913 75.05 C 165.027 76.192 166.108 77.397 167.126 78.633 L 163.561 81.569 Z M 86.795 77.299 L 83.573 73.99 C 84.722 72.871 85.93 71.791 87.162 70.781 L 90.091 74.35 C 88.96 75.279 87.851 76.271 86.795 77.299 Z M 159.269 76.95 C 158.205 75.935 157.086 74.954 155.941 74.032 L 158.838 70.436 C 160.082 71.438 161.3 72.505 162.457 73.609 L 159.269 76.95 Z M 91.567 73.181 L 88.765 69.51 C 90.04 68.537 91.368 67.609 92.712 66.754 L 95.192 70.65 C 93.958 71.436 92.738 72.287 91.567 73.181 Z M 154.454 72.879 C 153.274 71.997 152.045 71.157 150.801 70.381 L 153.243 66.463 C 154.598 67.306 155.935 68.22 157.218 69.179 L 154.454 72.879 Z M 96.795 69.667 L 94.457 65.685 C 95.836 64.875 97.265 64.115 98.706 63.425 L 100.7 67.592 C 99.376 68.225 98.062 68.924 96.795 69.667 Z M 149.184 69.414 C 147.907 68.68 146.586 67.994 145.258 67.375 L 147.209 63.189 C 148.655 63.864 150.094 64.611 151.484 65.409 L 149.184 69.414 Z M 102.406 66.814 L 100.565 62.578 C 102.031 61.941 103.543 61.36 105.06 60.849 L 106.532 65.227 C 105.14 65.695 103.752 66.228 102.406 66.814 Z M 143.534 66.608 C 142.18 66.035 140.787 65.514 139.391 65.06 L 140.821 60.669 C 142.342 61.164 143.861 61.731 145.335 62.356 L 143.534 66.608 Z M 108.326 64.66 L 107.015 60.232 C 108.546 59.778 110.116 59.385 111.684 59.061 L 112.616 63.585 C 111.176 63.881 109.733 64.243 108.326 64.66 Z M 137.587 64.508 C 136.172 64.104 134.725 63.757 133.287 63.475 L 134.174 58.943 C 135.739 59.25 137.314 59.628 138.855 60.067 L 137.587 64.508 Z M 114.465 63.238 L 113.699 58.684 C 115.279 58.419 116.886 58.217 118.474 58.087 L 118.853 62.689 C 117.394 62.809 115.918 62.994 114.465 63.238 Z M 131.434 63.146 C 129.984 62.917 128.506 62.747 127.041 62.642 L 127.372 58.036 C 128.968 58.15 130.577 58.335 132.155 58.585 L 131.434 63.146 Z M 120.746 62.565 L 120.504 57.953 L 120.71 57.944 C 122.229 57.875 123.795 57.869 125.329 57.925 L 125.161 62.541 C 123.75 62.49 122.327 62.496 120.892 62.558 L 120.746 62.565 Z" style="fill: rgb(109, 146, 133);" transform="matrix(1, 0, 0, 1, -2.842170943040401e-14, -1.4210854715202004e-14)"/>
  <path class="st0" d="M 143.937 160.152 L 142.06 156.041 C 143.363 155.445 144.654 154.78 145.897 154.062 L 148.158 157.976 C 146.791 158.765 145.37 159.497 143.937 160.152 Z M 149.921 156.909 L 147.499 153.092 C 148.713 152.323 149.902 151.487 151.031 150.608 L 153.805 154.177 C 152.562 155.143 151.256 156.062 149.921 156.909 Z M 155.408 152.878 L 152.49 149.426 C 153.584 148.502 154.648 147.512 155.654 146.485 L 158.884 149.646 C 157.779 150.775 156.61 151.862 155.408 152.878 Z M 160.297 148.141 L 156.939 145.116 C 157.899 144.05 158.82 142.926 159.676 141.773 L 163.304 144.47 C 162.363 145.735 161.352 146.97 160.297 148.141 Z M 164.502 142.785 L 160.765 140.242 C 161.572 139.056 162.332 137.817 163.023 136.56 L 166.984 138.738 C 166.224 140.12 165.389 141.482 164.502 142.785 Z M 167.942 136.905 L 163.894 134.894 C 164.534 133.607 165.117 132.277 165.629 130.941 L 169.85 132.557 C 169.287 134.027 168.645 135.489 167.942 136.905 Z M 170.549 130.609 L 166.265 129.17 C 166.721 127.812 167.116 126.415 167.44 125.018 L 171.843 126.039 C 171.487 127.577 171.051 129.114 170.549 130.609 Z M 172.268 124.019 L 167.827 123.182 C 168.092 121.775 168.292 120.337 168.422 118.906 L 172.924 119.317 C 172.78 120.89 172.56 122.472 172.268 124.019 Z M 173.069 117.256 L 168.554 117.033 C 168.591 116.282 168.61 115.527 168.61 114.767 C 168.61 114.084 168.594 113.4 168.563 112.712 L 168.555 112.525 L 173.071 112.32 L 173.079 112.507 C 173.113 113.266 173.13 114.017 173.13 114.767 C 173.13 115.601 173.109 116.431 173.069 117.256 Z M 168.426 110.659 C 168.299 109.226 168.101 107.786 167.84 106.379 L 172.284 105.554 C 172.571 107.101 172.788 108.682 172.928 110.256 L 168.426 110.659 Z M 167.459 104.541 C 167.139 103.144 166.748 101.746 166.295 100.385 L 170.584 98.959 C 171.082 100.458 171.513 101.996 171.865 103.531 L 167.459 104.541 Z M 165.666 98.617 C 165.158 97.279 164.578 95.947 163.943 94.659 L 167.996 92.659 C 168.695 94.076 169.333 95.541 169.892 97.013 L 165.666 98.617 Z M 80.767 98.603 L 76.543 96.995 C 77.103 95.522 77.742 94.057 78.441 92.642 L 82.494 94.646 C 81.857 95.931 81.277 97.263 80.767 98.603 Z M 163.08 92.997 C 162.39 91.736 161.634 90.496 160.831 89.311 L 164.574 86.775 C 165.456 88.079 166.288 89.443 167.045 90.829 L 163.08 92.997 Z M 83.362 92.977 L 79.396 90.808 C 80.151 89.428 80.984 88.064 81.871 86.756 L 85.612 89.291 C 84.806 90.482 84.049 91.722 83.362 92.977 Z M 159.748 87.779 C 158.895 86.626 157.977 85.499 157.019 84.432 L 160.383 81.413 C 161.436 82.586 162.445 83.824 163.383 85.092 L 159.748 87.779 Z M 86.698 87.757 L 83.065 85.068 C 84.003 83.801 85.012 82.563 86.064 81.39 L 89.428 84.409 C 88.471 85.476 87.552 86.603 86.698 87.757 Z M 155.737 83.06 C 154.733 82.03 153.67 81.039 152.579 80.113 L 155.503 76.666 C 156.702 77.685 157.87 78.774 158.973 79.905 L 155.737 83.06 Z M 90.711 83.039 L 87.475 79.884 C 88.577 78.753 89.744 77.664 90.944 76.645 L 93.869 80.092 C 92.777 81.019 91.714 82.01 90.711 83.039 Z M 151.122 78.926 C 149.992 78.044 148.805 77.206 147.595 76.434 L 150.025 72.623 C 151.356 73.471 152.661 74.393 153.903 75.364 L 151.122 78.926 Z M 95.325 78.907 L 92.545 75.343 C 93.791 74.371 95.096 73.45 96.423 72.605 L 98.852 76.416 C 97.645 77.186 96.458 78.023 95.325 78.907 Z M 145.989 75.455 C 144.748 74.734 143.459 74.064 142.157 73.466 L 144.046 69.359 C 145.477 70.018 146.895 70.755 148.261 71.548 L 145.989 75.455 Z M 100.453 75.441 L 98.184 71.532 C 99.552 70.737 100.971 70.002 102.401 69.347 L 104.285 73.456 C 102.986 74.051 101.697 74.72 100.453 75.441 Z M 140.433 72.717 C 139.105 72.171 137.736 71.684 136.366 71.27 L 137.674 66.944 C 139.183 67.4 140.688 67.935 142.149 68.535 L 140.433 72.717 Z M 106.003 72.708 L 104.289 68.527 C 105.753 67.927 107.26 67.392 108.766 66.938 L 110.07 71.266 C 108.702 71.679 107.333 72.164 106.003 72.708 Z M 111.879 70.763 L 110.754 66.386 C 112.278 65.994 113.843 65.672 115.405 65.426 L 116.105 69.892 C 114.685 70.115 113.263 70.408 111.879 70.763 Z M 134.553 70.762 C 133.167 70.405 131.745 70.112 130.326 69.887 L 131.03 65.423 C 132.59 65.669 134.155 65.992 135.679 66.385 L 134.553 70.762 Z M 117.967 69.638 L 117.45 65.147 C 118.619 65.013 119.811 64.918 120.995 64.865 C 121.395 64.848 121.791 64.835 122.186 64.826 L 122.278 69.346 C 121.916 69.353 121.555 69.365 121.192 69.38 C 120.117 69.429 119.031 69.515 117.967 69.638 Z M 128.466 69.635 C 127.042 69.47 125.593 69.373 124.159 69.345 L 124.247 64.826 C 125.824 64.856 127.418 64.964 128.984 65.144 L 128.466 69.635 Z" style="fill: rgb(19, 122, 183);" transform="matrix(1, 0, 0, 1, -2.842170943040401e-14, -1.4210854715202004e-14)"/>
  <path class="st2" d="M 118.429 157.456 C 116.881 157.285 115.33 157.026 113.821 156.688 L 114.787 152.374 C 116.139 152.676 117.529 152.908 118.917 153.062 L 118.429 157.456 Z M 111.806 156.187 C 110.308 155.775 108.817 155.276 107.375 154.704 L 109.005 150.594 C 110.299 151.107 111.636 151.554 112.979 151.925 L 111.806 156.187 Z M 105.461 153.89 C 104.051 153.249 102.658 152.522 101.319 151.729 L 103.574 147.925 C 104.775 148.637 106.025 149.29 107.29 149.863 L 105.461 153.89 Z M 99.558 150.627 C 98.265 149.774 97.003 148.839 95.806 147.848 L 98.625 144.442 C 99.7 145.332 100.834 146.171 101.993 146.937 L 99.558 150.627 Z M 94.24 146.484 C 93.093 145.439 91.992 144.319 90.966 143.155 L 94.281 140.23 C 95.203 141.274 96.191 142.279 97.219 143.217 L 94.24 146.484 Z M 89.63 141.568 C 88.661 140.357 87.747 139.079 86.915 137.77 L 90.646 135.398 C 91.393 136.572 92.212 137.718 93.082 138.804 L 89.63 141.568 Z M 85.844 135.994 C 85.074 134.644 84.371 133.237 83.755 131.815 L 87.812 130.057 C 88.365 131.332 88.995 132.593 89.685 133.804 L 85.844 135.994 Z M 82.977 129.89 C 82.429 128.436 81.956 126.937 81.572 125.434 L 85.855 124.338 C 86.2 125.685 86.624 127.029 87.114 128.332 L 82.977 129.89 Z M 81.106 123.411 C 80.795 121.893 80.564 120.34 80.418 118.793 L 84.82 118.378 C 84.951 119.767 85.158 121.161 85.438 122.523 L 81.106 123.411 Z M 80.273 116.743 L 80.268 116.62 C 80.24 115.99 80.225 115.343 80.225 114.698 C 80.225 113.821 80.252 112.932 80.306 112.055 L 84.719 112.325 C 84.671 113.112 84.647 113.912 84.647 114.698 C 84.647 115.278 84.66 115.86 84.686 116.444 L 80.273 116.743 Z M 84.877 110.471 L 80.482 109.987 C 80.652 108.442 80.908 106.892 81.245 105.378 L 85.561 106.338 C 85.26 107.694 85.03 109.084 84.877 110.471 Z M 86.009 104.53 L 81.745 103.363 C 82.154 101.864 82.652 100.372 83.225 98.928 L 87.335 100.557 C 86.823 101.851 86.376 103.188 86.009 104.53 Z M 88.064 98.839 L 84.037 97.014 C 84.675 95.604 85.401 94.211 86.192 92.871 L 89.999 95.121 C 89.288 96.324 88.637 97.574 88.064 98.839 Z M 155.742 93.999 C 154.994 92.827 154.173 91.683 153.3 90.597 L 156.746 87.826 C 157.719 89.037 158.635 90.313 159.469 91.619 L 155.742 93.999 Z M 90.987 93.539 L 87.294 91.108 C 88.145 89.815 89.079 88.551 90.07 87.352 L 93.479 90.167 C 92.589 91.245 91.751 92.379 90.987 93.539 Z M 152.097 89.172 C 151.174 88.13 150.184 87.128 149.154 86.191 L 152.127 82.919 C 153.275 83.962 154.379 85.08 155.407 86.242 L 152.097 89.172 Z M 94.7 88.762 L 91.43 85.785 C 92.475 84.638 93.594 83.535 94.755 82.507 L 97.685 85.82 C 96.642 86.742 95.638 87.732 94.7 88.762 Z M 147.744 84.969 C 146.672 84.085 145.537 83.248 144.372 82.481 L 146.8 78.787 C 148.099 79.641 149.364 80.574 150.558 81.559 L 147.744 84.969 Z M 99.109 84.621 L 96.343 81.171 C 97.556 80.199 98.832 79.284 100.138 78.452 L 102.514 82.181 C 101.343 82.927 100.197 83.748 99.109 84.621 Z M 142.788 81.496 C 141.589 80.788 140.338 80.138 139.07 79.565 L 140.89 75.535 C 142.304 76.174 143.699 76.899 145.037 77.688 L 142.788 81.496 Z M 104.107 81.219 L 101.913 77.38 C 103.261 76.609 104.667 75.906 106.091 75.288 L 107.851 79.343 C 106.576 79.897 105.316 80.528 104.107 81.219 Z M 137.354 78.838 C 136.052 78.326 134.714 77.88 133.376 77.516 L 134.541 73.249 C 136.032 73.657 137.523 74.152 138.973 74.723 L 137.354 78.838 Z M 109.577 78.644 L 108.015 74.507 C 109.471 73.958 110.969 73.484 112.469 73.099 L 113.57 77.38 C 112.225 77.727 110.881 78.152 109.577 78.644 Z M 131.568 77.069 C 130.215 76.769 128.825 76.541 127.436 76.389 L 127.915 71.994 C 129.464 72.162 131.015 72.418 132.525 72.753 L 131.568 77.069 Z M 115.385 76.96 L 114.492 72.631 C 116.009 72.317 117.563 72.084 119.11 71.937 L 119.527 76.339 C 118.139 76.471 116.745 76.68 115.385 76.96 Z M 125.581 76.233 C 124.229 76.153 122.867 76.139 121.501 76.202 L 121.392 76.207 L 121.176 71.791 L 121.292 71.785 C 122.837 71.716 124.339 71.729 125.845 71.819 L 125.581 76.233 Z" style="fill: rgb(55, 167, 223);" transform="matrix(1, 0, 0, 1, -2.842170943040401e-14, -1.4210854715202004e-14)"/>
  <path class="st0" d="M 123.601 150.788 L 123.556 146.465 C 123.911 146.462 124.266 146.451 124.623 146.435 C 125.61 146.391 126.603 146.301 127.574 146.167 L 128.162 150.451 C 127.061 150.601 125.936 150.704 124.818 150.755 C 124.411 150.773 124.005 150.784 123.601 150.788 Z M 121.524 150.751 C 120.002 150.682 118.471 150.514 116.974 150.252 L 117.718 145.993 C 119.035 146.224 120.382 146.372 121.721 146.433 L 121.524 150.751 Z M 130.215 150.108 L 129.379 145.867 C 130.698 145.607 132.008 145.261 133.272 144.839 L 134.641 148.94 C 133.202 149.42 131.714 149.813 130.215 150.108 Z M 114.935 149.835 C 113.452 149.485 111.977 149.037 110.551 148.502 L 112.071 144.454 C 113.325 144.925 114.621 145.32 115.925 145.626 L 114.935 149.835 Z M 136.596 148.225 L 134.992 144.211 C 136.236 143.714 137.458 143.132 138.627 142.481 L 140.731 146.258 C 139.402 146.999 138.01 147.66 136.596 148.225 Z M 108.623 147.714 C 107.235 147.099 105.869 146.386 104.563 145.595 L 106.803 141.897 C 107.952 142.593 109.154 143.22 110.375 143.761 L 108.623 147.714 Z M 142.516 145.195 L 140.2 141.545 C 141.329 140.828 142.424 140.032 143.455 139.177 L 146.215 142.504 C 145.044 143.476 143.799 144.381 142.516 145.195 Z M 102.815 144.468 C 101.566 143.609 100.355 142.66 99.216 141.647 L 102.091 138.417 C 103.095 139.311 104.162 140.148 105.263 140.904 L 102.815 144.468 Z M 147.777 141.131 L 144.831 137.967 C 145.81 137.055 146.742 136.071 147.601 135.041 L 150.922 137.808 C 149.947 138.978 148.889 140.096 147.777 141.131 Z M 97.703 140.216 C 96.626 139.139 95.609 137.984 94.679 136.784 L 98.098 134.137 C 98.916 135.194 99.812 136.211 100.76 137.159 L 97.703 140.216 Z M 152.207 136.172 L 148.732 133.601 C 149.531 132.52 150.268 131.381 150.921 130.216 L 154.692 132.329 C 153.951 133.653 153.115 134.946 152.207 136.172 Z M 155.657 130.484 L 151.77 128.592 C 152.356 127.39 152.87 126.135 153.298 124.865 L 157.395 126.247 C 156.908 127.691 156.323 129.117 155.657 130.484 Z M 158.004 124.252 L 153.833 123.112 C 154.186 121.822 154.459 120.496 154.645 119.169 L 158.926 119.768 C 158.715 121.277 158.405 122.786 158.004 124.252 Z M 159.155 117.699 L 154.846 117.348 C 154.916 116.491 154.951 115.619 154.951 114.756 C 154.951 114.279 154.941 113.8 154.919 113.32 L 154.913 113.198 L 159.232 112.996 L 159.238 113.126 C 159.262 113.672 159.274 114.216 159.274 114.756 C 159.274 115.736 159.234 116.726 159.155 117.699 Z M 154.773 111.369 C 154.632 110.034 154.405 108.697 154.098 107.398 L 158.306 106.404 C 158.655 107.881 158.913 109.399 159.073 110.914 L 154.773 111.369 Z M 153.627 105.629 C 153.243 104.345 152.774 103.074 152.231 101.852 L 156.182 100.098 C 156.799 101.487 157.333 102.932 157.769 104.393 L 153.627 105.629 Z M 151.44 100.204 C 150.829 99.018 150.133 97.856 149.372 96.752 L 152.933 94.299 C 153.798 95.555 154.588 96.876 155.284 98.226 L 151.44 100.204 Z M 148.292 95.275 C 147.469 94.216 146.571 93.201 145.624 92.257 L 148.675 89.194 C 149.751 90.266 150.77 91.42 151.705 92.621 L 148.292 95.275 Z M 144.291 91 C 143.287 90.109 142.219 89.275 141.115 88.521 L 143.555 84.951 C 144.808 85.808 146.022 86.755 147.161 87.767 L 144.291 91 Z M 139.571 87.53 C 138.424 86.838 137.221 86.213 135.996 85.673 L 137.741 81.718 C 139.133 82.332 140.5 83.042 141.804 83.828 L 139.571 87.53 Z M 134.298 84.983 C 133.045 84.515 131.748 84.123 130.443 83.819 L 131.424 79.609 C 132.909 79.955 134.385 80.4 135.811 80.934 L 134.298 84.983 Z" style="fill: rgb(19, 122, 183);" transform="matrix(1, 0, 0, 1, -2.842170943040401e-14, -1.4210854715202004e-14)"/>
  <path class="st1" d="M 117.943 143.888 C 116.458 143.62 114.982 143.236 113.555 142.743 L 114.932 138.75 C 116.154 139.171 117.42 139.5 118.692 139.729 L 117.943 143.888 Z M 111.584 141.983 C 110.197 141.391 108.844 140.684 107.564 139.886 L 109.8 136.301 C 110.897 136.985 112.056 137.59 113.245 138.098 L 111.584 141.983 Z M 105.816 138.709 C 104.598 137.824 103.436 136.837 102.365 135.777 L 105.337 132.774 C 106.257 133.684 107.254 134.532 108.3 135.292 L 105.816 138.709 Z M 100.92 134.241 C 99.926 133.107 99.012 131.887 98.203 130.618 L 101.768 128.349 C 102.461 129.437 103.245 130.482 104.098 131.456 L 100.92 134.241 Z M 97.136 128.799 C 96.418 127.471 95.799 126.078 95.295 124.659 L 99.276 123.244 C 99.708 124.46 100.239 125.654 100.853 126.792 L 97.136 128.799 Z M 94.66 122.646 C 94.26 121.198 93.968 119.702 93.792 118.201 L 97.988 117.71 C 98.139 118.997 98.39 120.279 98.733 121.522 L 94.66 122.646 Z M 93.622 116.126 L 93.616 115.953 C 93.598 115.6 93.588 115.153 93.588 114.709 C 93.588 113.661 93.644 112.607 93.753 111.573 L 97.955 112.02 C 97.861 112.905 97.813 113.81 97.813 114.709 C 97.813 115.09 97.822 115.473 97.839 115.858 L 93.622 116.126 Z M 98.21 110.231 L 94.051 109.486 C 94.317 107.999 94.701 106.521 95.191 105.096 L 99.187 106.47 C 98.767 107.692 98.438 108.956 98.21 110.231 Z M 147.137 106.173 C 146.701 104.956 146.168 103.763 145.552 102.627 L 149.265 100.612 C 149.985 101.938 150.607 103.33 151.115 104.749 L 147.137 106.173 Z M 99.836 104.782 L 95.949 103.124 C 96.54 101.74 97.244 100.388 98.042 99.104 L 101.63 101.336 C 100.945 102.435 100.342 103.595 99.836 104.782 Z M 144.634 101.072 C 143.938 99.984 143.153 98.939 142.298 97.968 L 145.472 95.177 C 146.467 96.31 147.383 97.527 148.194 98.796 L 144.634 101.072 Z M 102.64 99.834 L 99.219 97.354 C 100.102 96.136 101.088 94.973 102.148 93.9 L 105.154 96.869 C 104.243 97.79 103.398 98.788 102.64 99.834 Z M 141.057 96.653 C 140.136 95.744 139.137 94.899 138.09 94.141 L 140.568 90.719 C 141.788 91.602 142.951 92.586 144.024 93.646 L 141.057 96.653 Z M 106.471 95.629 L 103.682 92.455 C 104.816 91.459 106.034 90.544 107.304 89.735 L 109.576 93.297 C 108.487 93.991 107.443 94.775 106.471 95.629 Z M 136.587 93.132 C 135.487 92.45 134.327 91.848 133.14 91.343 L 134.793 87.455 C 136.179 88.044 137.532 88.746 138.816 89.544 L 136.587 93.132 Z M 111.132 92.38 L 109.12 88.665 C 110.445 87.947 111.838 87.326 113.259 86.82 L 114.678 90.8 C 113.46 91.233 112.267 91.765 111.132 92.38 Z M 131.451 90.695 C 130.23 90.276 128.964 89.949 127.69 89.722 L 128.431 85.562 C 129.918 85.826 131.395 86.209 132.821 86.698 L 131.451 90.695 Z M 116.4 90.255 L 115.272 86.182 C 116.719 85.781 118.215 85.489 119.716 85.311 L 120.212 89.506 C 118.923 89.659 117.641 89.91 116.4 90.255 Z M 125.901 89.469 C 124.645 89.335 123.365 89.3 122.083 89.355 L 121.916 87.247 L 121.835 85.136 L 121.91 85.134 C 123.366 85.07 124.881 85.113 126.342 85.266 L 125.901 89.469 Z" style="fill: rgb(109, 146, 133);" transform="matrix(1, 0, 0, 1, -2.842170943040401e-14, -1.4210854715202004e-14)"/>
  <path class="st0" d="M 123.197 137.918 L 123.104 133.792 C 123.483 133.792 123.771 133.785 124.06 133.773 C 124.976 133.731 125.892 133.625 126.783 133.457 L 127.549 137.512 C 126.466 137.716 125.355 137.845 124.245 137.895 C 123.895 137.911 123.545 137.918 123.197 137.918 Z M 120.965 137.811 C 119.475 137.668 117.996 137.379 116.568 136.952 L 117.751 132.998 C 118.923 133.348 120.137 133.586 121.36 133.704 L 120.965 137.811 Z M 129.628 137.02 L 128.489 133.053 C 129.668 132.714 130.818 132.259 131.908 131.7 L 133.793 135.371 C 132.465 136.052 131.063 136.607 129.628 137.02 Z M 114.552 136.245 C 113.169 135.688 111.833 134.992 110.581 134.178 L 112.832 130.718 C 113.861 131.388 114.959 131.96 116.096 132.419 L 114.552 136.245 Z M 135.644 134.309 L 133.431 130.826 C 134.465 130.168 135.441 129.407 136.331 128.561 L 139.173 131.553 C 138.09 132.582 136.903 133.509 135.644 134.309 Z M 108.847 132.932 C 107.677 132.008 106.59 130.966 105.618 129.835 L 108.747 127.144 C 109.547 128.075 110.442 128.933 111.406 129.694 L 108.847 132.932 Z M 140.652 130.016 L 137.549 127.296 C 138.358 126.372 139.082 125.367 139.699 124.306 L 143.265 126.383 C 142.515 127.671 141.636 128.893 140.652 130.016 Z M 104.303 128.153 C 103.437 126.937 102.687 125.63 102.073 124.271 L 105.834 122.573 C 106.338 123.689 106.955 124.761 107.666 125.762 L 104.303 128.153 Z M 144.252 124.491 L 140.511 122.748 C 141.028 121.639 141.438 120.472 141.73 119.28 L 145.738 120.263 C 145.382 121.716 144.882 123.138 144.252 124.491 Z M 101.285 122.286 C 100.8 120.877 100.451 119.412 100.246 117.929 L 104.334 117.365 C 104.502 118.582 104.789 119.786 105.188 120.942 L 101.285 122.286 Z M 146.15 118.167 L 142.068 117.561 C 142.205 116.634 142.275 115.687 142.275 114.746 C 142.275 114.46 142.27 114.172 142.257 113.884 L 146.375 113.604 L 146.38 113.717 C 146.395 114.049 146.403 114.398 146.403 114.746 C 146.402 115.889 146.318 117.041 146.15 118.167 Z M 142.089 112.057 C 141.918 110.839 141.629 109.636 141.229 108.48 L 145.128 107.131 C 145.615 108.537 145.968 110.002 146.176 111.483 L 142.089 112.057 Z M 140.578 106.852 C 140.071 105.736 139.452 104.664 138.739 103.666 L 142.097 101.268 C 142.965 102.482 143.718 103.787 144.335 105.146 L 140.578 106.852 Z M 137.656 102.287 C 136.853 101.357 135.956 100.5 134.991 99.741 L 137.544 96.498 C 138.715 97.42 139.804 98.46 140.779 99.588 L 137.656 102.287 Z" style="fill: rgb(19, 122, 183);" transform="matrix(1, 0, 0, 1, -2.842170943040401e-14, -1.4210854715202004e-14)"/>
  <path class="st2" d="M 126.2 131.715 L 125.506 127.747 C 126.653 127.546 127.767 127.195 128.818 126.702 L 130.529 130.35 C 129.155 130.994 127.699 131.453 126.2 131.715 Z M 132.469 129.281 L 130.306 125.882 C 131.286 125.258 132.181 124.506 132.968 123.645 L 135.941 126.363 C 134.916 127.486 133.747 128.467 132.469 129.281 Z M 137.329 124.635 L 134.033 122.318 C 134.704 121.363 135.245 120.326 135.641 119.236 L 139.427 120.612 C 138.911 122.035 138.205 123.388 137.329 124.635 Z M 140.048 118.482 L 136.116 117.607 C 136.324 116.671 136.43 115.706 136.43 114.741 C 136.43 114.541 136.425 114.342 136.416 114.141 L 139.105 113.979 L 140.441 113.957 C 140.452 114.224 140.458 114.484 140.458 114.741 C 140.458 116 140.32 117.259 140.048 118.482 Z M 105.987 115.507 C 105.975 115.235 105.97 114.977 105.97 114.718 C 105.97 113.471 106.104 112.226 106.371 111.013 L 110.306 111.878 C 110.101 112.806 109.998 113.762 109.998 114.718 C 109.998 114.917 110.003 115.118 110.011 115.318 L 105.987 115.507 Z M 136.223 112.397 C 136.02 111.252 135.666 110.139 135.169 109.089 L 138.811 107.367 C 139.461 108.741 139.924 110.196 140.19 111.693 L 136.223 112.397 Z M 110.778 110.247 L 106.988 108.879 C 107.503 107.453 108.206 106.098 109.078 104.851 L 112.379 107.16 C 111.711 108.116 111.172 109.154 110.778 110.247 Z M 134.346 107.604 C 133.72 106.627 132.964 105.733 132.1 104.947 L 134.81 101.967 C 135.935 102.99 136.92 104.155 137.737 105.429 L 134.346 107.604 Z M 113.442 105.833 L 110.462 103.121 C 111.485 101.998 112.651 101.014 113.927 100.197 L 116.099 103.59 C 115.12 104.216 114.226 104.971 113.442 105.833 Z M 130.77 103.887 C 129.816 103.22 128.777 102.683 127.683 102.289 L 129.048 98.498 C 130.476 99.013 131.832 99.714 133.077 100.584 L 130.77 103.887 Z M 117.585 102.768 L 115.867 99.124 C 117.239 98.477 118.694 98.015 120.192 97.75 L 120.895 101.717 C 119.748 101.92 118.634 102.273 117.585 102.768 Z M 126.052 101.818 C 124.938 101.575 123.794 101.472 122.629 101.527 L 122.365 97.506 L 122.537 97.5 C 122.706 97.491 122.966 97.485 123.224 97.485 C 124.467 97.485 125.708 97.618 126.913 97.882 L 126.052 101.818 Z" style="fill: rgb(55, 167, 223);" transform="matrix(1, 0, 0, 1, -2.842170943040401e-14, -1.4210854715202004e-14)"/>
  <path class="st0" d="M 123.214 126.521 C 122.803 126.521 122.396 126.5 121.996 126.459 L 122.4 122.55 C 123.477 122.661 124.607 122.546 125.65 122.206 L 126.866 125.944 C 125.689 126.327 124.46 126.521 123.214 126.521 Z M 119.584 125.951 C 118.004 125.441 116.575 124.616 115.336 123.502 L 117.964 120.58 C 118.79 121.323 119.742 121.872 120.792 122.211 L 119.584 125.951 Z M 129.118 124.938 L 127.148 121.537 C 128.092 120.99 128.932 120.232 129.577 119.347 L 132.755 121.659 C 131.777 123.003 130.553 124.106 129.118 124.938 Z M 113.686 121.677 C 112.703 120.331 112.029 118.825 111.682 117.2 L 115.526 116.381 C 115.757 117.461 116.205 118.463 116.86 119.359 L 113.686 121.677 Z M 133.988 119.525 L 130.399 117.925 C 130.847 116.918 131.075 115.843 131.075 114.73 L 134.561 114.696 L 135.004 114.697 C 135.005 116.399 134.663 118.012 133.988 119.525 Z M 111.423 114.749 L 111.423 114.73 C 111.423 113.072 111.761 111.466 112.428 109.957 L 116.023 111.548 C 115.579 112.552 115.353 113.623 115.353 114.73 L 111.423 114.749 Z M 130.898 113.064 C 130.665 111.985 130.214 110.983 129.558 110.088 L 132.728 107.764 C 133.713 109.108 134.39 110.613 134.741 112.235 L 130.898 113.064 Z M 116.841 110.126 L 113.659 107.819 C 114.62 106.492 115.875 105.356 117.289 104.534 L 119.266 107.931 C 118.323 108.48 117.484 109.239 116.841 110.126 Z M 128.453 108.871 C 127.624 108.129 126.671 107.582 125.619 107.245 L 126.822 103.502 C 128.401 104.01 129.831 104.83 131.073 105.941 L 128.453 108.871 Z M 120.762 107.259 L 119.539 103.524 C 121.101 103.012 122.796 102.838 124.405 102.999 L 124.016 106.91 C 122.936 106.803 121.803 106.917 120.762 107.259 Z" style="fill: rgb(19, 122, 183);" transform="matrix(1, 0, 0, 1, -2.842170943040401e-14, -1.4210854715202004e-14)"/>
  <path class="st3" d="M 107.557 30.051 C 108.724 29.904 109.932 29.901 111.05 29.584 C 114.813 28.516 118.673 28.195 122.543 27.939 C 123.907 27.849 125.283 27.914 126.651 27.966 C 126.909 27.976 127.156 28.261 127.408 28.419 C 127.236 28.619 127.064 28.82 126.718 29.224 C 128.108 29.381 129.416 29.439 130.686 29.69 C 133.086 30.166 135.462 30.765 137.853 31.284 C 138.482 31.421 139.146 31.888 139.635 30.824 C 139.779 30.512 140.965 30.509 141.622 30.636 C 143.116 30.923 144.57 31.408 146.054 31.758 C 148.291 32.286 150.549 32.726 152.777 33.284 C 154.143 33.626 155.493 34.061 156.807 34.568 L 158.033 36.629 C 159.6 38.087 161.204 39.65 162.892 41.115 C 163.597 41.726 164.256 42.224 164.581 43.208 C 164.842 43.997 165.592 44.639 166.171 45.305 C 166.583 45.778 167.154 46.124 167.514 46.627 C 169.443 49.323 172.256 51.09 174.556 53.393 C 174.404 53.603 174.252 53.814 174.172 53.925 C 175.348 56.254 177.697 56.538 179.86 57.172 C 181.106 57.537 182.372 57.864 183.567 58.359 C 183.883 58.49 184.22 59.259 184.114 59.602 C 183.726 60.858 183.345 62.189 182.609 63.248 C 181.39 65.003 179.542 65.904 177.393 66.148 C 175.95 66.312 174.652 66.816 173.646 67.921 C 173.596 67.976 173.545 68.073 173.492 68.074 C 171.683 68.123 171.095 69.778 169.992 70.745 C 169.12 71.51 169.11 72.417 169.81 73.349 C 169.957 73.545 170.073 73.936 169.976 74.117 C 169.161 75.648 170.199 76.9 170.539 78.256 C 170.687 78.845 170.921 79.443 170.914 80.034 C 170.899 81.521 170.754 83.005 170.692 84.492 C 170.651 85.466 169.287 86.973 168.151 86.964 C 165.814 86.947 163.971 88.163 162.081 89.231 C 161.742 89.423 161.486 90.324 161.639 90.726 C 162.238 92.299 162.024 93.846 161.69 95.383 C 161.615 95.725 161.038 96.068 160.624 96.202 C 159.885 96.442 159.084 96.486 158.327 96.681 C 157.711 96.839 157.074 96.984 157.514 97.956 C 157.785 98.555 156.183 101.363 155.586 101.784 C 154.928 102.248 154.289 102.764 153.733 103.345 C 151.733 105.434 149.47 107.105 146.52 107.4 C 145.389 107.512 144.208 106.993 143.049 106.99 C 141.993 106.988 140.912 107.211 139.886 107.491 C 138.946 107.747 137.419 107.297 137.17 106.347 C 136.97 105.584 137.139 104.728 137.114 103.914 C 137.097 103.344 137.184 102.703 136.957 102.22 C 136.025 100.239 134.754 98.386 134.058 96.333 C 133.326 94.175 133.128 91.838 132.651 89.589 C 132.472 88.744 132.219 87.904 131.899 87.102 C 131.541 86.207 131.086 85.348 130.641 84.49 C 130.251 83.739 129.838 82.999 129.399 82.276 C 128.642 81.028 128.702 79.698 129.112 78.403 C 129.647 76.713 130.107 74.992 131.523 73.695 C 132.234 73.044 132.292 72.102 131.691 71.156 C 131.21 70.399 130.567 69.678 131.183 68.533 C 131.427 68.082 130.88 67.134 130.57 66.469 C 129.61 64.408 128.451 62.492 126.448 61.234 C 126.078 61.002 125.799 60.619 125.493 60.293 C 124.781 59.535 124.287 58.879 125.015 57.692 C 125.596 56.746 125.658 55.478 125.928 54.347 C 125.967 54.185 125.921 53.973 125.846 53.817 C 125.529 53.161 123.615 52.31 122.869 52.457 C 122.289 52.572 121.696 52.626 121.123 52.765 C 120.162 52.998 119.446 52.683 118.912 51.882 C 118.343 51.029 117.601 50.733 116.539 50.81 C 113.961 50.995 111.61 51.81 109.266 52.844 C 108.195 53.316 106.872 53.19 105.684 53.432 C 104.096 53.755 102.432 53.958 100.977 54.608 C 99.355 55.333 97.921 55.511 96.278 54.804 C 95.2 54.34 93.979 54.216 92.877 53.795 C 92.323 53.584 91.88 53.062 91.412 52.652 C 91.259 52.517 91.229 52.2 91.067 52.121 C 90.078 51.638 89.099 51.087 88.051 50.785 C 87.319 50.573 86.956 50.338 86.955 49.546 C 86.954 49.123 86.742 48.7 86.596 48.173 C 87.782 47.205 88.588 45.732 88.85 43.988 C 88.907 43.608 88.595 43.184 88.52 42.768 C 88.48 42.546 88.498 42.21 88.635 42.076 C 89.557 41.176 90.51 40.307 91.469 39.446 C 92.206 38.783 92.894 38.023 93.733 37.523 C 95.479 36.482 97.332 35.62 99.096 34.605 C 99.618 34.304 99.944 33.68 100.437 33.308 C 101.142 32.776 101.881 32.264 102.672 31.879 C 103.855 31.302 105.096 30.842 106.467 30.267 L 107.557 30.051 Z" style="fill: rgb(255, 255, 255);" transform="matrix(1, 0, 0, 1, -2.842170943040401e-14, -1.4210854715202004e-14)"/>
  <path class="st3" d="M 89.831 169.475 C 90.382 169.938 90.944 170.391 91.481 170.871 C 91.702 171.068 91.961 171.294 92.048 171.558 C 92.548 173.058 93.773 173.672 95.291 173.679 C 96.591 173.685 97.899 174.143 99.184 174.476 C 99.863 174.653 100.481 175.063 101.16 175.242 C 103.055 175.74 104.032 177.196 104.915 178.742 C 105.37 179.539 105.724 180.393 106.203 181.384 C 106.147 181.396 106.386 181.357 106.617 181.289 C 107.208 181.114 107.791 180.723 108.092 181.753 C 108.172 182.025 108.937 182.301 109.333 182.237 C 110.553 182.039 111.753 181.701 112.948 181.373 C 113.93 181.104 114.894 180.771 115.947 180.441 C 115.91 179.905 114.328 178.976 115.89 178.527 C 116.266 177.379 116.58 176.419 116.912 175.403 C 116.513 175.131 116.09 174.842 115.936 174.737 C 115.181 174.889 114.595 175.204 114.198 175.046 C 113.392 174.726 113.329 174.02 113.378 173.115 C 113.444 171.909 113.755 171.076 114.678 170.25 C 115.284 169.708 115.509 168.706 115.801 167.873 C 115.885 167.634 115.559 167.277 115.507 166.959 C 115.435 166.513 115.338 166.029 115.44 165.607 C 115.609 164.909 116.029 164.267 116.163 163.567 C 116.417 162.245 117.217 163.371 117.735 163.152 C 117.803 162.827 117.874 162.489 117.945 162.151 C 117.989 162.255 118.032 162.359 118.076 162.463 C 118.765 162.361 119.454 162.261 120.143 162.156 C 120.253 162.139 120.371 162.057 120.466 162.082 C 122.121 162.505 123.211 161.283 124.47 160.646 C 125.742 160.002 125.928 159.938 126.841 161.171 C 127.056 161.009 127.275 160.851 127.487 160.683 C 127.715 160.5 128.033 160.099 128.146 160.152 C 129.227 160.656 130.337 159.736 131.38 160.241 C 131.902 160.494 132.375 160.849 132.821 161.245 C 135.208 161.49 137.681 161.802 139.637 159.862 C 140.209 160.636 140.728 161.337 141.188 161.959 C 142.534 161.754 143.85 161.516 145.177 161.361 C 146.219 161.24 147.274 161.233 148.321 161.151 C 148.813 161.113 149.301 160.961 149.791 160.962 C 150.552 160.962 151.361 160.905 152.057 161.142 C 152.633 161.339 152.885 161.842 152.634 162.681 C 152.382 163.522 152.576 164.543 152.777 165.439 C 152.829 165.667 153.651 165.722 154.204 165.88 C 154.451 166.427 154.754 167.098 155.064 167.785 C 154.388 168.75 153.658 169.62 152.289 169.517 C 152.103 169.502 151.737 169.682 151.732 169.787 C 151.69 170.602 150.991 170.554 150.515 170.83 C 150.248 170.985 150.098 171.339 149.895 171.604 C 150.214 171.704 150.547 171.917 150.85 171.882 C 151.473 171.809 152.103 171.663 152.689 171.438 C 153.523 171.119 154.281 170.874 155.025 171.649 C 155.179 171.809 155.585 171.75 155.874 171.752 C 156.861 171.757 157.86 171.65 158.827 171.783 C 159.225 171.839 159.536 172.419 159.917 172.723 C 160.334 173.056 160.787 173.345 161.186 173.627 C 159.949 175.048 161.256 176.772 161.106 178.45 C 161.875 178.642 162.548 178.809 163.431 179.029 C 162.785 179.589 162.274 180.057 161.736 180.492 C 160.985 181.098 160.876 181.812 161.486 182.523 C 162.054 183.186 161.909 183.571 161.246 184.034 C 160.587 184.495 159.949 185.025 159.428 185.633 C 159.141 185.967 159.113 186.523 159.114 187.039 C 158.25 188.524 156.903 189.741 156.173 191.653 C 155.12 191.603 154.036 192.25 153.018 193.194 C 152.126 194.022 151.084 194.515 149.749 194.675 C 148.277 194.852 146.889 195.663 145.44 196.123 C 144.494 196.423 143.514 196.634 142.535 196.805 C 140.818 197.105 139.094 197.369 137.366 197.594 C 136.723 197.677 136.061 197.607 135.238 197.607 C 135.349 197.024 135.318 196.542 135.525 196.207 C 136.446 194.716 135.833 193.436 134.016 193.173 C 133.808 193.142 133.599 193.121 133.203 193.074 C 133.61 192.699 133.892 192.44 134.177 192.178 C 133.292 190.138 128.548 188.544 126.419 189.634 C 125.432 188.521 124.287 187.726 122.463 188.249 C 123.392 188.975 123.734 189.638 122.934 190.517 C 122.76 190.709 122.909 191.195 122.909 191.61 C 122.309 191.583 121.669 191.498 121.041 191.554 C 120.77 191.578 120.524 191.894 120.267 192.077 C 120.501 192.328 120.714 192.604 120.973 192.825 C 121.433 193.218 121.951 193.548 122.376 193.973 C 122.492 194.09 122.365 194.451 122.356 194.586 C 121.006 194.516 119.725 194.449 118.443 194.385 C 118.295 194.377 118.125 194.34 118 194.395 C 117.613 194.567 117.192 195.004 116.874 194.934 C 115.011 194.52 113.076 194.21 111.353 193.443 C 109.396 192.572 107.637 191.256 105.784 190.129 C 106.73 188.759 105.026 188.031 104.952 186.627 C 104.457 186.852 104.051 187.064 103.625 187.223 C 103.185 187.387 102.722 187.607 102.276 187.591 C 102.025 187.581 101.617 187.162 101.591 186.897 C 101.558 186.559 101.841 186.191 102.018 185.763 C 101.539 185.078 100.991 184.294 100.361 183.393 C 100.59 182.956 100.925 182.316 101.283 181.63 C 101.048 181.43 100.83 181.246 100.178 180.692 C 100.524 180.295 100.816 179.96 101.251 179.462 C 100.705 178.36 100.452 176.041 97.655 176.303 C 98.152 176.548 98.7 176.707 99.092 177.047 C 99.384 177.301 99.63 177.799 99.604 178.168 C 99.585 178.452 99.128 178.895 98.835 178.921 C 98.508 178.949 97.906 178.643 97.844 178.382 C 97.593 177.325 96.674 177.278 95.95 176.911 C 95.46 176.664 94.997 176.363 94.523 176.085 C 94.568 175.993 94.614 175.9 94.66 175.807 C 95.123 175.875 95.587 175.943 96.05 176.011 C 96.08 175.95 96.111 175.89 96.141 175.829 C 95.153 175.266 94.16 174.713 93.181 174.134 C 92.739 173.872 92.245 173.63 91.919 173.253 C 91.214 172.441 90.555 171.578 89.979 170.671 C 89.783 170.363 89.892 169.862 89.862 169.449 C 89.862 169.449 89.831 169.475 89.831 169.475 Z" style="fill: rgb(255, 255, 255);" transform="matrix(1, 0, 0, 1, -2.842170943040401e-14, -1.4210854715202004e-14)"/>
  <path class="st3" d="M 65.545 161.501 C 65.305 161.724 65.149 161.869 65.034 161.976 C 64.252 161.104 63.156 160.364 62.81 159.364 C 62.443 158.305 61.892 157.511 61.188 156.74 C 61.01 156.546 60.785 156.395 60.393 156.394 C 60.764 156.881 61.134 157.368 61.505 157.855 C 61.415 157.927 61.325 157.999 61.236 158.071 C 60.088 156.747 58.937 155.425 57.796 154.095 C 57.604 153.871 57.512 153.522 57.282 153.376 C 55.585 152.3 54.92 150.454 53.888 148.887 C 52.231 146.371 50.494 143.897 49.006 141.283 C 47.591 138.797 46.437 136.16 45.196 133.576 C 44.389 131.897 43.633 130.193 42.853 128.5 C 42.461 127.649 41.883 127.527 41.135 128.062 C 39.944 128.913 39.956 128.906 39.298 127.625 C 38.908 126.864 38.482 126.121 38.054 125.38 C 36.805 123.214 36.822 120.793 36.772 118.43 C 36.585 109.664 37.414 100.991 39.656 92.497 C 40.194 90.456 41.053 88.492 41.863 86.533 C 42.179 85.768 42.726 85.122 43.786 85.738 C 43.943 85.829 44.538 85.318 44.828 84.995 C 45.37 84.391 45.773 83.653 46.352 83.093 C 47.174 82.296 47.729 82.634 48.193 83.657 C 48.676 84.72 48.752 85.676 48.399 86.788 C 48.785 86.462 49.171 86.135 49.581 85.789 C 49.726 85.921 49.874 86.056 50.032 86.201 C 50.809 84.561 52.886 83.702 53.526 84.607 C 54.934 83.655 56.29 82.615 57.77 81.8 C 58.307 81.505 59.168 81.627 59.832 81.778 C 60.678 81.969 61.43 82.033 62.166 81.503 C 62.656 81.15 62.912 81.335 63.171 81.867 C 64.041 83.655 63.768 85.393 63.121 87.16 C 62.305 89.387 61.506 91.621 60.764 93.874 C 60.624 94.301 60.712 94.843 60.818 95.304 C 61.581 98.622 61.97 101.96 61.541 105.364 C 61.414 106.368 61.788 107.347 61.372 108.423 C 61.119 109.078 60.859 109.593 60.44 110.159 C 58.757 112.432 57.526 114.916 57.576 117.849 C 57.58 118.141 57.615 118.467 57.749 118.716 C 59.497 121.943 59.055 125.488 59.285 128.939 C 59.357 130.011 59.561 131.079 59.776 132.135 C 60.31 134.754 59.3 135.179 57.164 136.333 C 58.949 136.906 60.389 137.634 60.865 139.579 C 61.323 141.452 60.758 143.013 59.92 144.627 C 60.297 145.124 60.674 145.663 61.093 146.167 C 62.004 147.261 61.976 147.859 60.615 149.028 C 61.129 149.413 61.619 149.78 62.205 150.219 C 62.37 149.898 62.493 149.66 62.676 149.304 C 62.814 149.576 62.998 149.779 63.011 149.993 C 63.079 151.089 63.548 151.957 64.263 152.783 C 64.591 153.162 64.727 153.799 64.753 154.329 C 64.825 155.771 66.042 156.631 67.579 156.06 C 67.884 156.649 68.128 157.31 68.528 157.859 C 69.721 159.495 69.99 161.945 72.531 162.423 C 72.531 162.724 72.531 163.012 72.531 163.291 C 72.606 163.323 72.663 163.373 72.706 163.363 C 73.016 163.288 73.388 163.046 73.619 163.144 C 74.598 163.557 75.484 163.562 76.308 162.729 C 76.418 162.764 76.528 162.8 76.637 162.836 C 76.637 163.705 76.842 164.641 76.588 165.428 C 76.242 166.498 74.439 166.967 72.62 166.648 C 72.812 166.476 72.951 166.351 73.09 166.225 C 71.289 167.017 70.179 165.49 68.83 164.872 C 67.391 164.212 66.226 163.135 65.545 161.501 Z" style="fill: rgb(255, 255, 255);" transform="matrix(1, 0, 0, 1, -2.842170943040401e-14, -1.4210854715202004e-14)"/>
  <path class="st3" d="M 175.204 88.883 C 178.056 89.652 180.059 88.304 181.675 86.066 C 182.48 87.326 182.718 90.402 182.107 91.694 C 181.952 91.482 181.814 91.294 181.675 91.104 C 181.591 91.173 181.517 91.203 181.498 91.254 C 181.116 92.3 180.872 93.421 180.338 94.382 C 179.001 96.789 177.543 99.128 176.114 101.482 C 175.591 102.345 174.195 102.817 173.258 102.503 C 172.652 102.299 171.712 100.687 171.745 99.934 C 171.779 99.156 171.782 98.377 171.824 97.599 C 171.872 96.685 171.917 95.893 172.889 95.242 C 173.675 94.715 174.324 93.786 174.097 92.545 C 173.857 91.236 174.048 89.952 175.204 88.883 Z" style="fill: rgb(255, 255, 255);" transform="matrix(1, 0, 0, 1, -2.842170943040401e-14, -1.4210854715202004e-14)"/>
  <path class="st2" d="M 123.15 201.247 C 121.982 201.247 120.802 201.223 119.644 201.176 L 119.849 196.169 C 121.453 196.234 123.086 196.253 124.709 196.22 L 124.808 201.231 C 124.254 201.242 123.701 201.247 123.15 201.247 Z M 128.849 201.061 L 128.526 196.06 C 130.143 195.956 131.772 195.802 133.367 195.603 L 133.987 200.576 C 132.293 200.787 130.565 200.95 128.849 201.061 Z M 115.606 200.919 C 113.896 200.771 112.172 200.568 110.481 200.319 L 111.212 195.362 C 112.805 195.597 114.43 195.787 116.042 195.928 L 115.606 200.919 Z M 137.991 199.981 L 137.141 195.043 C 138.731 194.769 140.334 194.443 141.906 194.076 L 143.049 198.954 C 141.38 199.346 139.679 199.69 137.991 199.981 Z M 106.49 199.634 C 104.817 199.305 103.123 198.921 101.457 198.489 L 102.713 193.637 C 104.283 194.044 105.878 194.407 107.454 194.715 L 106.49 199.634 Z M 146.969 197.938 L 145.596 193.119 C 147.152 192.676 148.711 192.181 150.231 191.648 L 151.889 196.377 C 150.276 196.943 148.621 197.468 146.969 197.938 Z M 97.551 197.376 C 95.92 196.868 94.276 196.303 92.663 195.695 L 94.432 191.006 C 95.952 191.58 97.501 192.113 99.038 192.59 L 97.551 197.376 Z M 155.677 194.947 L 153.799 190.301 C 155.287 189.7 156.781 189.043 158.239 188.347 L 160.395 192.871 C 158.846 193.61 157.257 194.308 155.677 194.947 Z M 88.902 194.172 C 87.325 193.489 85.75 192.752 84.224 191.979 L 86.485 187.508 C 87.923 188.235 89.406 188.93 90.893 189.574 L 88.902 194.172 Z M 164 191.048 L 161.636 186.628 C 163.051 185.872 164.468 185.058 165.847 184.21 L 168.472 188.48 C 167.007 189.38 165.502 190.243 164 191.048 Z M 80.65 190.064 C 79.16 189.22 77.675 188.319 76.235 187.387 L 78.958 183.18 C 80.316 184.059 81.716 184.908 83.12 185.704 L 80.65 190.064 Z M 171.866 186.282 L 169.045 182.141 C 170.375 181.235 171.697 180.275 172.977 179.286 L 176.041 183.251 C 174.683 184.301 173.278 185.32 171.866 186.282 Z M 72.886 185.106 C 71.493 184.108 70.111 183.055 68.781 181.978 L 71.934 178.084 C 73.189 179.099 74.49 180.091 75.804 181.032 L 72.886 185.106 Z M 179.184 180.704 L 175.938 176.887 C 177.172 175.838 178.387 174.742 179.55 173.63 L 183.015 177.249 C 181.781 178.43 180.493 179.592 179.184 180.704 Z M 65.694 179.355 C 64.414 178.215 63.152 177.024 61.944 175.812 L 65.491 172.273 C 66.63 173.415 67.82 174.538 69.027 175.613 L 65.694 179.355 Z M 185.872 174.385 L 182.243 170.929 C 183.354 169.763 184.447 168.544 185.49 167.308 L 189.319 170.542 C 188.211 171.854 187.051 173.146 185.872 174.385 Z M 59.152 172.881 C 58 171.614 56.872 170.295 55.798 168.962 L 59.699 165.817 C 60.712 167.074 61.776 168.317 62.862 169.511 L 59.152 172.881 Z M 191.859 167.387 L 187.884 164.335 C 188.867 163.054 189.826 161.727 190.732 160.39 L 194.88 163.201 C 193.918 164.62 192.902 166.029 191.859 167.387 Z M 53.334 165.752 C 52.325 164.372 51.343 162.942 50.415 161.502 L 54.628 158.788 C 55.502 160.146 56.428 161.493 57.379 162.794 L 53.334 165.752 Z M 197.074 159.796 L 192.799 157.18 C 193.639 155.808 194.451 154.387 195.212 152.955 L 199.636 155.31 C 198.827 156.829 197.966 158.338 197.074 159.796 Z M 48.306 158.051 C 47.451 156.574 46.626 155.049 45.857 153.517 L 50.334 151.266 C 51.059 152.71 51.836 154.148 52.642 155.539 L 48.306 158.051 Z M 201.456 151.687 L 196.927 149.542 C 197.618 148.082 198.274 146.583 198.877 145.083 L 203.527 146.952 C 202.887 148.544 202.19 150.137 201.456 151.687 Z M 44.129 149.863 C 43.434 148.301 42.777 146.693 42.175 145.086 L 46.867 143.328 C 47.434 144.842 48.054 146.356 48.708 147.827 L 44.129 149.863 Z M 204.95 143.153 L 200.217 141.505 C 200.749 139.98 201.24 138.417 201.679 136.861 L 206.502 138.22 C 206.037 139.873 205.514 141.532 204.95 143.153 Z M 40.845 141.26 C 40.32 139.626 39.838 137.957 39.413 136.301 L 44.268 135.057 C 44.667 136.617 45.121 138.187 45.615 139.727 L 40.845 141.26 Z M 207.509 134.297 L 202.626 133.165 C 202.99 131.599 203.311 129.996 203.581 128.4 L 208.521 129.235 C 208.235 130.929 207.894 132.633 207.509 134.297 Z M 209.103 125.227 L 204.128 124.626 C 204.321 123.025 204.469 121.395 204.568 119.783 L 209.57 120.088 C 209.465 121.799 209.308 123.527 209.103 125.227 Z M 209.722 116.044 L 204.711 115.973 C 204.717 115.579 204.72 115.187 204.72 114.792 C 204.72 113.568 204.692 112.328 204.638 111.107 L 204.629 110.932 L 209.636 110.719 L 209.643 110.868 C 209.701 112.18 209.73 113.494 209.73 114.792 C 209.73 115.21 209.727 115.627 209.722 116.044 Z M 204.365 107.134 C 204.216 105.525 204.017 103.901 203.773 102.308 L 208.727 101.551 C 208.985 103.24 209.197 104.964 209.355 106.672 L 204.365 107.134 Z M 203.109 98.552 C 202.792 96.972 202.421 95.379 202.008 93.817 L 206.853 92.537 C 207.291 94.195 207.685 95.885 208.022 97.564 L 203.109 98.552 Z M 200.948 90.154 C 200.462 88.616 199.923 87.071 199.346 85.563 L 204.026 83.773 C 204.639 85.373 205.21 87.012 205.726 88.646 L 200.948 90.154 Z M 197.9 82.036 C 197.253 80.559 196.553 79.085 195.82 77.651 L 200.281 75.369 C 201.059 76.89 201.803 78.457 202.49 80.025 L 197.9 82.036 Z M 49.244 80.466 L 44.698 78.355 C 45.422 76.797 46.201 75.242 47.014 73.736 L 51.424 76.116 C 50.659 77.534 49.925 78.998 49.244 80.466 Z M 194.007 74.303 C 193.204 72.9 192.35 71.507 191.469 70.162 L 195.663 67.417 C 196.597 68.846 197.504 70.325 198.356 71.814 L 194.007 74.303 Z M 53.314 72.797 L 49.019 70.215 C 49.898 68.752 50.838 67.29 51.81 65.87 L 55.944 68.703 C 55.027 70.041 54.143 71.418 53.314 72.797 Z M 189.31 67.023 C 188.362 65.713 187.365 64.418 186.345 63.17 L 190.223 59.998 C 191.306 61.321 192.364 62.696 193.369 64.085 L 189.31 67.023 Z M 58.176 65.607 L 54.178 62.584 C 55.21 61.22 56.298 59.867 57.412 58.561 L 61.224 61.815 C 60.173 63.046 59.148 64.321 58.176 65.607 Z M 183.862 60.276 C 182.787 59.08 181.658 57.896 180.506 56.759 L 184.027 53.193 C 185.25 54.4 186.449 55.657 187.589 56.927 L 183.862 60.276 Z M 63.767 58.971 L 60.112 55.544 C 61.289 54.289 62.514 53.058 63.753 51.885 L 67.197 55.526 C 66.031 56.629 64.877 57.789 63.767 58.971 Z M 177.73 54.142 C 176.526 53.059 175.278 52.001 174.019 50.996 L 177.145 47.08 C 178.48 48.146 179.805 49.268 181.082 50.417 L 177.73 54.142 Z M 70.027 52.967 L 66.754 49.173 C 68.057 48.05 69.404 46.955 70.76 45.92 L 73.8 49.904 C 72.524 50.878 71.254 51.909 70.027 52.967 Z M 170.982 48.686 C 169.672 47.737 168.318 46.817 166.959 45.95 L 169.651 41.724 C 171.094 42.643 172.531 43.62 173.921 44.627 L 170.982 48.686 Z M 76.883 47.663 L 74.03 43.543 C 75.446 42.563 76.901 41.618 78.357 40.735 L 80.957 45.018 C 79.587 45.85 78.215 46.74 76.883 47.663 Z M 163.69 43.974 C 162.288 43.169 160.844 42.398 159.399 41.681 L 161.627 37.192 C 163.162 37.954 164.695 38.774 166.184 39.628 L 163.69 43.974 Z M 84.257 43.117 L 81.86 38.717 C 83.368 37.896 84.915 37.111 86.458 36.386 L 88.588 40.923 C 87.135 41.605 85.678 42.343 84.257 43.117 Z M 92.068 39.388 L 90.154 34.757 C 91.733 34.104 93.357 33.489 94.981 32.929 L 96.615 37.665 C 95.085 38.194 93.555 38.773 92.068 39.388 Z" style="fill: rgb(55, 167, 223);" transform="matrix(1, 0, 0, 1, -2.842170943040401e-14, -1.4210854715202004e-14)"/>
</svg>