<?xml version="1.0" encoding="UTF-8" standalone="no"?>
<svg
   viewBox="0 0 540 60"
   height="60"
   width="540"
   version="1.1"
   id="svg8"
   sodipodi:docname="spritesheet.svg"
   inkscape:version="1.4 (e7c3feb100, 2024-10-09)"
   xmlns:inkscape="http://www.inkscape.org/namespaces/inkscape"
   xmlns:sodipodi="http://sodipodi.sourceforge.net/DTD/sodipodi-0.dtd"
   xmlns:xlink="http://www.w3.org/1999/xlink"
   xmlns="http://www.w3.org/2000/svg"
   xmlns:svg="http://www.w3.org/2000/svg">
  <defs
     id="defs8" />
  <sodipodi:namedview
     id="namedview8"
     pagecolor="#ffffff"
     bordercolor="#000000"
     borderopacity="0.25"
     inkscape:showpageshadow="2"
     inkscape:pageopacity="0.0"
     inkscape:pagecheckerboard="0"
     inkscape:deskcolor="#d1d1d1"
     inkscape:zoom="1.6416667"
     inkscape:cx="273.50254"
     inkscape:cy="-26.80203"
     inkscape:window-width="1920"
     inkscape:window-height="1011"
     inkscape:window-x="0"
     inkscape:window-y="1112"
     inkscape:window-maximized="1"
     inkscape:current-layer="svg8" />
  <g
     id="enabled"
     fill="#464646"
     transform="translate(-28.629441,2.4365483)">
    <g
       id="polyline">
      <path
         d="m 18,36 v 6 h 6 v -6 z m 4,4 h -2 v -2 h 2 z"
         id="path1" />
      <path
         d="m 36,18 v 6 h 6 v -6 z m 4,4 h -2 v -2 h 2 z"
         id="path2" />
      <path
         d="m 23.142,39.145 -2.285,-2.29 16,-15.998 2.285,2.285 z"
         id="path3" />
    </g>
    <path
       id="polygon"
       d="M 100,24.565 97.904,39.395 83.07,42 76,28.773 86.463,18 Z" />
    <path
       id="rectangle"
       d="m 140,20 h 20 v 20 h -20 z" />
    <path
       id="circle"
       d="m 221,30 c 0,6.078 -4.926,11 -11,11 -6.074,0 -11,-4.922 -11,-11 0,-6.074 4.926,-11 11,-11 6.074,0 11,4.926 11,11 z" />
    <path
       id="marker"
       d="m 270,19 c -4.971,0 -9,4.029 -9,9 0,4.971 5.001,12 9,14 4.001,-2 9,-9.029 9,-14 0,-4.971 -4.029,-9 -9,-9 z m 0,12.5 c -2.484,0 -4.5,-2.014 -4.5,-4.5 0,-2.484 2.016,-4.5 4.5,-4.5 2.485,0 4.5,2.016 4.5,4.5 0,2.486 -2.015,4.5 -4.5,4.5 z" />
    <g
       id="edit">
      <path
         d="m 337,30.156 v 0.407 5.604 c 0,1.658 -1.344,3 -3,3 h -10 c -1.655,0 -3,-1.342 -3,-3 v -10 c 0,-1.657 1.345,-3 3,-3 h 6.345 l 3.19,-3.17 H 324 c -3.313,0 -6,2.687 -6,6 v 10 c 0,3.313 2.687,6 6,6 h 10 c 3.314,0 6,-2.687 6,-6 v -8.809 l -3,2.968"
         id="path4" />
      <path
         d="m 338.72,24.637 -8.892,8.892 H 327 V 30.7 l 8.89,-8.89 z"
         id="path5" />
      <path
         d="m 338.697,17.826 h 4 v 4 h -4 z"
         transform="rotate(-134.99,340.703,19.817)"
         id="path6" />
    </g>
    <g
       id="remove">
      <path
         d="m 381,42 h 18 V 24 h -18 z m 14,-16 h 2 v 14 h -2 z m -4,0 h 2 v 14 h -2 z m -4,0 h 2 v 14 h -2 z m -4,0 h 2 v 14 h -2 z"
         id="path7" />
      <path
         d="m 395,20 v -4 h -10 v 4 h -6 v 2 h 22 v -2 z m -2,0 h -6 v -2 h 6 z"
         id="path8" />
    </g>
  </g>
  <g
     id="disabled"
     fill="#bbbbbb"
     transform="translate(91.370559,2.4365483)">
    <use
       xlink:href="#edit"
       id="edit-disabled" />
    <use
       xlink:href="#remove"
       id="remove-disabled" />
  </g>
</svg>
